<?xml version="1.0" encoding="utf-8"?>
<!-- Generator: Adobe Illustrator 22.0.1, SVG Export Plug-In . SVG Version: 6.00 Build 0)  -->
<svg version="1.1" id="Layer_1" xmlns="http://www.w3.org/2000/svg" xmlns:xlink="http://www.w3.org/1999/xlink" x="0px" y="0px"
	 viewBox="0 0 179.9 115.1" style="enable-background:new 0 0 179.9 115.1;" xml:space="preserve">
<style type="text/css">
	.st0{fill:#500000;}
	.st1{fill:#FFFFFF;}
	.st2{fill:#A6A6A6;}
</style>
<g>
	<g>
		<path d="M42.6,74.8h-0.9v-4.9h-1.7v-0.8h4.3v0.8h-1.7V74.8z"/>
		<path d="M48.7,74.8h-3.2v-5.7h3.2v0.8h-2.3v1.6h2.2v0.8h-2.2V74h2.3V74.8z"/>
		<path d="M54.6,74.8h-1.1l-1.4-2.3l-1.4,2.3h-1l1.9-3l-1.8-2.8h1l1.3,2.2l1.3-2.2h1l-1.8,2.8L54.6,74.8z"/>
		<path d="M59.3,74.8l-0.6-1.6h-2.2L56,74.8h-1l2.1-5.7h1l2.1,5.7H59.3z M58.5,72.4L58,70.8c0-0.1-0.1-0.3-0.2-0.5
			c-0.1-0.2-0.1-0.4-0.1-0.5c-0.1,0.3-0.2,0.7-0.3,1.1l-0.5,1.5H58.5z"/>
		<path d="M64.7,73.2c0,0.5-0.2,0.9-0.6,1.2c-0.4,0.3-0.9,0.4-1.5,0.4s-1.2-0.1-1.6-0.3v-0.9c0.3,0.1,0.5,0.2,0.8,0.3
			c0.3,0.1,0.6,0.1,0.8,0.1c0.4,0,0.6-0.1,0.8-0.2s0.3-0.3,0.3-0.6c0-0.2-0.1-0.4-0.2-0.5c-0.2-0.1-0.5-0.3-1-0.5
			c-0.5-0.2-0.9-0.5-1.1-0.7c-0.2-0.3-0.3-0.6-0.3-1c0-0.5,0.2-0.9,0.5-1.1C62,69.1,62.5,69,63,69c0.5,0,1.1,0.1,1.6,0.4l-0.3,0.8
			c-0.5-0.2-1-0.3-1.4-0.3c-0.3,0-0.5,0.1-0.7,0.2c-0.2,0.1-0.2,0.3-0.2,0.5c0,0.1,0,0.3,0.1,0.4s0.2,0.2,0.3,0.3s0.4,0.2,0.8,0.4
			c0.4,0.2,0.7,0.3,0.9,0.5c0.2,0.2,0.3,0.3,0.4,0.5C64.7,72.7,64.7,73,64.7,73.2z"/>
		<path d="M72.3,74.8l-0.6-1.6h-2.2L69,74.8h-1l2.1-5.7h1l2.1,5.7H72.3z M71.5,72.4l-0.5-1.6c0-0.1-0.1-0.3-0.2-0.5
			c-0.1-0.2-0.1-0.4-0.1-0.5c-0.1,0.3-0.2,0.7-0.3,1.1l-0.5,1.5H71.5z"/>
		<path d="M74,73.3c0-0.3,0.1-0.6,0.2-0.9c0.2-0.3,0.5-0.5,0.9-0.8c-0.2-0.3-0.4-0.5-0.5-0.7c-0.1-0.2-0.1-0.4-0.1-0.6
			c0-0.4,0.1-0.7,0.4-0.9c0.3-0.2,0.7-0.3,1.1-0.3c0.5,0,0.8,0.1,1.1,0.3c0.3,0.2,0.4,0.5,0.4,0.9c0,0.3-0.1,0.6-0.3,0.8
			s-0.5,0.5-0.9,0.7l1.4,1.3c0.2-0.3,0.4-0.7,0.5-1.2h0.9c-0.2,0.7-0.5,1.3-0.9,1.8l1.2,1.1h-1.2l-0.6-0.6c-0.3,0.2-0.5,0.4-0.8,0.5
			c-0.3,0.1-0.6,0.2-1,0.2c-0.6,0-1.1-0.1-1.4-0.4C74.2,74.1,74,73.8,74,73.3z M76,74.1c0.5,0,0.9-0.1,1.2-0.4l-1.5-1.5
			c-0.3,0.2-0.5,0.3-0.6,0.5C75.1,72.8,75,73,75,73.2c0,0.3,0.1,0.5,0.3,0.6C75.5,74,75.7,74.1,76,74.1z M75.4,70.3
			c0,0.2,0,0.3,0.1,0.5c0.1,0.1,0.2,0.3,0.4,0.5c0.3-0.2,0.5-0.3,0.6-0.5c0.1-0.1,0.2-0.3,0.2-0.5c0-0.2-0.1-0.3-0.2-0.4
			s-0.3-0.2-0.5-0.2c-0.2,0-0.4,0.1-0.5,0.2S75.4,70.1,75.4,70.3z"/>
		<path d="M83.2,74.8L81.6,70h0c0,0.7,0.1,1.4,0.1,2v2.8h-0.8v-5.7h1.3l1.6,4.5h0l1.6-4.5h1.3v5.7h-0.9v-2.8c0-0.3,0-0.7,0-1.1
			c0-0.5,0-0.7,0-0.8h0L84,74.8H83.2z"/>
		<path d="M95.5,69.1v3.7c0,0.4-0.1,0.8-0.3,1.1c-0.2,0.3-0.4,0.6-0.8,0.7c-0.3,0.2-0.8,0.3-1.2,0.3c-0.7,0-1.3-0.2-1.7-0.6
			c-0.4-0.4-0.6-0.9-0.6-1.5v-3.7h0.9v3.6c0,0.5,0.1,0.8,0.3,1s0.6,0.3,1,0.3c0.9,0,1.3-0.5,1.3-1.4v-3.6H95.5z"/>
		<path d="M102.1,74.8H101l-2.8-4.6h0l0,0.3c0,0.5,0.1,0.9,0.1,1.3v3h-0.8v-5.7h1.1l2.8,4.5h0c0-0.1,0-0.3,0-0.7s0-0.7,0-0.9v-3h0.9
			V74.8z"/>
		<path d="M104,74.8v-5.7h0.9v5.7H104z"/>
		<path d="M110.1,69.1h1l-2,5.7h-1l-2-5.7h1l1.2,3.6c0.1,0.2,0.1,0.4,0.2,0.7c0.1,0.3,0.1,0.5,0.1,0.6c0-0.2,0.1-0.4,0.2-0.7
			c0.1-0.3,0.1-0.5,0.2-0.6L110.1,69.1z"/>
		<path d="M115.5,74.8h-3.2v-5.7h3.2v0.8h-2.3v1.6h2.2v0.8h-2.2V74h2.3V74.8z"/>
		<path d="M118,72.5v2.3h-0.9v-5.7h1.6c0.7,0,1.3,0.1,1.6,0.4c0.4,0.3,0.5,0.7,0.5,1.3c0,0.7-0.4,1.2-1.1,1.5l1.6,2.5h-1.1l-1.4-2.3
			H118z M118,71.7h0.6c0.4,0,0.8-0.1,0.9-0.2c0.2-0.2,0.3-0.4,0.3-0.7c0-0.3-0.1-0.6-0.3-0.7c-0.2-0.1-0.5-0.2-1-0.2H118V71.7z"/>
		<path d="M125.9,73.2c0,0.5-0.2,0.9-0.6,1.2c-0.4,0.3-0.9,0.4-1.5,0.4s-1.2-0.1-1.6-0.3v-0.9c0.3,0.1,0.5,0.2,0.8,0.3
			c0.3,0.1,0.6,0.1,0.8,0.1c0.4,0,0.6-0.1,0.8-0.2s0.3-0.3,0.3-0.6c0-0.2-0.1-0.4-0.2-0.5c-0.2-0.1-0.5-0.3-1-0.5
			c-0.5-0.2-0.9-0.5-1.1-0.7c-0.2-0.3-0.3-0.6-0.3-1c0-0.5,0.2-0.9,0.5-1.1c0.3-0.3,0.8-0.4,1.4-0.4c0.5,0,1.1,0.1,1.6,0.4l-0.3,0.8
			c-0.5-0.2-1-0.3-1.4-0.3c-0.3,0-0.5,0.1-0.7,0.2c-0.2,0.1-0.2,0.3-0.2,0.5c0,0.1,0,0.3,0.1,0.4s0.2,0.2,0.3,0.3s0.4,0.2,0.8,0.4
			c0.4,0.2,0.7,0.3,0.9,0.5c0.2,0.2,0.3,0.3,0.4,0.5C125.9,72.7,125.9,73,125.9,73.2z"/>
		<path d="M127.4,74.8v-5.7h0.9v5.7H127.4z"/>
		<path d="M132.2,74.8h-0.9v-4.9h-1.7v-0.8h4.3v0.8h-1.7V74.8z"/>
		<path d="M136.8,71.7l1.4-2.6h1l-1.9,3.5v2.2h-0.9v-2.2l-1.9-3.5h1L136.8,71.7z"/>
	</g>
	<g>
		<path d="M23.3,83c-1.3,0-2.2,0.4-3,1.3s-1.1,2-1.1,3.4c0,1.5,0.4,2.6,1.1,3.5c0.7,0.8,1.7,1.2,3,1.2c0.8,0,1.7-0.1,2.7-0.4v1.2
			c-0.8,0.3-1.8,0.4-2.9,0.4c-1.7,0-3-0.5-3.9-1.5c-0.9-1-1.4-2.5-1.4-4.4c0-1.2,0.2-2.2,0.7-3.1c0.4-0.9,1.1-1.6,1.9-2
			c0.8-0.5,1.8-0.7,2.9-0.7c1.2,0,2.2,0.2,3.1,0.7l-0.6,1.1C25,83.2,24.2,83,23.3,83z"/>
		<path d="M35.7,89.1c0,1.4-0.4,2.5-1.1,3.3c-0.7,0.8-1.7,1.2-2.9,1.2c-0.8,0-1.4-0.2-2-0.5s-1.1-0.9-1.4-1.5s-0.5-1.5-0.5-2.4
			c0-1.4,0.3-2.5,1-3.3c0.7-0.8,1.7-1.2,2.9-1.2c1.2,0,2.1,0.4,2.9,1.2S35.7,87.7,35.7,89.1z M29.2,89.1c0,1.1,0.2,1.9,0.7,2.5
			c0.4,0.6,1.1,0.9,1.9,0.9c0.8,0,1.5-0.3,1.9-0.9s0.7-1.4,0.7-2.5c0-1.1-0.2-1.9-0.7-2.5c-0.4-0.6-1.1-0.8-1.9-0.8
			c-0.8,0-1.5,0.3-1.9,0.8C29.4,87.1,29.2,88,29.2,89.1z"/>
		<path d="M39.3,93.4H38V81.2h1.3V93.4z"/>
		<path d="M43.3,93.4H42V81.2h1.3V93.4z"/>
		<path d="M49.7,93.5c-1.3,0-2.3-0.4-3-1.2c-0.7-0.8-1.1-1.8-1.1-3.2c0-1.4,0.3-2.5,1-3.3s1.6-1.2,2.7-1.2c1.1,0,1.9,0.4,2.5,1.1
			c0.6,0.7,0.9,1.6,0.9,2.8v0.8H47c0,1,0.3,1.8,0.8,2.3c0.5,0.5,1.2,0.8,2,0.8c0.9,0,1.8-0.2,2.7-0.6V93c-0.5,0.2-0.9,0.3-1.3,0.4
			S50.3,93.5,49.7,93.5z M49.3,85.7c-0.7,0-1.2,0.2-1.6,0.7c-0.4,0.4-0.6,1.1-0.7,1.9h4.5c0-0.8-0.2-1.4-0.5-1.9
			C50.5,85.9,50,85.7,49.3,85.7z"/>
		<path d="M62.1,84.8v0.8l-1.6,0.2c0.1,0.2,0.3,0.4,0.4,0.7c0.1,0.3,0.2,0.6,0.2,1c0,0.8-0.3,1.5-0.9,2s-1.4,0.8-2.4,0.8
			c-0.3,0-0.5,0-0.7-0.1c-0.6,0.3-0.8,0.7-0.8,1.1c0,0.2,0.1,0.4,0.3,0.5c0.2,0.1,0.5,0.2,1,0.2h1.5c0.9,0,1.6,0.2,2.1,0.6
			s0.7,1,0.7,1.7c0,0.9-0.4,1.7-1.1,2.2c-0.8,0.5-1.9,0.7-3.3,0.7c-1.1,0-2-0.2-2.6-0.6c-0.6-0.4-0.9-1-0.9-1.8c0-0.5,0.2-1,0.5-1.4
			s0.8-0.6,1.4-0.8c-0.2-0.1-0.4-0.3-0.6-0.5c-0.1-0.2-0.2-0.5-0.2-0.7c0-0.3,0.1-0.6,0.2-0.8s0.4-0.5,0.8-0.7
			c-0.4-0.2-0.8-0.5-1.1-0.9s-0.4-0.9-0.4-1.5c0-0.9,0.3-1.7,0.8-2.2s1.4-0.8,2.4-0.8c0.4,0,0.9,0.1,1.2,0.2H62.1z M55.2,94.8
			c0,0.5,0.2,0.8,0.6,1.1c0.4,0.2,1,0.4,1.7,0.4c1.1,0,1.9-0.2,2.4-0.5c0.5-0.3,0.8-0.8,0.8-1.3c0-0.5-0.1-0.8-0.4-1
			s-0.8-0.3-1.6-0.3h-1.6c-0.6,0-1,0.1-1.4,0.4S55.2,94.3,55.2,94.8z M55.9,87.5c0,0.6,0.2,1.1,0.5,1.4c0.3,0.3,0.8,0.5,1.4,0.5
			c1.3,0,1.9-0.6,1.9-1.8c0-1.3-0.6-1.9-1.9-1.9c-0.6,0-1.1,0.2-1.4,0.5S55.9,86.9,55.9,87.5z"/>
		<path d="M67.4,93.5c-1.3,0-2.3-0.4-3-1.2c-0.7-0.8-1.1-1.8-1.1-3.2c0-1.4,0.3-2.5,1-3.3c0.7-0.8,1.6-1.2,2.7-1.2
			c1.1,0,1.9,0.4,2.5,1.1c0.6,0.7,0.9,1.6,0.9,2.8v0.8h-5.9c0,1,0.3,1.8,0.8,2.3c0.5,0.5,1.2,0.8,2,0.8c0.9,0,1.8-0.2,2.7-0.6V93
			c-0.5,0.2-0.9,0.3-1.3,0.4S68,93.5,67.4,93.5z M67.1,85.7c-0.7,0-1.2,0.2-1.6,0.7c-0.4,0.4-0.6,1.1-0.7,1.9h4.5
			c0-0.8-0.2-1.4-0.5-1.9C68.3,85.9,67.8,85.7,67.1,85.7z"/>
		<path d="M84.3,89.1c0,1.4-0.4,2.5-1.1,3.3c-0.7,0.8-1.7,1.2-2.9,1.2c-0.8,0-1.4-0.2-2-0.5s-1.1-0.9-1.4-1.5s-0.5-1.5-0.5-2.4
			c0-1.4,0.3-2.5,1-3.3c0.7-0.8,1.7-1.2,2.9-1.2c1.2,0,2.1,0.4,2.9,1.2S84.3,87.7,84.3,89.1z M77.8,89.1c0,1.1,0.2,1.9,0.7,2.5
			c0.4,0.6,1.1,0.9,1.9,0.9s1.5-0.3,1.9-0.9s0.7-1.4,0.7-2.5c0-1.1-0.2-1.9-0.7-2.5c-0.4-0.6-1.1-0.8-1.9-0.8
			c-0.8,0-1.5,0.3-1.9,0.8C78,87.1,77.8,88,77.8,89.1z"/>
		<path d="M90.5,85.8h-2.2v7.6H87v-7.6h-1.5v-0.6l1.5-0.5v-0.5c0-2.1,0.9-3.2,2.8-3.2c0.5,0,1,0.1,1.6,0.3l-0.3,1
			c-0.5-0.2-0.9-0.2-1.3-0.2c-0.5,0-0.9,0.2-1.1,0.5c-0.2,0.3-0.4,0.8-0.4,1.6v0.6h2.2V85.8z"/>
		<path d="M101.5,93.4l-3.9-10.1h-0.1c0.1,0.8,0.1,1.8,0.1,2.9v7.3h-1.2V81.9h2l3.6,9.4h0.1l3.6-9.4h2v11.4h-1.3V86
			c0-0.8,0-1.8,0.1-2.8h-0.1l-3.9,10.1H101.5z"/>
		<path d="M114.3,93.5c-1.3,0-2.3-0.4-3-1.2c-0.7-0.8-1.1-1.8-1.1-3.2c0-1.4,0.3-2.5,1-3.3s1.6-1.2,2.7-1.2c1.1,0,1.9,0.4,2.5,1.1
			c0.6,0.7,0.9,1.6,0.9,2.8v0.8h-5.9c0,1,0.3,1.8,0.8,2.3c0.5,0.5,1.2,0.8,2,0.8c0.9,0,1.8-0.2,2.7-0.6V93c-0.5,0.2-0.9,0.3-1.3,0.4
			S114.8,93.5,114.3,93.5z M113.9,85.7c-0.7,0-1.2,0.2-1.6,0.7c-0.4,0.4-0.6,1.1-0.7,1.9h4.5c0-0.8-0.2-1.4-0.5-1.9
			C115.1,85.9,114.6,85.7,113.9,85.7z"/>
		<path d="M125.5,92.2L125.5,92.2c-0.7,0.9-1.6,1.3-2.8,1.3c-1.1,0-2-0.4-2.6-1.1s-0.9-1.9-0.9-3.3c0-1.4,0.3-2.5,0.9-3.3
			s1.5-1.2,2.6-1.2c1.2,0,2.1,0.4,2.7,1.3h0.1l-0.1-0.6l0-0.6v-3.5h1.3v12.2h-1.1L125.5,92.2z M122.9,92.4c0.9,0,1.5-0.2,1.9-0.7
			c0.4-0.5,0.6-1.3,0.6-2.3v-0.3c0-1.2-0.2-2.1-0.6-2.6c-0.4-0.5-1-0.8-1.9-0.8c-0.8,0-1.3,0.3-1.7,0.9c-0.4,0.6-0.6,1.4-0.6,2.5
			c0,1.1,0.2,1.9,0.6,2.5C121.5,92.2,122.1,92.4,122.9,92.4z"/>
		<path d="M129.3,82.5c0-0.3,0.1-0.5,0.2-0.7c0.1-0.1,0.3-0.2,0.5-0.2c0.2,0,0.4,0.1,0.5,0.2s0.2,0.4,0.2,0.6c0,0.3-0.1,0.5-0.2,0.7
			c-0.2,0.1-0.3,0.2-0.5,0.2c-0.2,0-0.4-0.1-0.5-0.2C129.4,83,129.3,82.8,129.3,82.5z M130.7,93.4h-1.3v-8.6h1.3V93.4z"/>
		<path d="M136.9,93.5c-1.2,0-2.2-0.4-2.9-1.1c-0.7-0.8-1-1.8-1-3.2c0-1.4,0.3-2.5,1-3.3s1.7-1.2,2.9-1.2c0.4,0,0.8,0,1.2,0.1
			c0.4,0.1,0.7,0.2,1,0.3l-0.4,1.1c-0.3-0.1-0.6-0.2-0.9-0.3c-0.3-0.1-0.6-0.1-0.9-0.1c-1.7,0-2.6,1.1-2.6,3.3
			c0,1.1,0.2,1.9,0.6,2.4s1.1,0.8,1.9,0.8c0.7,0,1.4-0.2,2.2-0.5v1.1C138.5,93.4,137.8,93.5,136.9,93.5z"/>
		<path d="M141,82.5c0-0.3,0.1-0.5,0.2-0.7c0.1-0.1,0.3-0.2,0.5-0.2c0.2,0,0.4,0.1,0.5,0.2s0.2,0.4,0.2,0.6c0,0.3-0.1,0.5-0.2,0.7
			c-0.2,0.1-0.3,0.2-0.5,0.2c-0.2,0-0.4-0.1-0.5-0.2C141.1,83,141,82.8,141,82.5z M142.4,93.4h-1.3v-8.6h1.3V93.4z"/>
		<path d="M151,93.4v-5.5c0-0.7-0.2-1.2-0.5-1.6s-0.8-0.5-1.5-0.5c-0.9,0-1.6,0.2-2,0.7s-0.6,1.3-0.6,2.4v4.5h-1.3v-8.6h1.1l0.2,1.2
			h0.1c0.3-0.4,0.6-0.7,1.1-1c0.5-0.2,1-0.3,1.6-0.3c1,0,1.8,0.2,2.3,0.7c0.5,0.5,0.8,1.3,0.8,2.4v5.6H151z"/>
		<path d="M158.6,93.5c-1.3,0-2.3-0.4-3-1.2c-0.7-0.8-1.1-1.8-1.1-3.2c0-1.4,0.3-2.5,1-3.3s1.6-1.2,2.7-1.2c1.1,0,1.9,0.4,2.5,1.1
			c0.6,0.7,0.9,1.6,0.9,2.8v0.8h-5.9c0,1,0.3,1.8,0.8,2.3c0.5,0.5,1.2,0.8,2,0.8c0.9,0,1.8-0.2,2.7-0.6V93c-0.5,0.2-0.9,0.3-1.3,0.4
			S159.2,93.5,158.6,93.5z M158.2,85.7c-0.7,0-1.2,0.2-1.6,0.7c-0.4,0.4-0.6,1.1-0.7,1.9h4.5c0-0.8-0.2-1.4-0.5-1.9
			C159.4,85.9,158.9,85.7,158.2,85.7z"/>
	</g>
	<g>
		<rect x="71.1" y="17.8" class="st0" width="37.3" height="37.6"/>
		<g>
			<polygon class="st1" points="103.4,32.8 100.6,32.8 100.5,32.8 100.4,32.9 98.4,37.1 96.4,32.9 96.3,32.8 96.1,32.8 93.5,32.8 
				93.2,32.8 93.2,33 93.2,34.5 93.2,34.7 93.5,34.7 93.9,34.7 93.9,40.7 93.4,40.7 93.2,40.7 93.2,41 93.2,42.4 93.2,42.6 
				93.4,42.6 96.4,42.6 96.7,42.6 96.7,42.4 96.7,41 96.7,40.7 96.4,40.7 95.9,40.7 95.9,36.5 98.2,41.1 98.4,41.6 98.6,41.1 
				100.9,36.5 100.9,40.7 100.4,40.7 100.1,40.7 100.1,41 100.1,42.4 100.1,42.6 100.4,42.6 103.4,42.6 103.7,42.6 103.7,42.4 
				103.7,41 103.7,40.7 103.4,40.7 102.9,40.7 102.9,34.7 103.4,34.7 103.7,34.7 103.7,34.5 103.7,33 103.7,32.8 			"/>
			<path class="st1" d="M85.9,40.7h-0.8l-2.6-6h0.2H83v-0.3V33v-0.3h-0.3h-3.7h-0.3V33v1.4v0.3h0.3h0.3l-2.6,6H76h-0.3V41v1.4v0.3
				H76h3.3h0.3v-0.3V41v-0.3h-0.3H79l0.4-1h3.1l0.4,1h-0.3h-0.3V41v1.4v0.3h0.3h3.3h0.3v-0.3V41v-0.3H85.9z M81.7,37.8h-1.5l0.7-1.7
				L81.7,37.8z"/>
			<polygon class="st1" points="100.2,25.3 79.1,25.3 78.8,25.3 78.8,25.6 78.8,31.2 78.8,31.5 79.1,31.5 82.8,31.5 83.1,31.5 
				83.1,31.2 83.1,29.1 87.6,29.1 87.6,44 85.5,44 85.2,44 85.2,44.2 85.2,47.9 85.2,48.2 85.5,48.2 93.9,48.2 94.2,48.2 94.2,47.9 
				94.2,44.2 94.2,44 93.9,44 91.8,44 91.8,29.1 96.3,29.1 96.3,31.2 96.3,31.5 96.6,31.5 100.2,31.5 100.5,31.5 100.5,31.2 
				100.5,25.6 100.5,25.3 			"/>
			<g>
				<polygon class="st2" points="92.4,45.7 93.3,44.8 93.3,47.3 92.4,46.4 				"/>
				<polygon class="st2" points="90.9,44.8 90,45.7 90,27.4 90.9,28.2 				"/>
				<polygon class="st2" points="80.6,27 79.7,26.1 99.2,26.1 98,27 				"/>
				<polygon class="st2" points="99.7,30.6 98.8,29.8 98.8,27.5 99.7,26.6 				"/>
			</g>
		</g>
	</g>
	<g>
		<path class="st0" d="M110,54.7c0-0.4,0.3-0.7,0.7-0.7c0.4,0,0.7,0.3,0.7,0.7c0,0.4-0.3,0.7-0.7,0.7C110.3,55.4,110,55.1,110,54.7z
			 M111.3,54.7c0-0.3-0.3-0.6-0.6-0.6c-0.3,0-0.6,0.3-0.6,0.6c0,0.3,0.3,0.6,0.6,0.6C111,55.3,111.3,55,111.3,54.7z M110.4,54.2h0.3
			c0.2,0,0.3,0.1,0.3,0.2c0,0.1-0.1,0.2-0.2,0.2l0.2,0.4h-0.2l-0.2-0.4h-0.1v0.4h-0.2V54.2z M110.6,54.6h0.1c0.1,0,0.2,0,0.2-0.1
			c0-0.1-0.1-0.1-0.2-0.1h-0.1V54.6z"/>
	</g>
</g>
</svg>
