<?xml version="1.0" encoding="utf-8"?>
<!-- Generator: Adobe Illustrator 22.0.1, SVG Export Plug-In . SVG Version: 6.00 Build 0)  -->
<svg version="1.1" id="Layer_1" xmlns="http://www.w3.org/2000/svg" xmlns:xlink="http://www.w3.org/1999/xlink" x="0px" y="0px"
	 viewBox="0 0 179.6 115.5" style="enable-background:new 0 0 179.6 115.5;" xml:space="preserve">
<style type="text/css">
	.st0{fill:#FFFFFF;}
	.st1{fill:#A6A6A6;}
</style>
<g>
	<g>
		<path class="st0" d="M42.6,75h-0.9v-4.9H40v-0.8h4.3v0.8h-1.7V75z"/>
		<path class="st0" d="M48.8,75h-3.2v-5.7h3.2v0.8h-2.3v1.6h2.2v0.8h-2.2v1.8h2.3V75z"/>
		<path class="st0" d="M54.7,75h-1.1l-1.4-2.3L50.7,75h-1l1.9-3l-1.8-2.8h1l1.3,2.2l1.3-2.2h1L52.7,72L54.7,75z"/>
		<path class="st0" d="M59.4,75l-0.6-1.6h-2.2L56.1,75h-1l2.1-5.7h1l2.1,5.7H59.4z M58.6,72.6L58,71c0-0.1-0.1-0.3-0.2-0.5
			c-0.1-0.2-0.1-0.4-0.1-0.5c-0.1,0.3-0.2,0.7-0.3,1.1l-0.5,1.5H58.6z"/>
		<path class="st0" d="M64.8,73.4c0,0.5-0.2,0.9-0.6,1.2c-0.4,0.3-0.9,0.4-1.5,0.4s-1.2-0.1-1.6-0.3v-0.9c0.3,0.1,0.5,0.2,0.8,0.3
			c0.3,0.1,0.6,0.1,0.8,0.1c0.4,0,0.6-0.1,0.8-0.2s0.3-0.3,0.3-0.6c0-0.2-0.1-0.4-0.2-0.5c-0.2-0.1-0.5-0.3-1-0.5
			c-0.5-0.2-0.9-0.5-1.1-0.7c-0.2-0.3-0.3-0.6-0.3-1c0-0.5,0.2-0.9,0.5-1.1c0.3-0.3,0.8-0.4,1.4-0.4c0.5,0,1.1,0.1,1.6,0.4l-0.3,0.8
			c-0.5-0.2-1-0.3-1.4-0.3c-0.3,0-0.5,0.1-0.7,0.2c-0.2,0.1-0.2,0.3-0.2,0.5c0,0.1,0,0.3,0.1,0.4s0.2,0.2,0.3,0.3
			c0.1,0.1,0.4,0.2,0.8,0.4c0.4,0.2,0.7,0.3,0.9,0.5c0.2,0.2,0.3,0.3,0.4,0.5C64.8,73,64.8,73.2,64.8,73.4z"/>
		<path class="st0" d="M72.3,75l-0.6-1.6h-2.2L69,75h-1l2.1-5.7h1l2.1,5.7H72.3z M71.5,72.6L71,71c0-0.1-0.1-0.3-0.2-0.5
			c-0.1-0.2-0.1-0.4-0.1-0.5c-0.1,0.3-0.2,0.7-0.3,1.1l-0.5,1.5H71.5z"/>
		<path class="st0" d="M74.1,73.5c0-0.3,0.1-0.6,0.2-0.9c0.2-0.3,0.5-0.5,0.9-0.8c-0.2-0.3-0.4-0.5-0.5-0.7
			c-0.1-0.2-0.1-0.4-0.1-0.6c0-0.4,0.1-0.7,0.4-0.9c0.3-0.2,0.7-0.3,1.1-0.3c0.5,0,0.8,0.1,1.1,0.3c0.3,0.2,0.4,0.5,0.4,0.9
			c0,0.3-0.1,0.6-0.3,0.8c-0.2,0.2-0.5,0.5-0.9,0.7l1.4,1.3c0.2-0.3,0.4-0.7,0.5-1.2h0.9c-0.2,0.7-0.5,1.3-0.9,1.8l1.2,1.1h-1.2
			l-0.6-0.6c-0.3,0.2-0.5,0.4-0.8,0.5c-0.3,0.1-0.6,0.2-1,0.2c-0.6,0-1.1-0.1-1.4-0.4C74.3,74.4,74.1,74,74.1,73.5z M76.1,74.3
			c0.5,0,0.9-0.1,1.2-0.4l-1.5-1.5c-0.3,0.2-0.5,0.3-0.6,0.5c-0.1,0.2-0.2,0.3-0.2,0.5c0,0.3,0.1,0.5,0.3,0.6
			C75.5,74.2,75.8,74.3,76.1,74.3z M75.5,70.5c0,0.2,0,0.3,0.1,0.5c0.1,0.1,0.2,0.3,0.4,0.5c0.3-0.2,0.5-0.3,0.6-0.5
			c0.1-0.1,0.2-0.3,0.2-0.5c0-0.2-0.1-0.3-0.2-0.4s-0.3-0.2-0.5-0.2c-0.2,0-0.4,0.1-0.5,0.2S75.5,70.3,75.5,70.5z"/>
		<path class="st0" d="M83.3,75l-1.7-4.8h0c0,0.7,0.1,1.4,0.1,2V75h-0.8v-5.7h1.3l1.6,4.5h0l1.6-4.5h1.3V75h-0.9v-2.8
			c0-0.3,0-0.7,0-1.1c0-0.5,0-0.7,0-0.8h0L84.1,75H83.3z"/>
		<path class="st0" d="M95.6,69.3V73c0,0.4-0.1,0.8-0.3,1.1c-0.2,0.3-0.4,0.6-0.8,0.7c-0.3,0.2-0.8,0.3-1.2,0.3
			c-0.7,0-1.3-0.2-1.7-0.6C91.2,74.1,91,73.6,91,73v-3.7H92v3.6c0,0.5,0.1,0.8,0.3,1s0.6,0.3,1,0.3c0.9,0,1.3-0.5,1.3-1.4v-3.6H95.6
			z"/>
		<path class="st0" d="M102.2,75H101l-2.8-4.6h0l0,0.3c0,0.5,0.1,0.9,0.1,1.3v3h-0.8v-5.7h1.1l2.8,4.5h0c0-0.1,0-0.3,0-0.7
			s0-0.7,0-0.9v-3h0.9V75z"/>
		<path class="st0" d="M104.1,75v-5.7h0.9V75H104.1z"/>
		<path class="st0" d="M110.2,69.3h1l-2,5.7h-1l-2-5.7h1l1.2,3.6c0.1,0.2,0.1,0.4,0.2,0.7s0.1,0.5,0.1,0.6c0-0.2,0.1-0.4,0.2-0.7
			c0.1-0.3,0.1-0.5,0.2-0.6L110.2,69.3z"/>
		<path class="st0" d="M115.5,75h-3.2v-5.7h3.2v0.8h-2.3v1.6h2.2v0.8h-2.2v1.8h2.3V75z"/>
		<path class="st0" d="M118.1,72.7V75h-0.9v-5.7h1.6c0.7,0,1.3,0.1,1.6,0.4s0.5,0.7,0.5,1.3c0,0.7-0.4,1.2-1.1,1.5l1.6,2.5h-1.1
			l-1.4-2.3H118.1z M118.1,71.9h0.6c0.4,0,0.8-0.1,0.9-0.2c0.2-0.2,0.3-0.4,0.3-0.7c0-0.3-0.1-0.6-0.3-0.7c-0.2-0.1-0.5-0.2-1-0.2
			h-0.6V71.9z"/>
		<path class="st0" d="M126,73.4c0,0.5-0.2,0.9-0.6,1.2c-0.4,0.3-0.9,0.4-1.5,0.4s-1.2-0.1-1.6-0.3v-0.9c0.3,0.1,0.5,0.2,0.8,0.3
			c0.3,0.1,0.6,0.1,0.8,0.1c0.4,0,0.6-0.1,0.8-0.2s0.3-0.3,0.3-0.6c0-0.2-0.1-0.4-0.2-0.5c-0.2-0.1-0.5-0.3-1-0.5
			c-0.5-0.2-0.9-0.5-1.1-0.7c-0.2-0.3-0.3-0.6-0.3-1c0-0.5,0.2-0.9,0.5-1.1c0.3-0.3,0.8-0.4,1.4-0.4c0.5,0,1.1,0.1,1.6,0.4l-0.3,0.8
			c-0.5-0.2-1-0.3-1.4-0.3c-0.3,0-0.5,0.1-0.7,0.2c-0.2,0.1-0.2,0.3-0.2,0.5c0,0.1,0,0.3,0.1,0.4s0.2,0.2,0.3,0.3
			c0.1,0.1,0.4,0.2,0.8,0.4c0.4,0.2,0.7,0.3,0.9,0.5c0.2,0.2,0.3,0.3,0.4,0.5C125.9,73,126,73.2,126,73.4z"/>
		<path class="st0" d="M127.5,75v-5.7h0.9V75H127.5z"/>
		<path class="st0" d="M132.3,75h-0.9v-4.9h-1.7v-0.8h4.3v0.8h-1.7V75z"/>
		<path class="st0" d="M136.9,71.9l1.4-2.6h1l-1.9,3.5V75h-0.9v-2.2l-1.9-3.5h1L136.9,71.9z"/>
	</g>
	<g>
		<path class="st0" d="M23.4,83.2c-1.3,0-2.2,0.4-3,1.3s-1.1,2-1.1,3.4c0,1.5,0.4,2.6,1.1,3.5c0.7,0.8,1.7,1.2,3,1.2
			c0.8,0,1.7-0.1,2.7-0.4v1.2c-0.8,0.3-1.8,0.4-2.9,0.4c-1.7,0-3-0.5-3.9-1.5c-0.9-1-1.4-2.5-1.4-4.4c0-1.2,0.2-2.2,0.7-3.1
			c0.4-0.9,1.1-1.6,1.9-2c0.8-0.5,1.8-0.7,2.9-0.7c1.2,0,2.2,0.2,3.1,0.7L26,83.8C25.1,83.4,24.2,83.2,23.4,83.2z"/>
		<path class="st0" d="M35.8,89.3c0,1.4-0.4,2.5-1.1,3.3c-0.7,0.8-1.7,1.2-2.9,1.2c-0.8,0-1.4-0.2-2-0.5s-1.1-0.9-1.4-1.5
			s-0.5-1.5-0.5-2.4c0-1.4,0.3-2.5,1-3.3c0.7-0.8,1.7-1.2,2.9-1.2c1.2,0,2.1,0.4,2.9,1.2S35.8,87.9,35.8,89.3z M29.3,89.3
			c0,1.1,0.2,1.9,0.7,2.5c0.4,0.6,1.1,0.9,1.9,0.9c0.8,0,1.5-0.3,1.9-0.9s0.7-1.4,0.7-2.5c0-1.1-0.2-1.9-0.7-2.5
			c-0.4-0.6-1.1-0.8-1.9-0.8c-0.8,0-1.5,0.3-1.9,0.8C29.5,87.4,29.3,88.2,29.3,89.3z"/>
		<path class="st0" d="M39.3,93.6h-1.3V81.4h1.3V93.6z"/>
		<path class="st0" d="M43.4,93.6h-1.3V81.4h1.3V93.6z"/>
		<path class="st0" d="M49.8,93.7c-1.3,0-2.3-0.4-3-1.2c-0.7-0.8-1.1-1.8-1.1-3.2c0-1.4,0.3-2.5,1-3.3s1.6-1.2,2.7-1.2
			c1.1,0,1.9,0.4,2.5,1.1c0.6,0.7,0.9,1.6,0.9,2.8v0.8H47c0,1,0.3,1.8,0.8,2.3c0.5,0.5,1.2,0.8,2,0.8c0.9,0,1.8-0.2,2.7-0.6v1.2
			c-0.5,0.2-0.9,0.3-1.3,0.4S50.3,93.7,49.8,93.7z M49.4,85.9c-0.7,0-1.2,0.2-1.6,0.7c-0.4,0.4-0.6,1.1-0.7,1.9h4.5
			c0-0.8-0.2-1.4-0.5-1.9C50.6,86.2,50.1,85.9,49.4,85.9z"/>
		<path class="st0" d="M62.1,85v0.8L60.5,86c0.1,0.2,0.3,0.4,0.4,0.7c0.1,0.3,0.2,0.6,0.2,1c0,0.8-0.3,1.5-0.9,2s-1.4,0.8-2.4,0.8
			c-0.3,0-0.5,0-0.7-0.1c-0.6,0.3-0.8,0.7-0.8,1.1c0,0.2,0.1,0.4,0.3,0.5c0.2,0.1,0.5,0.2,1,0.2h1.5c0.9,0,1.6,0.2,2.1,0.6
			s0.7,1,0.7,1.7c0,0.9-0.4,1.7-1.1,2.2c-0.8,0.5-1.9,0.7-3.3,0.7c-1.1,0-2-0.2-2.6-0.6c-0.6-0.4-0.9-1-0.9-1.8c0-0.5,0.2-1,0.5-1.4
			s0.8-0.6,1.4-0.8c-0.2-0.1-0.4-0.3-0.6-0.5c-0.1-0.2-0.2-0.5-0.2-0.7c0-0.3,0.1-0.6,0.2-0.8s0.4-0.5,0.8-0.7
			c-0.4-0.2-0.8-0.5-1.1-0.9s-0.4-0.9-0.4-1.5c0-0.9,0.3-1.7,0.8-2.2s1.4-0.8,2.4-0.8c0.4,0,0.9,0.1,1.2,0.2H62.1z M55.3,95
			c0,0.5,0.2,0.8,0.6,1.1c0.4,0.2,1,0.4,1.7,0.4c1.1,0,1.9-0.2,2.4-0.5c0.5-0.3,0.8-0.8,0.8-1.3c0-0.5-0.1-0.8-0.4-1
			s-0.8-0.3-1.6-0.3h-1.6c-0.6,0-1,0.1-1.4,0.4S55.3,94.5,55.3,95z M56,87.8c0,0.6,0.2,1.1,0.5,1.4c0.3,0.3,0.8,0.5,1.4,0.5
			c1.3,0,1.9-0.6,1.9-1.8c0-1.3-0.6-1.9-1.9-1.9c-0.6,0-1.1,0.2-1.4,0.5S56,87.1,56,87.8z"/>
		<path class="st0" d="M67.5,93.7c-1.3,0-2.3-0.4-3-1.2c-0.7-0.8-1.1-1.8-1.1-3.2c0-1.4,0.3-2.5,1-3.3s1.6-1.2,2.7-1.2
			c1.1,0,1.9,0.4,2.5,1.1c0.6,0.7,0.9,1.6,0.9,2.8v0.8h-5.9c0,1,0.3,1.8,0.8,2.3c0.5,0.5,1.2,0.8,2,0.8c0.9,0,1.8-0.2,2.7-0.6v1.2
			c-0.5,0.2-0.9,0.3-1.3,0.4S68.1,93.7,67.5,93.7z M67.2,85.9c-0.7,0-1.2,0.2-1.6,0.7c-0.4,0.4-0.6,1.1-0.7,1.9h4.5
			c0-0.8-0.2-1.4-0.5-1.9C68.4,86.2,67.8,85.9,67.2,85.9z"/>
		<path class="st0" d="M84.4,89.3c0,1.4-0.4,2.5-1.1,3.3c-0.7,0.8-1.7,1.2-2.9,1.2c-0.8,0-1.4-0.2-2-0.5s-1.1-0.9-1.4-1.5
			s-0.5-1.5-0.5-2.4c0-1.4,0.3-2.5,1-3.3c0.7-0.8,1.7-1.2,2.9-1.2c1.2,0,2.1,0.4,2.9,1.2S84.4,87.9,84.4,89.3z M77.9,89.3
			c0,1.1,0.2,1.9,0.7,2.5c0.4,0.6,1.1,0.9,1.9,0.9s1.5-0.3,1.9-0.9s0.7-1.4,0.7-2.5c0-1.1-0.2-1.9-0.7-2.5C82,86.2,81.3,86,80.5,86
			c-0.8,0-1.5,0.3-1.9,0.8C78.1,87.4,77.9,88.2,77.9,89.3z"/>
		<path class="st0" d="M90.5,86h-2.2v7.6h-1.3V86h-1.5v-0.6l1.5-0.5v-0.5c0-2.1,0.9-3.2,2.8-3.2c0.5,0,1,0.1,1.6,0.3l-0.3,1
			c-0.5-0.2-0.9-0.2-1.3-0.2c-0.5,0-0.9,0.2-1.1,0.5c-0.2,0.3-0.4,0.8-0.4,1.6V85h2.2V86z"/>
		<path class="st0" d="M101.5,93.6l-3.9-10.1h-0.1c0.1,0.8,0.1,1.8,0.1,2.9v7.3h-1.2V82.2h2l3.6,9.4h0.1l3.6-9.4h2v11.4h-1.3v-7.4
			c0-0.8,0-1.8,0.1-2.8h-0.1l-3.9,10.1H101.5z"/>
		<path class="st0" d="M114.3,93.7c-1.3,0-2.3-0.4-3-1.2c-0.7-0.8-1.1-1.8-1.1-3.2c0-1.4,0.3-2.5,1-3.3s1.6-1.2,2.7-1.2
			c1.1,0,1.9,0.4,2.5,1.1c0.6,0.7,0.9,1.6,0.9,2.8v0.8h-5.9c0,1,0.3,1.8,0.8,2.3c0.5,0.5,1.2,0.8,2,0.8c0.9,0,1.8-0.2,2.7-0.6v1.2
			c-0.5,0.2-0.9,0.3-1.3,0.4S114.9,93.7,114.3,93.7z M114,85.9c-0.7,0-1.2,0.2-1.6,0.7c-0.4,0.4-0.6,1.1-0.7,1.9h4.5
			c0-0.8-0.2-1.4-0.5-1.9C115.2,86.2,114.6,85.9,114,85.9z"/>
		<path class="st0" d="M125.5,92.4L125.5,92.4c-0.7,0.9-1.6,1.3-2.8,1.3c-1.1,0-2-0.4-2.6-1.1s-0.9-1.9-0.9-3.3
			c0-1.4,0.3-2.5,0.9-3.3s1.5-1.2,2.6-1.2c1.2,0,2.1,0.4,2.7,1.3h0.1l-0.1-0.6l0-0.6v-3.5h1.3v12.2h-1.1L125.5,92.4z M122.9,92.6
			c0.9,0,1.5-0.2,1.9-0.7c0.4-0.5,0.6-1.3,0.6-2.3v-0.3c0-1.2-0.2-2.1-0.6-2.6c-0.4-0.5-1-0.8-1.9-0.8c-0.8,0-1.3,0.3-1.7,0.9
			c-0.4,0.6-0.6,1.4-0.6,2.5c0,1.1,0.2,1.9,0.6,2.5C121.6,92.4,122.1,92.6,122.9,92.6z"/>
		<path class="st0" d="M129.4,82.7c0-0.3,0.1-0.5,0.2-0.7c0.1-0.1,0.3-0.2,0.5-0.2c0.2,0,0.4,0.1,0.5,0.2s0.2,0.4,0.2,0.6
			c0,0.3-0.1,0.5-0.2,0.7c-0.2,0.1-0.3,0.2-0.5,0.2c-0.2,0-0.4-0.1-0.5-0.2C129.5,83.2,129.4,83,129.4,82.7z M130.8,93.6h-1.3V85
			h1.3V93.6z"/>
		<path class="st0" d="M137,93.7c-1.2,0-2.2-0.4-2.9-1.1c-0.7-0.8-1-1.8-1-3.2c0-1.4,0.3-2.5,1-3.3s1.7-1.2,2.9-1.2
			c0.4,0,0.8,0,1.2,0.1c0.4,0.1,0.7,0.2,1,0.3l-0.4,1.1c-0.3-0.1-0.6-0.2-0.9-0.3c-0.3-0.1-0.6-0.1-0.9-0.1c-1.7,0-2.6,1.1-2.6,3.3
			c0,1.1,0.2,1.9,0.6,2.4s1.1,0.8,1.9,0.8c0.7,0,1.4-0.2,2.2-0.5v1.1C138.5,93.6,137.8,93.7,137,93.7z"/>
		<path class="st0" d="M141,82.7c0-0.3,0.1-0.5,0.2-0.7c0.1-0.1,0.3-0.2,0.5-0.2c0.2,0,0.4,0.1,0.5,0.2s0.2,0.4,0.2,0.6
			c0,0.3-0.1,0.5-0.2,0.7c-0.2,0.1-0.3,0.2-0.5,0.2c-0.2,0-0.4-0.1-0.5-0.2C141.1,83.2,141,83,141,82.7z M142.4,93.6h-1.3V85h1.3
			V93.6z"/>
		<path class="st0" d="M151.1,93.6V88c0-0.7-0.2-1.2-0.5-1.6s-0.8-0.5-1.5-0.5c-0.9,0-1.6,0.2-2,0.7s-0.6,1.3-0.6,2.4v4.5h-1.3V85
			h1.1l0.2,1.2h0.1c0.3-0.4,0.6-0.7,1.1-1c0.5-0.2,1-0.3,1.6-0.3c1,0,1.8,0.2,2.3,0.7c0.5,0.5,0.8,1.3,0.8,2.4v5.6H151.1z"/>
		<path class="st0" d="M158.6,93.7c-1.3,0-2.3-0.4-3-1.2c-0.7-0.8-1.1-1.8-1.1-3.2c0-1.4,0.3-2.5,1-3.3s1.6-1.2,2.7-1.2
			c1.1,0,1.9,0.4,2.5,1.1c0.6,0.7,0.9,1.6,0.9,2.8v0.8h-5.9c0,1,0.3,1.8,0.8,2.3c0.5,0.5,1.2,0.8,2,0.8c0.9,0,1.8-0.2,2.7-0.6v1.2
			c-0.5,0.2-0.9,0.3-1.3,0.4S159.2,93.7,158.6,93.7z M158.3,85.9c-0.7,0-1.2,0.2-1.6,0.7c-0.4,0.4-0.6,1.1-0.7,1.9h4.5
			c0-0.8-0.2-1.4-0.5-1.9C159.5,86.2,159,85.9,158.3,85.9z"/>
	</g>
	<g>
		<rect x="71.1" y="18" width="37.3" height="37.6"/>
		<g>
			<polygon class="st0" points="103.5,33 100.7,33 100.5,33 100.5,33.1 98.5,37.3 96.4,33.1 96.4,33 96.2,33 93.5,33 93.3,33 
				93.3,33.3 93.3,34.7 93.3,34.9 93.5,34.9 94,34.9 94,40.9 93.5,40.9 93.2,40.9 93.2,41.2 93.2,42.6 93.2,42.9 93.5,42.9 
				96.5,42.9 96.8,42.9 96.8,42.6 96.8,41.2 96.8,40.9 96.5,40.9 96,40.9 96,36.7 98.2,41.3 98.5,41.8 98.7,41.3 101,36.7 101,40.9 
				100.5,40.9 100.2,40.9 100.2,41.2 100.2,42.6 100.2,42.9 100.5,42.9 103.5,42.9 103.7,42.9 103.7,42.6 103.7,41.2 103.7,40.9 
				103.5,40.9 102.9,40.9 102.9,34.9 103.5,34.9 103.7,34.9 103.7,34.7 103.7,33.3 103.7,33 			"/>
			<path class="st0" d="M86,40.9h-0.8l-2.6-6h0.2h0.3v-0.3v-1.4V33h-0.3h-3.7h-0.3v0.3v1.4v0.3h0.3h0.3l-2.6,6h-0.8h-0.3v0.3v1.4
				v0.3h0.3h3.3h0.3v-0.3v-1.4v-0.3h-0.3h-0.3l0.4-1h3.1l0.4,1h-0.3h-0.3v0.3v1.4v0.3h0.3H86h0.3v-0.3v-1.4v-0.3H86z M81.8,38h-1.5
				l0.7-1.7L81.8,38z"/>
			<polygon class="st0" points="100.3,25.5 79.2,25.5 78.9,25.5 78.9,25.8 78.9,31.4 78.9,31.7 79.2,31.7 82.8,31.7 83.1,31.7 
				83.1,31.4 83.1,29.3 87.6,29.3 87.6,44.2 85.5,44.2 85.2,44.2 85.2,44.5 85.2,48.1 85.2,48.4 85.5,48.4 93.9,48.4 94.2,48.4 
				94.2,48.1 94.2,44.5 94.2,44.2 93.9,44.2 91.8,44.2 91.8,29.3 96.3,29.3 96.3,31.4 96.3,31.7 96.6,31.7 100.3,31.7 100.6,31.7 
				100.6,31.4 100.6,25.8 100.6,25.5 			"/>
			<g>
				<polygon class="st1" points="92.5,45.9 93.4,45 93.4,47.5 92.5,46.6 				"/>
				<polygon class="st1" points="91,45 90.1,45.9 90.1,27.6 91,28.5 				"/>
				<polygon class="st1" points="80.7,27.2 79.8,26.4 99.3,26.4 98.1,27.2 				"/>
				<polygon class="st1" points="99.7,30.9 98.8,30 98.8,27.7 99.7,26.8 				"/>
			</g>
		</g>
	</g>
	<path d="M110,54.9c0-0.4,0.3-0.7,0.7-0.7c0.4,0,0.7,0.3,0.7,0.7c0,0.4-0.3,0.7-0.7,0.7C110.3,55.6,110,55.3,110,54.9z M111.3,54.9
		c0-0.3-0.3-0.6-0.6-0.6c-0.3,0-0.6,0.3-0.6,0.6c0,0.3,0.3,0.6,0.6,0.6C111,55.5,111.3,55.2,111.3,54.9z M110.4,54.5h0.3
		c0.2,0,0.3,0.1,0.3,0.2c0,0.1-0.1,0.2-0.2,0.2l0.2,0.4h-0.2l-0.2-0.4h-0.1v0.4h-0.2V54.5z M110.6,54.8h0.1c0.1,0,0.2,0,0.2-0.1
		c0-0.1-0.1-0.1-0.2-0.1h-0.1V54.8z"/>
</g>
</svg>
