<?xml version="1.0" encoding="utf-8"?>
<!-- Generator: Adobe Illustrator 22.0.1, SVG Export Plug-In . SVG Version: 6.00 Build 0)  -->
<svg version="1.1" id="Layer_1" xmlns="http://www.w3.org/2000/svg" xmlns:xlink="http://www.w3.org/1999/xlink" x="0px" y="0px"
	 viewBox="0 0 227.7 73.4" style="enable-background:new 0 0 227.7 73.4;" xml:space="preserve">
<style type="text/css">
	.st0{fill:#FFFFFF;}
	.st1{fill:#A6A6A6;}
</style>
<g>
	<g>
		<rect x="18" y="18.5" width="37" height="37.3"/>
		<g>
			<polygon class="st0" points="50,33.3 47.3,33.3 47.1,33.3 47.1,33.5 45.1,37.6 43.1,33.5 43,33.3 42.8,33.3 40.2,33.3 39.9,33.3 
				39.9,33.6 39.9,35 39.9,35.2 40.2,35.2 40.6,35.2 40.6,41.2 40.1,41.2 39.9,41.2 39.9,41.4 39.9,42.8 39.9,43.1 40.1,43.1 
				43.1,43.1 43.4,43.1 43.4,42.8 43.4,41.4 43.4,41.2 43.1,41.2 42.6,41.2 42.6,37 44.8,41.5 45.1,42 45.3,41.5 47.5,36.9 
				47.5,41.2 47,41.2 46.8,41.2 46.8,41.4 46.8,42.8 46.8,43.1 47,43.1 50,43.1 50.3,43.1 50.3,42.8 50.3,41.4 50.3,41.2 50,41.2 
				49.5,41.2 49.5,35.2 50,35.2 50.3,35.2 50.3,35 50.3,33.6 50.3,33.3 			"/>
			<path class="st0" d="M32.7,41.2h-0.8l-2.6-6h0.2h0.3v-0.3v-1.4v-0.3h-0.3H26h-0.3v0.3v1.4v0.3H26h0.3l-2.6,6h-0.8h-0.3v0.3v1.4
				v0.3h0.3h3.3h0.3v-0.3v-1.4v-0.3h-0.3h-0.3l0.4-1h3.1l0.4,1h-0.3h-0.3v0.3v1.4v0.3h0.3h3.3H33v-0.3v-1.4v-0.3H32.7z M28.5,38.3
				h-1.4l0.7-1.7L28.5,38.3z"/>
			<polygon class="st0" points="46.9,25.9 26,25.9 25.7,25.9 25.7,26.2 25.7,31.7 25.7,32 26,32 29.6,32 29.9,32 29.9,31.7 
				29.9,29.7 34.3,29.7 34.3,44.4 32.2,44.4 32,44.4 32,44.7 32,48.3 32,48.6 32.2,48.6 40.6,48.6 40.9,48.6 40.9,48.3 40.9,44.7 
				40.9,44.4 40.6,44.4 38.5,44.4 38.5,29.7 42.9,29.7 42.9,31.7 42.9,32 43.2,32 46.9,32 47.2,32 47.2,31.7 47.2,26.2 47.2,25.9 
							"/>
			<g>
				<polygon class="st1" points="39.1,46.1 40,45.2 40,47.7 39.1,46.8 				"/>
				<polygon class="st1" points="37.7,45.3 36.8,46.1 36.8,27.9 37.7,28.8 				"/>
				<polygon class="st1" points="27.4,27.6 26.5,26.7 45.9,26.7 44.7,27.6 				"/>
				<polygon class="st1" points="46.3,31.2 45.4,30.3 45.4,28.1 46.3,27.2 				"/>
			</g>
		</g>
		<path d="M56.2,55c0-0.4,0.3-0.7,0.7-0.7c0.4,0,0.7,0.3,0.7,0.7c0,0.4-0.3,0.7-0.7,0.7C56.6,55.7,56.2,55.4,56.2,55z M57.6,55
			c0-0.3-0.3-0.6-0.6-0.6c-0.3,0-0.6,0.3-0.6,0.6c0,0.3,0.3,0.6,0.6,0.6C57.3,55.6,57.6,55.4,57.6,55z M56.7,54.6H57
			c0.2,0,0.3,0.1,0.3,0.2c0,0.1-0.1,0.2-0.2,0.2l0.2,0.4h-0.2L57,55.1h-0.1v0.4h-0.2V54.6z M56.9,54.9H57c0.1,0,0.2,0,0.2-0.1
			c0-0.1-0.1-0.1-0.2-0.1h-0.1V54.9z"/>
	</g>
	<g>
		<path d="M67.6,29.1h-0.9v-4.9H65v-0.8h4.3v0.8h-1.7V29.1z"/>
		<path d="M73.8,29.1h-3.2v-5.7h3.2v0.8h-2.3v1.6h2.2v0.8h-2.2v1.8h2.3V29.1z"/>
		<path d="M79.6,29.1h-1.1l-1.4-2.3l-1.4,2.3h-1l1.9-3l-1.8-2.8h1l1.3,2.2l1.3-2.2h1l-1.8,2.8L79.6,29.1z"/>
		<path d="M84.3,29.1l-0.6-1.6h-2.2L81,29.1h-1l2.1-5.7h1l2.1,5.7H84.3z M83.5,26.7L83,25.1c0-0.1-0.1-0.3-0.2-0.5
			c-0.1-0.2-0.1-0.4-0.1-0.5c-0.1,0.3-0.2,0.7-0.3,1.1l-0.5,1.5H83.5z"/>
		<path d="M89.8,27.5c0,0.5-0.2,0.9-0.6,1.2s-0.9,0.4-1.5,0.4c-0.6,0-1.2-0.1-1.6-0.3V28c0.3,0.1,0.5,0.2,0.8,0.3s0.6,0.1,0.8,0.1
			c0.4,0,0.6-0.1,0.8-0.2s0.3-0.3,0.3-0.6c0-0.2-0.1-0.4-0.2-0.5c-0.2-0.1-0.5-0.3-1-0.5c-0.5-0.2-0.9-0.5-1.1-0.7
			c-0.2-0.3-0.3-0.6-0.3-1c0-0.5,0.2-0.9,0.5-1.1c0.3-0.3,0.8-0.4,1.4-0.4c0.5,0,1.1,0.1,1.6,0.4l-0.3,0.8c-0.5-0.2-1-0.3-1.4-0.3
			c-0.3,0-0.5,0.1-0.7,0.2s-0.2,0.3-0.2,0.5c0,0.1,0,0.3,0.1,0.4s0.2,0.2,0.3,0.3c0.1,0.1,0.4,0.2,0.8,0.4c0.4,0.2,0.7,0.3,0.9,0.5
			s0.3,0.3,0.4,0.5C89.7,27.1,89.8,27.3,89.8,27.5z"/>
		<path d="M97.3,29.1l-0.6-1.6h-2.2L94,29.1h-1l2.1-5.7h1l2.1,5.7H97.3z M96.5,26.7L96,25.1c0-0.1-0.1-0.3-0.2-0.5
			c-0.1-0.2-0.1-0.4-0.1-0.5c-0.1,0.3-0.2,0.7-0.3,1.1l-0.5,1.5H96.5z"/>
		<path d="M99.1,27.6c0-0.3,0.1-0.6,0.2-0.9c0.2-0.3,0.5-0.5,0.9-0.8c-0.2-0.3-0.4-0.5-0.5-0.7s-0.1-0.4-0.1-0.6
			c0-0.4,0.1-0.7,0.4-0.9c0.3-0.2,0.7-0.3,1.1-0.3c0.5,0,0.8,0.1,1.1,0.3c0.3,0.2,0.4,0.5,0.4,0.9c0,0.3-0.1,0.6-0.3,0.8
			s-0.5,0.5-0.9,0.7l1.4,1.3c0.2-0.3,0.4-0.7,0.5-1.2h0.9c-0.2,0.7-0.5,1.3-0.9,1.8l1.2,1.1h-1.2l-0.6-0.6c-0.3,0.2-0.5,0.4-0.8,0.5
			s-0.6,0.2-1,0.2c-0.6,0-1.1-0.1-1.4-0.4C99.2,28.5,99.1,28.1,99.1,27.6z M101,28.4c0.5,0,0.9-0.1,1.2-0.4l-1.5-1.5
			c-0.3,0.2-0.5,0.3-0.6,0.5c-0.1,0.2-0.2,0.3-0.2,0.5c0,0.3,0.1,0.5,0.3,0.6C100.5,28.3,100.7,28.4,101,28.4z M100.5,24.6
			c0,0.2,0,0.3,0.1,0.5c0.1,0.1,0.2,0.3,0.4,0.5c0.3-0.2,0.5-0.3,0.6-0.5c0.1-0.1,0.2-0.3,0.2-0.5c0-0.2-0.1-0.3-0.2-0.4
			s-0.3-0.2-0.5-0.2c-0.2,0-0.4,0.1-0.5,0.2S100.5,24.4,100.5,24.6z"/>
		<path d="M108.2,29.1l-1.7-4.8h0c0,0.7,0.1,1.4,0.1,2v2.8h-0.8v-5.7h1.3l1.6,4.5h0l1.6-4.5h1.3v5.7h-0.9v-2.8c0-0.3,0-0.7,0-1.1
			c0-0.5,0-0.7,0-0.8h0l-1.7,4.8H108.2z"/>
		<path d="M120.5,23.4v3.7c0,0.4-0.1,0.8-0.3,1.1c-0.2,0.3-0.4,0.6-0.8,0.7c-0.3,0.2-0.8,0.3-1.2,0.3c-0.7,0-1.3-0.2-1.7-0.6
			c-0.4-0.4-0.6-0.9-0.6-1.5v-3.7h0.9V27c0,0.5,0.1,0.8,0.3,1s0.6,0.3,1,0.3c0.9,0,1.3-0.5,1.3-1.4v-3.6H120.5z"/>
		<path d="M127.1,29.1H126l-2.8-4.6h0l0,0.3c0,0.5,0.1,0.9,0.1,1.3v3h-0.8v-5.7h1.1l2.8,4.5h0c0-0.1,0-0.3,0-0.7s0-0.7,0-0.9v-3h0.9
			V29.1z"/>
		<path d="M129,29.1v-5.7h0.9v5.7H129z"/>
		<path d="M135.1,23.4h1l-2,5.7h-1l-2-5.7h1l1.2,3.6c0.1,0.2,0.1,0.4,0.2,0.7s0.1,0.5,0.1,0.6c0-0.2,0.1-0.4,0.2-0.7
			s0.1-0.5,0.2-0.6L135.1,23.4z"/>
		<path d="M140.5,29.1h-3.2v-5.7h3.2v0.8h-2.3v1.6h2.2v0.8h-2.2v1.8h2.3V29.1z"/>
		<path d="M143.1,26.8v2.3h-0.9v-5.7h1.6c0.7,0,1.3,0.1,1.6,0.4c0.4,0.3,0.5,0.7,0.5,1.2c0,0.7-0.4,1.2-1.1,1.5l1.6,2.5h-1.1
			l-1.4-2.3H143.1z M143.1,26h0.6c0.4,0,0.8-0.1,0.9-0.2s0.3-0.4,0.3-0.7c0-0.3-0.1-0.6-0.3-0.7s-0.5-0.2-1-0.2h-0.6V26z"/>
		<path d="M150.9,27.5c0,0.5-0.2,0.9-0.6,1.2s-0.9,0.4-1.5,0.4c-0.6,0-1.2-0.1-1.6-0.3V28c0.3,0.1,0.5,0.2,0.8,0.3s0.6,0.1,0.8,0.1
			c0.4,0,0.6-0.1,0.8-0.2s0.3-0.3,0.3-0.6c0-0.2-0.1-0.4-0.2-0.5c-0.2-0.1-0.5-0.3-1-0.5c-0.5-0.2-0.9-0.5-1.1-0.7
			c-0.2-0.3-0.3-0.6-0.3-1c0-0.5,0.2-0.9,0.5-1.1c0.3-0.3,0.8-0.4,1.4-0.4c0.5,0,1.1,0.1,1.6,0.4l-0.3,0.8c-0.5-0.2-1-0.3-1.4-0.3
			c-0.3,0-0.5,0.1-0.7,0.2s-0.2,0.3-0.2,0.5c0,0.1,0,0.3,0.1,0.4s0.2,0.2,0.3,0.3c0.1,0.1,0.4,0.2,0.8,0.4c0.4,0.2,0.7,0.3,0.9,0.5
			s0.3,0.3,0.4,0.5C150.9,27.1,150.9,27.3,150.9,27.5z"/>
		<path d="M152.4,29.1v-5.7h0.9v5.7H152.4z"/>
		<path d="M157.2,29.1h-0.9v-4.9h-1.7v-0.8h4.3v0.8h-1.7V29.1z"/>
		<path d="M161.8,26l1.4-2.6h1l-1.9,3.5v2.2h-0.9v-2.2l-1.9-3.5h1L161.8,26z"/>
	</g>
	<g>
		<path d="M71.3,37.3c-1.3,0-2.2,0.4-3,1.3s-1.1,2-1.1,3.4c0,1.5,0.3,2.6,1.1,3.5c0.7,0.8,1.7,1.2,3,1.2c0.8,0,1.7-0.1,2.7-0.4v1.2
			c-0.8,0.3-1.8,0.4-2.9,0.4c-1.7,0-3-0.5-3.9-1.5c-0.9-1-1.4-2.5-1.4-4.4c0-1.2,0.2-2.2,0.7-3.1c0.4-0.9,1.1-1.6,1.9-2
			c0.8-0.5,1.8-0.7,2.9-0.7c1.2,0,2.2,0.2,3.1,0.7l-0.6,1.1C73.1,37.5,72.2,37.3,71.3,37.3z"/>
		<path d="M83.7,43.4c0,1.4-0.4,2.5-1.1,3.3c-0.7,0.8-1.7,1.2-2.9,1.2c-0.8,0-1.4-0.2-2-0.5s-1.1-0.9-1.4-1.5
			c-0.3-0.7-0.5-1.5-0.5-2.4c0-1.4,0.3-2.5,1-3.3c0.7-0.8,1.7-1.2,2.9-1.2c1.2,0,2.1,0.4,2.9,1.2C83.4,40.9,83.7,42,83.7,43.4z
			 M77.2,43.4c0,1.1,0.2,1.9,0.7,2.5c0.4,0.6,1.1,0.9,1.9,0.9c0.8,0,1.5-0.3,1.9-0.9c0.4-0.6,0.7-1.4,0.7-2.5c0-1.1-0.2-1.9-0.7-2.5
			c-0.4-0.6-1.1-0.8-1.9-0.8c-0.8,0-1.5,0.3-1.9,0.8C77.4,41.4,77.2,42.3,77.2,43.4z"/>
		<path d="M87.3,47.7H86V35.5h1.3V47.7z"/>
		<path d="M91.4,47.7h-1.3V35.5h1.3V47.7z"/>
		<path d="M97.7,47.8c-1.3,0-2.3-0.4-3-1.2c-0.7-0.8-1.1-1.8-1.1-3.2c0-1.4,0.3-2.5,1-3.3s1.6-1.2,2.7-1.2c1.1,0,1.9,0.4,2.5,1.1
			c0.6,0.7,0.9,1.6,0.9,2.8v0.8H95c0,1,0.3,1.8,0.8,2.3c0.5,0.5,1.2,0.8,2,0.8c0.9,0,1.8-0.2,2.7-0.6v1.2c-0.5,0.2-0.9,0.3-1.3,0.4
			C98.8,47.8,98.3,47.8,97.7,47.8z M97.4,40c-0.7,0-1.2,0.2-1.6,0.7c-0.4,0.4-0.7,1.1-0.7,1.9h4.5c0-0.8-0.2-1.4-0.5-1.9
			C98.6,40.2,98,40,97.4,40z"/>
		<path d="M110.1,39.1v0.8l-1.6,0.2c0.1,0.2,0.3,0.4,0.4,0.7c0.1,0.3,0.2,0.6,0.2,1c0,0.8-0.3,1.5-0.9,2c-0.6,0.5-1.4,0.8-2.4,0.8
			c-0.3,0-0.5,0-0.7-0.1c-0.6,0.3-0.8,0.7-0.8,1.1c0,0.2,0.1,0.4,0.3,0.5c0.2,0.1,0.5,0.2,1,0.2h1.5c0.9,0,1.6,0.2,2.1,0.6
			c0.5,0.4,0.7,1,0.7,1.7c0,0.9-0.4,1.7-1.1,2.2c-0.8,0.5-1.9,0.7-3.3,0.7c-1.1,0-2-0.2-2.6-0.6c-0.6-0.4-0.9-1-0.9-1.8
			c0-0.5,0.2-1,0.5-1.4c0.3-0.4,0.8-0.6,1.4-0.8c-0.2-0.1-0.4-0.3-0.6-0.5c-0.1-0.2-0.2-0.5-0.2-0.7c0-0.3,0.1-0.6,0.2-0.8
			c0.2-0.2,0.4-0.5,0.8-0.7c-0.4-0.2-0.8-0.5-1.1-0.9c-0.3-0.4-0.4-0.9-0.4-1.5c0-0.9,0.3-1.7,0.8-2.2s1.4-0.8,2.4-0.8
			c0.4,0,0.9,0.1,1.2,0.2H110.1z M103.3,49.1c0,0.5,0.2,0.8,0.6,1.1c0.4,0.2,1,0.4,1.7,0.4c1.1,0,1.9-0.2,2.4-0.5
			c0.5-0.3,0.8-0.8,0.8-1.3c0-0.5-0.1-0.8-0.4-1c-0.3-0.2-0.8-0.3-1.6-0.3h-1.6c-0.6,0-1,0.1-1.4,0.4S103.3,48.6,103.3,49.1z
			 M104,41.8c0,0.6,0.2,1.1,0.5,1.4c0.3,0.3,0.8,0.5,1.4,0.5c1.3,0,1.9-0.6,1.9-1.8c0-1.3-0.6-1.9-1.9-1.9c-0.6,0-1.1,0.2-1.4,0.5
			S104,41.2,104,41.8z"/>
		<path d="M115.5,47.8c-1.3,0-2.3-0.4-3-1.2c-0.7-0.8-1.1-1.8-1.1-3.2c0-1.4,0.3-2.5,1-3.3s1.6-1.2,2.7-1.2c1.1,0,1.9,0.4,2.5,1.1
			c0.6,0.7,0.9,1.6,0.9,2.8v0.8h-5.9c0,1,0.3,1.8,0.8,2.3c0.5,0.5,1.2,0.8,2,0.8c0.9,0,1.8-0.2,2.7-0.6v1.2
			c-0.5,0.2-0.9,0.3-1.3,0.4C116.5,47.8,116,47.8,115.5,47.8z M115.1,40c-0.7,0-1.2,0.2-1.6,0.7c-0.4,0.4-0.7,1.1-0.7,1.9h4.5
			c0-0.8-0.2-1.4-0.5-1.9C116.3,40.2,115.8,40,115.1,40z"/>
		<path d="M132.4,43.4c0,1.4-0.4,2.5-1.1,3.3c-0.7,0.8-1.7,1.2-2.9,1.2c-0.8,0-1.4-0.2-2-0.5s-1.1-0.9-1.4-1.5
			c-0.3-0.7-0.5-1.5-0.5-2.4c0-1.4,0.3-2.5,1-3.3c0.7-0.8,1.7-1.2,2.9-1.2c1.2,0,2.1,0.4,2.9,1.2C132,40.9,132.4,42,132.4,43.4z
			 M125.8,43.4c0,1.1,0.2,1.9,0.7,2.5c0.4,0.6,1.1,0.9,1.9,0.9c0.8,0,1.5-0.3,1.9-0.9c0.4-0.6,0.7-1.4,0.7-2.5
			c0-1.1-0.2-1.9-0.7-2.5c-0.4-0.6-1.1-0.8-1.9-0.8c-0.8,0-1.5,0.3-1.9,0.8C126.1,41.4,125.8,42.3,125.8,43.4z"/>
		<path d="M138.5,40.1h-2.2v7.6H135v-7.6h-1.5v-0.6l1.5-0.5v-0.5c0-2.1,0.9-3.2,2.8-3.2c0.5,0,1,0.1,1.6,0.3l-0.3,1
			c-0.5-0.2-0.9-0.2-1.3-0.2c-0.5,0-0.9,0.2-1.1,0.5c-0.2,0.3-0.4,0.8-0.4,1.6v0.6h2.2V40.1z"/>
		<path d="M149.5,47.7l-3.9-10.1h-0.1c0.1,0.8,0.1,1.8,0.1,2.9v7.3h-1.2V36.2h2l3.6,9.4h0.1l3.6-9.4h2v11.4h-1.3v-7.4
			c0-0.8,0-1.8,0.1-2.8h-0.1l-3.9,10.1H149.5z"/>
		<path d="M162.3,47.8c-1.3,0-2.3-0.4-3-1.2c-0.7-0.8-1.1-1.8-1.1-3.2c0-1.4,0.3-2.5,1-3.3s1.6-1.2,2.7-1.2c1.1,0,1.9,0.4,2.5,1.1
			c0.6,0.7,0.9,1.6,0.9,2.8v0.8h-5.9c0,1,0.3,1.8,0.8,2.3c0.5,0.5,1.2,0.8,2,0.8c0.9,0,1.8-0.2,2.7-0.6v1.2
			c-0.5,0.2-0.9,0.3-1.3,0.4C163.4,47.8,162.9,47.8,162.3,47.8z M161.9,40c-0.7,0-1.2,0.2-1.6,0.7c-0.4,0.4-0.7,1.1-0.7,1.9h4.5
			c0-0.8-0.2-1.4-0.5-1.9C163.1,40.2,162.6,40,161.9,40z"/>
		<path d="M173.5,46.5L173.5,46.5c-0.7,0.9-1.6,1.3-2.8,1.3c-1.1,0-2-0.4-2.6-1.1c-0.6-0.8-0.9-1.9-0.9-3.3c0-1.4,0.3-2.5,0.9-3.3
			s1.5-1.2,2.6-1.2c1.2,0,2.1,0.4,2.7,1.3h0.1l-0.1-0.6l0-0.6v-3.5h1.3v12.2h-1.1L173.5,46.5z M170.9,46.7c0.9,0,1.5-0.2,1.9-0.7
			c0.4-0.5,0.6-1.3,0.6-2.3v-0.3c0-1.2-0.2-2.1-0.6-2.6c-0.4-0.5-1-0.8-1.9-0.8c-0.8,0-1.3,0.3-1.7,0.9c-0.4,0.6-0.6,1.4-0.6,2.5
			c0,1.1,0.2,1.9,0.6,2.5C169.5,46.5,170.1,46.7,170.9,46.7z"/>
		<path d="M177.3,36.8c0-0.3,0.1-0.5,0.2-0.7c0.1-0.1,0.3-0.2,0.5-0.2c0.2,0,0.4,0.1,0.5,0.2c0.2,0.1,0.2,0.4,0.2,0.6
			c0,0.3-0.1,0.5-0.2,0.7c-0.2,0.1-0.3,0.2-0.5,0.2c-0.2,0-0.4-0.1-0.5-0.2C177.4,37.3,177.3,37.1,177.3,36.8z M178.7,47.7h-1.3
			v-8.6h1.3V47.7z"/>
		<path d="M184.9,47.8c-1.2,0-2.2-0.4-2.9-1.1c-0.7-0.8-1-1.8-1-3.2c0-1.4,0.3-2.5,1-3.3c0.7-0.8,1.7-1.2,2.9-1.2
			c0.4,0,0.8,0,1.2,0.1c0.4,0.1,0.7,0.2,1,0.3l-0.4,1.1c-0.3-0.1-0.6-0.2-0.9-0.3c-0.3-0.1-0.6-0.1-0.9-0.1c-1.7,0-2.6,1.1-2.6,3.3
			c0,1.1,0.2,1.9,0.6,2.4c0.4,0.6,1.1,0.8,1.9,0.8c0.7,0,1.4-0.2,2.2-0.5v1.1C186.5,47.7,185.8,47.8,184.9,47.8z"/>
		<path d="M189,36.8c0-0.3,0.1-0.5,0.2-0.7c0.1-0.1,0.3-0.2,0.5-0.2c0.2,0,0.4,0.1,0.5,0.2c0.2,0.1,0.2,0.4,0.2,0.6
			c0,0.3-0.1,0.5-0.2,0.7c-0.2,0.1-0.3,0.2-0.5,0.2c-0.2,0-0.4-0.1-0.5-0.2C189.1,37.3,189,37.1,189,36.8z M190.4,47.7h-1.3v-8.6
			h1.3V47.7z"/>
		<path d="M199,47.7v-5.5c0-0.7-0.2-1.2-0.5-1.6c-0.3-0.3-0.8-0.5-1.5-0.5c-0.9,0-1.6,0.2-2,0.7c-0.4,0.5-0.6,1.3-0.6,2.4v4.5h-1.3
			v-8.6h1.1l0.2,1.2h0.1c0.3-0.4,0.6-0.7,1.1-1c0.5-0.2,1-0.3,1.6-0.3c1,0,1.8,0.2,2.3,0.7c0.5,0.5,0.8,1.3,0.8,2.4v5.6H199z"/>
		<path d="M206.6,47.8c-1.3,0-2.3-0.4-3-1.2c-0.7-0.8-1.1-1.8-1.1-3.2c0-1.4,0.3-2.5,1-3.3s1.6-1.2,2.7-1.2c1.1,0,1.9,0.4,2.5,1.1
			c0.6,0.7,0.9,1.6,0.9,2.8v0.8h-5.9c0,1,0.3,1.8,0.8,2.3c0.5,0.5,1.2,0.8,2,0.8c0.9,0,1.8-0.2,2.7-0.6v1.2
			c-0.5,0.2-0.9,0.3-1.3,0.4C207.7,47.8,207.2,47.8,206.6,47.8z M206.2,40c-0.7,0-1.2,0.2-1.6,0.7c-0.4,0.4-0.7,1.1-0.7,1.9h4.5
			c0-0.8-0.2-1.4-0.5-1.9C207.4,40.2,206.9,40,206.2,40z"/>
	</g>
</g>
</svg>
