<?xml version="1.0" encoding="utf-8"?>
<!-- Generator: Adobe Illustrator 22.0.1, SVG Export Plug-In . SVG Version: 6.00 Build 0)  -->
<svg version="1.1" id="Layer_1" xmlns="http://www.w3.org/2000/svg" xmlns:xlink="http://www.w3.org/1999/xlink" x="0px" y="0px"
	 viewBox="0 0 236.9 73" style="enable-background:new 0 0 236.9 73;" xml:space="preserve">
<style type="text/css">
	.st0{fill:#FFFFFF;}
	.st1{fill:#A6A6A6;}
</style>
<g>
	<g>
		<rect x="63.6" y="17.9" class="st0" width="1.3" height="37.1"/>
	</g>
	<g>
		<g>
			<path class="st0" d="M44.7,50.5h0.2c0.1,0,0.3,0,0.3-0.2c0-0.2-0.1-0.2-0.3-0.2h-0.2V50.5z M44.5,50h0.5c0.3,0,0.5,0.1,0.5,0.4
				c0,0.2-0.1,0.3-0.3,0.4l0.3,0.6h-0.2l-0.3-0.6h-0.1v0.6h-0.2V50z M45.8,50.6c0-0.5-0.4-0.9-0.9-0.9c-0.5,0-0.9,0.4-0.9,0.9
				c0,0.5,0.4,0.9,0.9,0.9C45.4,51.5,45.8,51.2,45.8,50.6 M43.8,50.6c0-0.6,0.5-1.2,1.1-1.2c0.6,0,1.1,0.5,1.1,1.2
				c0,0.6-0.5,1.1-1.1,1.1C44.3,51.8,43.8,51.2,43.8,50.6"/>
		</g>
		<g>
			<polygon class="st0" points="54.2,31.2 50.6,31.2 50.3,31.2 50.3,31.4 47.6,37 44.9,31.4 44.8,31.2 44.6,31.2 41,31.2 40.7,31.2 
				40.7,31.5 40.7,33.5 40.7,33.8 41,33.8 41.6,33.8 41.6,41.8 41,41.8 40.6,41.8 40.6,42.1 40.6,44 40.6,44.4 41,44.4 45,44.4 
				45.3,44.4 45.3,44 45.3,42.1 45.3,41.8 45,41.8 44.3,41.8 44.3,36.1 47.3,42.3 47.6,42.9 47.9,42.3 50.9,36.1 50.9,41.8 
				50.2,41.8 49.9,41.8 49.9,42.1 49.9,44 49.9,44.4 50.2,44.4 54.2,44.4 54.6,44.4 54.6,44 54.6,42.1 54.6,41.8 54.2,41.8 
				53.6,41.8 53.6,33.8 54.2,33.8 54.6,33.8 54.6,33.5 54.6,31.5 54.6,31.2 			"/>
		</g>
		<g>
			<path class="st0" d="M24.9,35.6l1,2.2h-1.9L24.9,35.6z M27.3,31.2h-4.9H22v0.3v1.9v0.3h0.3h0.4l-3.5,8h-1.1h-0.3v0.3V44v0.3h0.3
				h4.4h0.3V44v-1.9v-0.3h-0.3h-0.4l0.6-1.3h4.2l0.6,1.3h-0.4h-0.3v0.3V44v0.3h0.3h4.4h0.3V44v-1.9v-0.3h-0.3h-1.1l-3.5-8h0.3h0.3
				v-0.3v-1.9v-0.3H27.3z"/>
		</g>
		<g>
			<g>
				<polygon class="st0" points="50,21.2 21.9,21.2 21.5,21.2 21.5,21.6 21.5,29.1 21.5,29.5 21.9,29.5 26.8,29.5 27.2,29.5 
					27.2,29.1 27.2,26.3 33.2,26.3 33.2,46.1 30.4,46.1 30,46.1 30,46.5 30,51.4 30,51.8 30.4,51.8 41.6,51.8 42,51.8 42,51.4 
					42,46.5 42,46.1 41.6,46.1 38.8,46.1 38.8,26.3 44.7,26.3 44.7,29 44.7,29.4 45.1,29.4 50,29.4 50.4,29.4 50.4,29 50.4,21.6 
					50.4,21.2 				"/>
			</g>
			<g>
				<g>
					<polygon class="st1" points="39.6,48.4 40.8,47.2 40.8,50.6 39.6,49.4 					"/>
				</g>
				<g>
					<polygon class="st1" points="37.6,47.3 36.5,48.5 36.5,24 37.6,25.1 					"/>
				</g>
				<g>
					<polygon class="st1" points="23.9,23.5 22.7,22.3 48.7,22.3 47.1,23.5 					"/>
				</g>
				<g>
					<polygon class="st1" points="49.3,28.3 48.1,27.2 48.1,24.2 49.3,23 					"/>
				</g>
			</g>
		</g>
	</g>
	<g>
		<g>
			<path class="st0" d="M76.9,28.4H76v-4.9h-1.7v-0.8h4.3v0.8h-1.7V28.4z"/>
		</g>
		<g>
			<path class="st0" d="M83.1,28.4h-3.2v-5.7h3.2v0.8h-2.3v1.6H83v0.8h-2.2v1.8h2.3V28.4z"/>
		</g>
		<g>
			<path class="st0" d="M88.9,28.4h-1.1l-1.4-2.3L85,28.4h-1l1.9-3l-1.8-2.8h1l1.3,2.2l1.3-2.2h1L87,25.5L88.9,28.4z"/>
		</g>
		<g>
			<path class="st0" d="M93.7,28.4l-0.6-1.6h-2.2l-0.6,1.6h-1l2.1-5.7h1l2.1,5.7H93.7z M92.8,26l-0.5-1.6c0-0.1-0.1-0.3-0.2-0.5
				S92,23.6,92,23.5c-0.1,0.3-0.2,0.7-0.3,1.1L91.2,26H92.8z"/>
		</g>
		<g>
			<path class="st0" d="M99.1,26.9c0,0.5-0.2,0.9-0.6,1.2s-0.9,0.4-1.5,0.4s-1.2-0.1-1.6-0.3v-0.9c0.3,0.1,0.5,0.2,0.8,0.3
				s0.6,0.1,0.8,0.1c0.4,0,0.6-0.1,0.8-0.2s0.3-0.3,0.3-0.6c0-0.2-0.1-0.4-0.2-0.5s-0.5-0.3-1-0.5c-0.5-0.2-0.9-0.5-1.1-0.7
				s-0.3-0.6-0.3-1c0-0.5,0.2-0.9,0.5-1.1s0.8-0.4,1.4-0.4c0.5,0,1.1,0.1,1.6,0.4l-0.3,0.8c-0.5-0.2-1-0.3-1.4-0.3
				c-0.3,0-0.5,0.1-0.7,0.2s-0.2,0.3-0.2,0.5c0,0.1,0,0.3,0.1,0.4s0.2,0.2,0.3,0.3s0.4,0.2,0.8,0.4c0.4,0.2,0.7,0.3,0.9,0.5
				s0.3,0.3,0.4,0.5S99.1,26.6,99.1,26.9z"/>
		</g>
		<g>
			<path class="st0" d="M106.6,28.4l-0.6-1.6h-2.2l-0.6,1.6h-1l2.1-5.7h1l2.1,5.7H106.6z M105.8,26l-0.5-1.6c0-0.1-0.1-0.3-0.2-0.5
				s-0.1-0.4-0.1-0.5c-0.1,0.3-0.2,0.7-0.3,1.1l-0.5,1.5H105.8z"/>
		</g>
		<g>
			<path class="st0" d="M108.4,26.9c0-0.3,0.1-0.6,0.2-0.9s0.5-0.5,0.9-0.8c-0.2-0.3-0.4-0.5-0.5-0.7s-0.1-0.4-0.1-0.6
				c0-0.4,0.1-0.7,0.4-0.9s0.7-0.3,1.1-0.3c0.5,0,0.8,0.1,1.1,0.3s0.4,0.5,0.4,0.9c0,0.3-0.1,0.6-0.3,0.8s-0.5,0.5-0.9,0.7l1.4,1.3
				c0.2-0.3,0.4-0.7,0.5-1.2h0.9c-0.2,0.7-0.5,1.3-0.9,1.8l1.2,1.1h-1.2l-0.6-0.6c-0.3,0.2-0.5,0.4-0.8,0.5s-0.6,0.2-1,0.2
				c-0.6,0-1.1-0.1-1.4-0.4S108.4,27.4,108.4,26.9z M110.4,27.7c0.5,0,0.9-0.1,1.2-0.4l-1.5-1.5c-0.3,0.2-0.5,0.3-0.6,0.5
				s-0.2,0.3-0.2,0.5c0,0.3,0.1,0.5,0.3,0.6S110,27.7,110.4,27.7z M109.8,23.9c0,0.2,0,0.3,0.1,0.5s0.2,0.3,0.4,0.5
				c0.3-0.2,0.5-0.3,0.6-0.5s0.2-0.3,0.2-0.5c0-0.2-0.1-0.3-0.2-0.4s-0.3-0.2-0.5-0.2c-0.2,0-0.4,0.1-0.5,0.2S109.8,23.8,109.8,23.9
				z"/>
		</g>
		<g>
			<path class="st0" d="M117.6,28.4l-1.7-4.8h0c0,0.7,0.1,1.4,0.1,2v2.8h-0.8v-5.7h1.3l1.6,4.5h0l1.6-4.5h1.3v5.7h-0.9v-2.8
				c0-0.3,0-0.7,0-1.1s0-0.7,0-0.8h0l-1.7,4.8H117.6z"/>
		</g>
		<g>
			<path class="st0" d="M129.8,22.7v3.7c0,0.4-0.1,0.8-0.3,1.1s-0.4,0.6-0.8,0.7s-0.8,0.3-1.2,0.3c-0.7,0-1.3-0.2-1.7-0.6
				s-0.6-0.9-0.6-1.5v-3.7h0.9v3.6c0,0.5,0.1,0.8,0.3,1s0.6,0.3,1,0.3c0.9,0,1.3-0.5,1.3-1.4v-3.6H129.8z"/>
		</g>
		<g>
			<path class="st0" d="M136.4,28.4h-1.1l-2.8-4.6h0l0,0.3c0,0.5,0.1,0.9,0.1,1.3v3h-0.8v-5.7h1.1l2.8,4.5h0c0-0.1,0-0.3,0-0.7
				s0-0.7,0-0.9v-3h0.9V28.4z"/>
		</g>
		<g>
			<path class="st0" d="M138.3,28.4v-5.7h0.9v5.7H138.3z"/>
		</g>
		<g>
			<path class="st0" d="M144.4,22.7h1l-2,5.7h-1l-2-5.7h1l1.2,3.6c0.1,0.2,0.1,0.4,0.2,0.7s0.1,0.5,0.1,0.6c0-0.2,0.1-0.4,0.2-0.7
				s0.1-0.5,0.2-0.6L144.4,22.7z"/>
		</g>
		<g>
			<path class="st0" d="M149.8,28.4h-3.2v-5.7h3.2v0.8h-2.3v1.6h2.2v0.8h-2.2v1.8h2.3V28.4z"/>
		</g>
		<g>
			<path class="st0" d="M152.4,26.1v2.3h-0.9v-5.7h1.6c0.7,0,1.3,0.1,1.6,0.4s0.5,0.7,0.5,1.2c0,0.7-0.4,1.2-1.1,1.5l1.6,2.5h-1.1
				l-1.4-2.3H152.4z M152.4,25.4h0.6c0.4,0,0.8-0.1,0.9-0.2s0.3-0.4,0.3-0.7c0-0.3-0.1-0.6-0.3-0.7s-0.5-0.2-1-0.2h-0.6V25.4z"/>
		</g>
		<g>
			<path class="st0" d="M160.2,26.9c0,0.5-0.2,0.9-0.6,1.2s-0.9,0.4-1.5,0.4s-1.2-0.1-1.6-0.3v-0.9c0.3,0.1,0.5,0.2,0.8,0.3
				s0.6,0.1,0.8,0.1c0.4,0,0.6-0.1,0.8-0.2s0.3-0.3,0.3-0.6c0-0.2-0.1-0.4-0.2-0.5s-0.5-0.3-1-0.5c-0.5-0.2-0.9-0.5-1.1-0.7
				s-0.3-0.6-0.3-1c0-0.5,0.2-0.9,0.5-1.1s0.8-0.4,1.4-0.4c0.5,0,1.1,0.1,1.6,0.4l-0.3,0.8c-0.5-0.2-1-0.3-1.4-0.3
				c-0.3,0-0.5,0.1-0.7,0.2s-0.2,0.3-0.2,0.5c0,0.1,0,0.3,0.1,0.4s0.2,0.2,0.3,0.3s0.4,0.2,0.8,0.4c0.4,0.2,0.7,0.3,0.9,0.5
				s0.3,0.3,0.4,0.5S160.2,26.6,160.2,26.9z"/>
		</g>
		<g>
			<path class="st0" d="M161.7,28.4v-5.7h0.9v5.7H161.7z"/>
		</g>
		<g>
			<path class="st0" d="M166.6,28.4h-0.9v-4.9h-1.7v-0.8h4.3v0.8h-1.7V28.4z"/>
		</g>
		<g>
			<path class="st0" d="M171.1,25.3l1.4-2.6h1l-1.9,3.5v2.2h-0.9v-2.2l-1.9-3.5h1L171.1,25.3z"/>
		</g>
	</g>
	<g>
		<g>
			<path class="st0" d="M80.6,36.6c-1.3,0-2.2,0.4-3,1.3s-1.1,2-1.1,3.4c0,1.5,0.4,2.6,1.1,3.5c0.7,0.8,1.7,1.2,3,1.2
				c0.8,0,1.7-0.1,2.7-0.4v1.2c-0.8,0.3-1.8,0.4-2.9,0.4c-1.7,0-3-0.5-3.9-1.5s-1.4-2.5-1.4-4.4c0-1.2,0.2-2.2,0.7-3.1
				c0.4-0.9,1.1-1.6,1.9-2c0.8-0.5,1.8-0.7,2.9-0.7c1.2,0,2.2,0.2,3.1,0.7l-0.6,1.1C82.4,36.8,81.5,36.6,80.6,36.6z"/>
		</g>
		<g>
			<path class="st0" d="M93,42.7c0,1.4-0.4,2.5-1.1,3.3s-1.7,1.2-2.9,1.2c-0.8,0-1.4-0.2-2-0.5s-1.1-0.9-1.4-1.5
				c-0.3-0.7-0.5-1.5-0.5-2.4c0-1.4,0.3-2.5,1-3.3c0.7-0.8,1.7-1.2,2.9-1.2c1.2,0,2.1,0.4,2.9,1.2C92.7,40.3,93,41.4,93,42.7z
				 M86.5,42.7c0,1.1,0.2,1.9,0.7,2.5s1.1,0.9,1.9,0.9c0.8,0,1.5-0.3,1.9-0.9c0.4-0.6,0.7-1.4,0.7-2.5c0-1.1-0.2-1.9-0.7-2.5
				c-0.4-0.6-1.1-0.8-1.9-0.8c-0.8,0-1.5,0.3-1.9,0.8C86.7,40.8,86.5,41.6,86.5,42.7z"/>
		</g>
		<g>
			<path class="st0" d="M96.6,47h-1.3V34.9h1.3V47z"/>
		</g>
		<g>
			<path class="st0" d="M100.7,47h-1.3V34.9h1.3V47z"/>
		</g>
		<g>
			<path class="st0" d="M107,47.2c-1.3,0-2.3-0.4-3-1.2c-0.7-0.8-1.1-1.8-1.1-3.2c0-1.4,0.3-2.5,1-3.3s1.6-1.2,2.7-1.2
				c1.1,0,1.9,0.4,2.5,1.1s0.9,1.6,0.9,2.8V43h-5.9c0,1,0.3,1.8,0.8,2.3c0.5,0.5,1.2,0.8,2,0.8c0.9,0,1.8-0.2,2.7-0.6v1.2
				c-0.5,0.2-0.9,0.3-1.3,0.4C108.1,47.1,107.6,47.2,107,47.2z M106.7,39.4c-0.7,0-1.2,0.2-1.6,0.7c-0.4,0.4-0.6,1.1-0.7,1.9h4.5
				c0-0.8-0.2-1.4-0.5-1.9C107.9,39.6,107.4,39.4,106.7,39.4z"/>
		</g>
		<g>
			<path class="st0" d="M119.4,38.5v0.8l-1.6,0.2c0.1,0.2,0.3,0.4,0.4,0.7c0.1,0.3,0.2,0.6,0.2,1c0,0.8-0.3,1.5-0.9,2
				c-0.6,0.5-1.4,0.8-2.4,0.8c-0.3,0-0.5,0-0.7-0.1c-0.6,0.3-0.8,0.7-0.8,1.1c0,0.2,0.1,0.4,0.3,0.5c0.2,0.1,0.5,0.2,1,0.2h1.5
				c0.9,0,1.6,0.2,2.1,0.6c0.5,0.4,0.7,1,0.7,1.7c0,0.9-0.4,1.7-1.1,2.2c-0.8,0.5-1.9,0.7-3.3,0.7c-1.1,0-2-0.2-2.6-0.6
				c-0.6-0.4-0.9-1-0.9-1.8c0-0.5,0.2-1,0.5-1.4c0.3-0.4,0.8-0.6,1.4-0.8c-0.2-0.1-0.4-0.3-0.6-0.5s-0.2-0.5-0.2-0.7
				c0-0.3,0.1-0.6,0.2-0.8c0.2-0.2,0.4-0.5,0.8-0.7c-0.4-0.2-0.8-0.5-1.1-0.9c-0.3-0.4-0.4-0.9-0.4-1.5c0-0.9,0.3-1.7,0.8-2.2
				s1.4-0.8,2.4-0.8c0.4,0,0.9,0.1,1.2,0.2H119.4z M112.6,48.5c0,0.5,0.2,0.8,0.6,1.1s1,0.4,1.7,0.4c1.1,0,1.9-0.2,2.4-0.5
				s0.8-0.8,0.8-1.3c0-0.5-0.1-0.8-0.4-1c-0.3-0.2-0.8-0.3-1.6-0.3h-1.6c-0.6,0-1,0.1-1.4,0.4S112.6,47.9,112.6,48.5z M113.3,41.2
				c0,0.6,0.2,1.1,0.5,1.4c0.3,0.3,0.8,0.5,1.4,0.5c1.3,0,1.9-0.6,1.9-1.8c0-1.3-0.6-1.9-1.9-1.9c-0.6,0-1.1,0.2-1.4,0.5
				S113.3,40.6,113.3,41.2z"/>
		</g>
		<g>
			<path class="st0" d="M124.8,47.2c-1.3,0-2.3-0.4-3-1.2c-0.7-0.8-1.1-1.8-1.1-3.2c0-1.4,0.3-2.5,1-3.3s1.6-1.2,2.7-1.2
				c1.1,0,1.9,0.4,2.5,1.1s0.9,1.6,0.9,2.8V43H122c0,1,0.3,1.8,0.8,2.3c0.5,0.5,1.2,0.8,2,0.8c0.9,0,1.8-0.2,2.7-0.6v1.2
				c-0.5,0.2-0.9,0.3-1.3,0.4C125.8,47.1,125.4,47.2,124.8,47.2z M124.4,39.4c-0.7,0-1.2,0.2-1.6,0.7c-0.4,0.4-0.6,1.1-0.7,1.9h4.5
				c0-0.8-0.2-1.4-0.5-1.9C125.6,39.6,125.1,39.4,124.4,39.4z"/>
		</g>
		<g>
			<path class="st0" d="M141.7,42.7c0,1.4-0.4,2.5-1.1,3.3s-1.7,1.2-2.9,1.2c-0.8,0-1.4-0.2-2-0.5s-1.1-0.9-1.4-1.5
				c-0.3-0.7-0.5-1.5-0.5-2.4c0-1.4,0.3-2.5,1-3.3c0.7-0.8,1.7-1.2,2.9-1.2c1.2,0,2.1,0.4,2.9,1.2C141.3,40.3,141.7,41.4,141.7,42.7
				z M135.2,42.7c0,1.1,0.2,1.9,0.7,2.5s1.1,0.9,1.9,0.9c0.8,0,1.5-0.3,1.9-0.9c0.4-0.6,0.7-1.4,0.7-2.5c0-1.1-0.2-1.9-0.7-2.5
				c-0.4-0.6-1.1-0.8-1.9-0.8c-0.8,0-1.5,0.3-1.9,0.8C135.4,40.8,135.2,41.6,135.2,42.7z"/>
		</g>
		<g>
			<path class="st0" d="M147.8,39.5h-2.2V47h-1.3v-7.6h-1.5v-0.6l1.5-0.5v-0.5c0-2.1,0.9-3.2,2.8-3.2c0.5,0,1,0.1,1.6,0.3l-0.3,1
				c-0.5-0.2-0.9-0.2-1.3-0.2c-0.5,0-0.9,0.2-1.1,0.5s-0.4,0.8-0.4,1.6v0.6h2.2V39.5z"/>
		</g>
		<g>
			<path class="st0" d="M158.8,47l-3.9-10.1h-0.1c0.1,0.8,0.1,1.8,0.1,2.9V47h-1.2V35.6h2l3.6,9.4h0.1l3.6-9.4h2V47h-1.3v-7.4
				c0-0.8,0-1.8,0.1-2.8h-0.1L159.9,47H158.8z"/>
		</g>
		<g>
			<path class="st0" d="M171.6,47.2c-1.3,0-2.3-0.4-3-1.2c-0.7-0.8-1.1-1.8-1.1-3.2c0-1.4,0.3-2.5,1-3.3s1.6-1.2,2.7-1.2
				c1.1,0,1.9,0.4,2.5,1.1s0.9,1.6,0.9,2.8V43h-5.9c0,1,0.3,1.8,0.8,2.3c0.5,0.5,1.2,0.8,2,0.8c0.9,0,1.8-0.2,2.7-0.6v1.2
				c-0.5,0.2-0.9,0.3-1.3,0.4C172.7,47.1,172.2,47.2,171.6,47.2z M171.2,39.4c-0.7,0-1.2,0.2-1.6,0.7c-0.4,0.4-0.6,1.1-0.7,1.9h4.5
				c0-0.8-0.2-1.4-0.5-1.9C172.4,39.6,171.9,39.4,171.2,39.4z"/>
		</g>
		<g>
			<path class="st0" d="M182.8,45.9L182.8,45.9c-0.7,0.9-1.6,1.3-2.8,1.3c-1.1,0-2-0.4-2.6-1.1c-0.6-0.8-0.9-1.9-0.9-3.3
				s0.3-2.5,0.9-3.3s1.5-1.2,2.6-1.2c1.2,0,2.1,0.4,2.7,1.3h0.1l-0.1-0.6l0-0.6v-3.5h1.3V47H183L182.8,45.9z M180.2,46.1
				c0.9,0,1.5-0.2,1.9-0.7s0.6-1.3,0.6-2.3v-0.3c0-1.2-0.2-2.1-0.6-2.6c-0.4-0.5-1-0.8-1.9-0.8c-0.8,0-1.3,0.3-1.7,0.9
				c-0.4,0.6-0.6,1.4-0.6,2.5c0,1.1,0.2,1.9,0.6,2.5C178.8,45.8,179.4,46.1,180.2,46.1z"/>
		</g>
		<g>
			<path class="st0" d="M186.6,36.1c0-0.3,0.1-0.5,0.2-0.7c0.1-0.1,0.3-0.2,0.5-0.2c0.2,0,0.4,0.1,0.5,0.2c0.2,0.1,0.2,0.4,0.2,0.6
				s-0.1,0.5-0.2,0.7c-0.2,0.1-0.3,0.2-0.5,0.2c-0.2,0-0.4-0.1-0.5-0.2C186.7,36.6,186.6,36.4,186.6,36.1z M188.1,47h-1.3v-8.6h1.3
				V47z"/>
		</g>
		<g>
			<path class="st0" d="M194.2,47.2c-1.2,0-2.2-0.4-2.9-1.1s-1-1.8-1-3.2c0-1.4,0.3-2.5,1-3.3c0.7-0.8,1.7-1.2,2.9-1.2
				c0.4,0,0.8,0,1.2,0.1c0.4,0.1,0.7,0.2,1,0.3l-0.4,1.1c-0.3-0.1-0.6-0.2-0.9-0.3c-0.3-0.1-0.6-0.1-0.9-0.1c-1.7,0-2.6,1.1-2.6,3.3
				c0,1.1,0.2,1.9,0.6,2.4c0.4,0.6,1.1,0.8,1.9,0.8c0.7,0,1.4-0.2,2.2-0.5v1.1C195.8,47,195.1,47.2,194.2,47.2z"/>
		</g>
		<g>
			<path class="st0" d="M198.3,36.1c0-0.3,0.1-0.5,0.2-0.7c0.1-0.1,0.3-0.2,0.5-0.2c0.2,0,0.4,0.1,0.5,0.2c0.2,0.1,0.2,0.4,0.2,0.6
				s-0.1,0.5-0.2,0.7c-0.2,0.1-0.3,0.2-0.5,0.2c-0.2,0-0.4-0.1-0.5-0.2C198.4,36.6,198.3,36.4,198.3,36.1z M199.7,47h-1.3v-8.6h1.3
				V47z"/>
		</g>
		<g>
			<path class="st0" d="M208.3,47v-5.5c0-0.7-0.2-1.2-0.5-1.6c-0.3-0.3-0.8-0.5-1.5-0.5c-0.9,0-1.6,0.2-2,0.7
				c-0.4,0.5-0.6,1.3-0.6,2.4V47h-1.3v-8.6h1.1l0.2,1.2h0.1c0.3-0.4,0.6-0.7,1.1-1c0.5-0.2,1-0.3,1.6-0.3c1,0,1.8,0.2,2.3,0.7
				c0.5,0.5,0.8,1.3,0.8,2.4V47H208.3z"/>
		</g>
		<g>
			<path class="st0" d="M215.9,47.2c-1.3,0-2.3-0.4-3-1.2c-0.7-0.8-1.1-1.8-1.1-3.2c0-1.4,0.3-2.5,1-3.3s1.6-1.2,2.7-1.2
				c1.1,0,1.9,0.4,2.5,1.1s0.9,1.6,0.9,2.8V43h-5.9c0,1,0.3,1.8,0.8,2.3c0.5,0.5,1.2,0.8,2,0.8c0.9,0,1.8-0.2,2.7-0.6v1.2
				c-0.5,0.2-0.9,0.3-1.3,0.4C217,47.1,216.5,47.2,215.9,47.2z M215.6,39.4c-0.7,0-1.2,0.2-1.6,0.7c-0.4,0.4-0.6,1.1-0.7,1.9h4.5
				c0-0.8-0.2-1.4-0.5-1.9C216.8,39.6,216.2,39.4,215.6,39.4z"/>
		</g>
	</g>
</g>
</svg>
