<?xml version="1.0" encoding="utf-8"?>
<!-- Generator: Adobe Illustrator 22.0.1, SVG Export Plug-In . SVG Version: 6.00 Build 0)  -->
<svg version="1.1" id="Layer_1" xmlns="http://www.w3.org/2000/svg" xmlns:xlink="http://www.w3.org/1999/xlink" x="0px" y="0px"
	 viewBox="0 0 179.9 116.4" style="enable-background:new 0 0 179.9 116.4;" xml:space="preserve">
<style type="text/css">
	.st0{fill:#FFFFFF;}
	.st1{fill:#A6A6A6;}
</style>
<g>
	<g>
		<rect x="73.3" y="58.7" class="st0" width="33" height="1.2"/>
	</g>
	<g>
		<g>
			<path class="st0" d="M97.1,47.5c0-0.6,0.5-1.1,1.1-1.1c0.6,0,1.1,0.5,1.1,1.1c0,0.6-0.5,1.1-1.1,1.1
				C97.6,48.6,97.1,48.1,97.1,47.5 M99.1,47.5c0-0.5-0.4-0.9-0.9-0.9c-0.5,0-0.9,0.4-0.9,0.9c0,0.5,0.4,0.9,0.9,0.9
				C98.7,48.4,99.1,48,99.1,47.5 M97.8,46.8h0.5c0.3,0,0.5,0.1,0.5,0.4c0,0.2-0.1,0.3-0.3,0.3l0.3,0.6h-0.2l-0.3-0.6H98v0.6h-0.2
				V46.8z M98,47.4h0.2c0.1,0,0.3,0,0.3-0.2c0-0.2-0.1-0.2-0.3-0.2H98V47.4z"/>
		</g>
		<g>
			<g>
				<polygon class="st0" points="108,28.2 104.3,28.2 104.1,28.2 104,28.4 101.3,33.9 98.6,28.4 98.6,28.2 98.3,28.2 94.8,28.2 
					94.4,28.2 94.4,28.5 94.4,30.4 94.4,30.7 94.8,30.7 95.4,30.7 95.4,38.7 94.7,38.7 94.4,38.7 94.4,39 94.4,40.9 94.4,41.3 
					94.7,41.3 98.7,41.3 99.1,41.3 99.1,40.9 99.1,39 99.1,38.7 98.7,38.7 98,38.7 98,33 101,39.2 101.3,39.8 101.6,39.2 104.6,33 
					104.6,38.7 104,38.7 103.6,38.7 103.6,39 103.6,40.9 103.6,41.3 104,41.3 108,41.3 108.3,41.3 108.3,40.9 108.3,39 108.3,38.7 
					108,38.7 107.3,38.7 107.3,30.7 108,30.7 108.3,30.7 108.3,30.4 108.3,28.5 108.3,28.2 				"/>
			</g>
			<g>
				<path class="st0" d="M84.8,38.7h-1.1l-3.5-8h0.3h0.3v-0.3v-1.9v-0.3h-0.3h-4.9h-0.3v0.3v1.9v0.3h0.3h0.4l-3.5,8h-1.1h-0.3V39
					v1.9v0.3h0.3H76h0.3v-0.3V39v-0.3H76h-0.4l0.6-1.3h4.2l0.6,1.3h-0.4h-0.3V39v1.9v0.3h0.3h4.4h0.3v-0.3V39v-0.3H84.8z M79.2,34.8
					h-1.9l1-2.2L79.2,34.8z"/>
			</g>
			<g>
				<polygon class="st0" points="103.8,18.2 75.7,18.2 75.4,18.2 75.4,18.6 75.4,26 75.4,26.4 75.7,26.4 80.6,26.4 81,26.4 81,26 
					81,23.3 86.9,23.3 86.9,43 84.2,43 83.8,43 83.8,43.4 83.8,48.2 83.8,48.6 84.2,48.6 95.3,48.6 95.7,48.6 95.7,48.2 95.7,43.4 
					95.7,43 95.3,43 92.6,43 92.6,23.3 98.5,23.3 98.5,26 98.5,26.4 98.9,26.4 103.8,26.4 104.1,26.4 104.1,26 104.1,18.6 
					104.1,18.2 				"/>
			</g>
			<g>
				<g>
					<polygon class="st1" points="93.4,45.3 94.6,44.1 94.6,47.4 93.4,46.3 					"/>
				</g>
				<g>
					<polygon class="st1" points="91.4,44.2 90.2,45.3 90.2,20.9 91.4,22.1 					"/>
				</g>
				<g>
					<polygon class="st1" points="77.7,20.5 76.5,19.3 102.4,19.3 100.9,20.5 					"/>
				</g>
				<g>
					<polygon class="st1" points="103,25.3 101.8,24.2 101.8,21.2 103,20 					"/>
				</g>
			</g>
		</g>
	</g>
	<g>
		<g>
			<path class="st0" d="M42.7,75.6h-0.9v-4.9h-1.7v-0.8h4.3v0.8h-1.7V75.6z"/>
		</g>
		<g>
			<path class="st0" d="M48.8,75.6h-3.2v-5.7h3.2v0.8h-2.3v1.6h2.2V73h-2.2v1.8h2.3V75.6z"/>
		</g>
		<g>
			<path class="st0" d="M54.7,75.6h-1.1l-1.4-2.3l-1.4,2.3h-1l1.9-3l-1.8-2.8h1l1.3,2.2l1.3-2.2h1l-1.8,2.8L54.7,75.6z"/>
		</g>
		<g>
			<path class="st0" d="M59.4,75.6L58.8,74h-2.2l-0.6,1.6h-1l2.1-5.7h1l2.1,5.7H59.4z M58.6,73.2l-0.5-1.6c0-0.1-0.1-0.3-0.2-0.5
				c-0.1-0.2-0.1-0.4-0.1-0.5c-0.1,0.3-0.2,0.7-0.3,1.1l-0.5,1.5H58.6z"/>
		</g>
		<g>
			<path class="st0" d="M64.8,74c0,0.5-0.2,0.9-0.6,1.2c-0.4,0.3-0.9,0.4-1.5,0.4s-1.2-0.1-1.6-0.3v-0.9c0.3,0.1,0.5,0.2,0.8,0.3
				s0.6,0.1,0.8,0.1c0.4,0,0.6-0.1,0.8-0.2s0.3-0.3,0.3-0.6c0-0.2-0.1-0.4-0.2-0.5s-0.5-0.3-1-0.5c-0.5-0.2-0.9-0.5-1.1-0.7
				c-0.2-0.3-0.3-0.6-0.3-1c0-0.5,0.2-0.9,0.5-1.1s0.8-0.4,1.4-0.4c0.5,0,1.1,0.1,1.6,0.4l-0.3,0.8c-0.5-0.2-1-0.3-1.4-0.3
				c-0.3,0-0.5,0.1-0.7,0.2c-0.2,0.1-0.2,0.3-0.2,0.5c0,0.1,0,0.3,0.1,0.4s0.2,0.2,0.3,0.3s0.4,0.2,0.8,0.4c0.4,0.2,0.7,0.3,0.9,0.5
				c0.2,0.2,0.3,0.3,0.4,0.5C64.8,73.5,64.8,73.8,64.8,74z"/>
		</g>
		<g>
			<path class="st0" d="M72.4,75.6L71.8,74h-2.2l-0.6,1.6h-1l2.1-5.7h1l2.1,5.7H72.4z M71.6,73.2L71,71.6c0-0.1-0.1-0.3-0.2-0.5
				c-0.1-0.2-0.1-0.4-0.1-0.5c-0.1,0.3-0.2,0.7-0.3,1.1l-0.5,1.5H71.6z"/>
		</g>
		<g>
			<path class="st0" d="M74.1,74.1c0-0.3,0.1-0.6,0.2-0.9s0.5-0.5,0.9-0.8c-0.2-0.3-0.4-0.5-0.5-0.7s-0.1-0.4-0.1-0.6
				c0-0.4,0.1-0.7,0.4-0.9c0.3-0.2,0.7-0.3,1.1-0.3c0.5,0,0.8,0.1,1.1,0.3s0.4,0.5,0.4,0.9c0,0.3-0.1,0.6-0.3,0.8s-0.5,0.5-0.9,0.7
				l1.4,1.3c0.2-0.3,0.4-0.7,0.5-1.2h0.9c-0.2,0.7-0.5,1.3-0.9,1.8l1.2,1.1h-1.2L77.9,75c-0.3,0.2-0.5,0.4-0.8,0.5
				c-0.3,0.1-0.6,0.2-1,0.2c-0.6,0-1.1-0.1-1.4-0.4C74.3,74.9,74.1,74.5,74.1,74.1z M76.1,74.9c0.5,0,0.9-0.1,1.2-0.4L75.8,73
				c-0.3,0.2-0.5,0.3-0.6,0.5c-0.1,0.2-0.2,0.3-0.2,0.5c0,0.3,0.1,0.5,0.3,0.6S75.8,74.9,76.1,74.9z M75.5,71.1c0,0.2,0,0.3,0.1,0.5
				c0.1,0.1,0.2,0.3,0.4,0.5c0.3-0.2,0.5-0.3,0.6-0.5s0.2-0.3,0.2-0.5c0-0.2-0.1-0.3-0.2-0.4s-0.3-0.2-0.5-0.2
				c-0.2,0-0.4,0.1-0.5,0.2S75.5,70.9,75.5,71.1z"/>
		</g>
		<g>
			<path class="st0" d="M83.3,75.6l-1.7-4.8h0c0,0.7,0.1,1.4,0.1,2v2.8h-0.8v-5.7h1.3l1.6,4.5h0l1.6-4.5h1.3v5.7h-0.9v-2.8
				c0-0.3,0-0.7,0-1.1c0-0.5,0-0.7,0-0.8h0l-1.7,4.8H83.3z"/>
		</g>
		<g>
			<path class="st0" d="M95.6,69.9v3.7c0,0.4-0.1,0.8-0.3,1.1s-0.4,0.6-0.8,0.7c-0.3,0.2-0.8,0.3-1.2,0.3c-0.7,0-1.3-0.2-1.7-0.6
				S91,74.2,91,73.5v-3.7H92v3.6c0,0.5,0.1,0.8,0.3,1c0.2,0.2,0.6,0.3,1,0.3c0.9,0,1.3-0.5,1.3-1.4v-3.6H95.6z"/>
		</g>
		<g>
			<path class="st0" d="M102.2,75.6H101L98.2,71h0l0,0.3c0,0.5,0.1,0.9,0.1,1.3v3h-0.8v-5.7h1.1l2.8,4.5h0c0-0.1,0-0.3,0-0.7
				c0-0.4,0-0.7,0-0.9v-3h0.9V75.6z"/>
		</g>
		<g>
			<path class="st0" d="M104.1,75.6v-5.7h0.9v5.7H104.1z"/>
		</g>
		<g>
			<path class="st0" d="M110.2,69.9h1l-2,5.7h-1l-2-5.7h1l1.2,3.6c0.1,0.2,0.1,0.4,0.2,0.7c0.1,0.3,0.1,0.5,0.1,0.6
				c0-0.2,0.1-0.4,0.2-0.7c0.1-0.3,0.1-0.5,0.2-0.6L110.2,69.9z"/>
		</g>
		<g>
			<path class="st0" d="M115.5,75.6h-3.2v-5.7h3.2v0.8h-2.3v1.6h2.2V73h-2.2v1.8h2.3V75.6z"/>
		</g>
		<g>
			<path class="st0" d="M118.1,73.3v2.3h-0.9v-5.7h1.6c0.7,0,1.3,0.1,1.6,0.4c0.4,0.3,0.5,0.7,0.5,1.2c0,0.7-0.4,1.2-1.1,1.5
				l1.6,2.5h-1.1l-1.4-2.3H118.1z M118.1,72.5h0.6c0.4,0,0.8-0.1,0.9-0.2c0.2-0.2,0.3-0.4,0.3-0.7c0-0.3-0.1-0.6-0.3-0.7
				s-0.5-0.2-1-0.2h-0.6V72.5z"/>
		</g>
		<g>
			<path class="st0" d="M126,74c0,0.5-0.2,0.9-0.6,1.2s-0.9,0.4-1.5,0.4s-1.2-0.1-1.6-0.3v-0.9c0.3,0.1,0.5,0.2,0.8,0.3
				s0.6,0.1,0.8,0.1c0.4,0,0.6-0.1,0.8-0.2s0.3-0.3,0.3-0.6c0-0.2-0.1-0.4-0.2-0.5s-0.5-0.3-1-0.5c-0.5-0.2-0.9-0.5-1.1-0.7
				c-0.2-0.3-0.3-0.6-0.3-1c0-0.5,0.2-0.9,0.5-1.1s0.8-0.4,1.4-0.4c0.5,0,1.1,0.1,1.6,0.4l-0.3,0.8c-0.5-0.2-1-0.3-1.4-0.3
				c-0.3,0-0.5,0.1-0.7,0.2c-0.2,0.1-0.2,0.3-0.2,0.5c0,0.1,0,0.3,0.1,0.4s0.2,0.2,0.3,0.3s0.4,0.2,0.8,0.4c0.4,0.2,0.7,0.3,0.9,0.5
				c0.2,0.2,0.3,0.3,0.4,0.5C125.9,73.5,126,73.8,126,74z"/>
		</g>
		<g>
			<path class="st0" d="M127.5,75.6v-5.7h0.9v5.7H127.5z"/>
		</g>
		<g>
			<path class="st0" d="M132.3,75.6h-0.9v-4.9h-1.7v-0.8h4.3v0.8h-1.7V75.6z"/>
		</g>
		<g>
			<path class="st0" d="M136.9,72.5l1.4-2.6h1l-1.9,3.5v2.2h-0.9v-2.2l-1.9-3.5h1L136.9,72.5z"/>
		</g>
	</g>
	<g>
		<g>
			<path class="st0" d="M23.4,83.8c-1.3,0-2.2,0.4-3,1.3s-1.1,2-1.1,3.4c0,1.5,0.4,2.6,1.1,3.5c0.7,0.8,1.7,1.2,3,1.2
				c0.8,0,1.7-0.1,2.7-0.4v1.2c-0.8,0.3-1.8,0.4-2.9,0.4c-1.7,0-3-0.5-3.9-1.5c-0.9-1-1.4-2.5-1.4-4.4c0-1.2,0.2-2.2,0.7-3.1
				c0.4-0.9,1.1-1.6,1.9-2c0.8-0.5,1.8-0.7,2.9-0.7c1.2,0,2.2,0.2,3.1,0.7L26,84.4C25.1,84,24.3,83.8,23.4,83.8z"/>
		</g>
		<g>
			<path class="st0" d="M35.8,89.9c0,1.4-0.4,2.5-1.1,3.3c-0.7,0.8-1.7,1.2-2.9,1.2c-0.8,0-1.4-0.2-2-0.5s-1.1-0.9-1.4-1.5
				s-0.5-1.5-0.5-2.4c0-1.4,0.3-2.5,1-3.3c0.7-0.8,1.7-1.2,2.9-1.2c1.2,0,2.1,0.4,2.9,1.2S35.8,88.5,35.8,89.9z M29.3,89.9
				c0,1.1,0.2,1.9,0.7,2.5c0.4,0.6,1.1,0.9,1.9,0.9c0.8,0,1.5-0.3,1.9-0.9s0.7-1.4,0.7-2.5c0-1.1-0.2-1.9-0.7-2.5
				c-0.4-0.6-1.1-0.8-1.9-0.8c-0.8,0-1.5,0.3-1.9,0.8C29.5,87.9,29.3,88.8,29.3,89.9z"/>
		</g>
		<g>
			<path class="st0" d="M39.4,94.2h-1.3V82h1.3V94.2z"/>
		</g>
		<g>
			<path class="st0" d="M43.4,94.2h-1.3V82h1.3V94.2z"/>
		</g>
		<g>
			<path class="st0" d="M49.8,94.3c-1.3,0-2.3-0.4-3-1.2c-0.7-0.8-1.1-1.8-1.1-3.2c0-1.4,0.3-2.5,1-3.3s1.6-1.2,2.7-1.2
				c1.1,0,1.9,0.4,2.5,1.1c0.6,0.7,0.9,1.6,0.9,2.8v0.8H47c0,1,0.3,1.8,0.8,2.3c0.5,0.5,1.2,0.8,2,0.8c0.9,0,1.8-0.2,2.7-0.6v1.2
				c-0.5,0.2-0.9,0.3-1.3,0.4S50.4,94.3,49.8,94.3z M49.4,86.5c-0.7,0-1.2,0.2-1.6,0.7c-0.4,0.4-0.6,1.1-0.7,1.9h4.5
				c0-0.8-0.2-1.4-0.5-1.9C50.6,86.7,50.1,86.5,49.4,86.5z"/>
		</g>
		<g>
			<path class="st0" d="M62.2,85.6v0.8l-1.6,0.2c0.1,0.2,0.3,0.4,0.4,0.7c0.1,0.3,0.2,0.6,0.2,1c0,0.8-0.3,1.5-0.9,2
				s-1.4,0.8-2.4,0.8c-0.3,0-0.5,0-0.7-0.1c-0.6,0.3-0.8,0.7-0.8,1.1c0,0.2,0.1,0.4,0.3,0.5c0.2,0.1,0.5,0.2,1,0.2h1.5
				c0.9,0,1.6,0.2,2.1,0.6s0.7,1,0.7,1.7c0,0.9-0.4,1.7-1.1,2.2C60.1,97.8,59,98,57.6,98c-1.1,0-2-0.2-2.6-0.6
				c-0.6-0.4-0.9-1-0.9-1.8c0-0.5,0.2-1,0.5-1.4s0.8-0.6,1.4-0.8c-0.2-0.1-0.4-0.3-0.6-0.5c-0.1-0.2-0.2-0.5-0.2-0.7
				c0-0.3,0.1-0.6,0.2-0.8s0.4-0.5,0.8-0.7c-0.4-0.2-0.8-0.5-1.1-0.9s-0.4-0.9-0.4-1.5c0-0.9,0.3-1.7,0.8-2.2s1.4-0.8,2.4-0.8
				c0.4,0,0.9,0.1,1.2,0.2H62.2z M55.3,95.6c0,0.5,0.2,0.8,0.6,1.1c0.4,0.2,1,0.4,1.7,0.4c1.1,0,1.9-0.2,2.4-0.5
				c0.5-0.3,0.8-0.8,0.8-1.3c0-0.5-0.1-0.8-0.4-1S59.5,94,58.7,94h-1.6c-0.6,0-1,0.1-1.4,0.4S55.3,95.1,55.3,95.6z M56,88.3
				c0,0.6,0.2,1.1,0.5,1.4c0.3,0.3,0.8,0.5,1.4,0.5c1.3,0,1.9-0.6,1.9-1.8c0-1.3-0.6-1.9-1.9-1.9c-0.6,0-1.1,0.2-1.4,0.5
				S56,87.7,56,88.3z"/>
		</g>
		<g>
			<path class="st0" d="M67.5,94.3c-1.3,0-2.3-0.4-3-1.2c-0.7-0.8-1.1-1.8-1.1-3.2c0-1.4,0.3-2.5,1-3.3c0.7-0.8,1.6-1.2,2.7-1.2
				c1.1,0,1.9,0.4,2.5,1.1c0.6,0.7,0.9,1.6,0.9,2.8v0.8h-5.9c0,1,0.3,1.8,0.8,2.3c0.5,0.5,1.2,0.8,2,0.8c0.9,0,1.8-0.2,2.7-0.6v1.2
				c-0.5,0.2-0.9,0.3-1.3,0.4S68.1,94.3,67.5,94.3z M67.2,86.5c-0.7,0-1.2,0.2-1.6,0.7c-0.4,0.4-0.6,1.1-0.7,1.9h4.5
				c0-0.8-0.2-1.4-0.5-1.9C68.4,86.7,67.9,86.5,67.2,86.5z"/>
		</g>
		<g>
			<path class="st0" d="M84.4,89.9c0,1.4-0.4,2.5-1.1,3.3c-0.7,0.8-1.7,1.2-2.9,1.2c-0.8,0-1.4-0.2-2-0.5s-1.1-0.9-1.4-1.5
				s-0.5-1.5-0.5-2.4c0-1.4,0.3-2.5,1-3.3c0.7-0.8,1.7-1.2,2.9-1.2c1.2,0,2.1,0.4,2.9,1.2S84.4,88.5,84.4,89.9z M77.9,89.9
				c0,1.1,0.2,1.9,0.7,2.5c0.4,0.6,1.1,0.9,1.9,0.9s1.5-0.3,1.9-0.9s0.7-1.4,0.7-2.5c0-1.1-0.2-1.9-0.7-2.5
				c-0.4-0.6-1.1-0.8-1.9-0.8c-0.8,0-1.5,0.3-1.9,0.8C78.1,87.9,77.9,88.8,77.9,89.9z"/>
		</g>
		<g>
			<path class="st0" d="M90.6,86.6h-2.2v7.6h-1.3v-7.6h-1.5V86l1.5-0.5v-0.5c0-2.1,0.9-3.2,2.8-3.2c0.5,0,1,0.1,1.6,0.3l-0.3,1
				c-0.5-0.2-0.9-0.2-1.3-0.2c-0.5,0-0.9,0.2-1.1,0.5c-0.2,0.3-0.4,0.8-0.4,1.6v0.6h2.2V86.6z"/>
		</g>
		<g>
			<path class="st0" d="M101.5,94.2L97.7,84h-0.1c0.1,0.8,0.1,1.8,0.1,2.9v7.3h-1.2V82.7h2l3.6,9.4h0.1l3.6-9.4h2v11.4h-1.3v-7.4
				c0-0.8,0-1.8,0.1-2.8h-0.1l-3.9,10.1H101.5z"/>
		</g>
		<g>
			<path class="st0" d="M114.3,94.3c-1.3,0-2.3-0.4-3-1.2c-0.7-0.8-1.1-1.8-1.1-3.2c0-1.4,0.3-2.5,1-3.3s1.6-1.2,2.7-1.2
				c1.1,0,1.9,0.4,2.5,1.1c0.6,0.7,0.9,1.6,0.9,2.8v0.8h-5.9c0,1,0.3,1.8,0.8,2.3c0.5,0.5,1.2,0.8,2,0.8c0.9,0,1.8-0.2,2.7-0.6v1.2
				c-0.5,0.2-0.9,0.3-1.3,0.4S114.9,94.3,114.3,94.3z M114,86.5c-0.7,0-1.2,0.2-1.6,0.7c-0.4,0.4-0.6,1.1-0.7,1.9h4.5
				c0-0.8-0.2-1.4-0.5-1.9C115.2,86.7,114.7,86.5,114,86.5z"/>
		</g>
		<g>
			<path class="st0" d="M125.5,93L125.5,93c-0.7,0.9-1.6,1.3-2.8,1.3c-1.1,0-2-0.4-2.6-1.1s-0.9-1.9-0.9-3.3c0-1.4,0.3-2.5,0.9-3.3
				s1.5-1.2,2.6-1.2c1.2,0,2.1,0.4,2.7,1.3h0.1l-0.1-0.6l0-0.6V82h1.3v12.2h-1.1L125.5,93z M122.9,93.2c0.9,0,1.5-0.2,1.9-0.7
				c0.4-0.5,0.6-1.3,0.6-2.3v-0.3c0-1.2-0.2-2.1-0.6-2.6c-0.4-0.5-1-0.8-1.9-0.8c-0.8,0-1.3,0.3-1.7,0.9c-0.4,0.6-0.6,1.4-0.6,2.5
				c0,1.1,0.2,1.9,0.6,2.5C121.6,92.9,122.2,93.2,122.9,93.2z"/>
		</g>
		<g>
			<path class="st0" d="M129.4,83.3c0-0.3,0.1-0.5,0.2-0.7c0.1-0.1,0.3-0.2,0.5-0.2c0.2,0,0.4,0.1,0.5,0.2s0.2,0.4,0.2,0.6
				c0,0.3-0.1,0.5-0.2,0.7c-0.2,0.1-0.3,0.2-0.5,0.2c-0.2,0-0.4-0.1-0.5-0.2C129.5,83.8,129.4,83.6,129.4,83.3z M130.8,94.2h-1.3
				v-8.6h1.3V94.2z"/>
		</g>
		<g>
			<path class="st0" d="M137,94.3c-1.2,0-2.2-0.4-2.9-1.1c-0.7-0.8-1-1.8-1-3.2c0-1.4,0.3-2.5,1-3.3s1.7-1.2,2.9-1.2
				c0.4,0,0.8,0,1.2,0.1c0.4,0.1,0.7,0.2,1,0.3l-0.4,1.1c-0.3-0.1-0.6-0.2-0.9-0.3c-0.3-0.1-0.6-0.1-0.9-0.1c-1.7,0-2.6,1.1-2.6,3.3
				c0,1.1,0.2,1.9,0.6,2.4s1.1,0.8,1.9,0.8c0.7,0,1.4-0.2,2.2-0.5v1.1C138.6,94.2,137.8,94.3,137,94.3z"/>
		</g>
		<g>
			<path class="st0" d="M141.1,83.3c0-0.3,0.1-0.5,0.2-0.7c0.1-0.1,0.3-0.2,0.5-0.2c0.2,0,0.4,0.1,0.5,0.2s0.2,0.4,0.2,0.6
				c0,0.3-0.1,0.5-0.2,0.7c-0.2,0.1-0.3,0.2-0.5,0.2c-0.2,0-0.4-0.1-0.5-0.2C141.1,83.8,141.1,83.6,141.1,83.3z M142.5,94.2h-1.3
				v-8.6h1.3V94.2z"/>
		</g>
		<g>
			<path class="st0" d="M151.1,94.2v-5.5c0-0.7-0.2-1.2-0.5-1.6s-0.8-0.5-1.5-0.5c-0.9,0-1.6,0.2-2,0.7s-0.6,1.3-0.6,2.4v4.5h-1.3
				v-8.6h1.1l0.2,1.2h0.1c0.3-0.4,0.6-0.7,1.1-1c0.5-0.2,1-0.3,1.6-0.3c1,0,1.8,0.2,2.3,0.7c0.5,0.5,0.8,1.3,0.8,2.4v5.6H151.1z"/>
		</g>
		<g>
			<path class="st0" d="M158.7,94.3c-1.3,0-2.3-0.4-3-1.2c-0.7-0.8-1.1-1.8-1.1-3.2c0-1.4,0.3-2.5,1-3.3s1.6-1.2,2.7-1.2
				c1.1,0,1.9,0.4,2.5,1.1c0.6,0.7,0.9,1.6,0.9,2.8v0.8h-5.9c0,1,0.3,1.8,0.8,2.3c0.5,0.5,1.2,0.8,2,0.8c0.9,0,1.8-0.2,2.7-0.6v1.2
				c-0.5,0.2-0.9,0.3-1.3,0.4S159.2,94.3,158.7,94.3z M158.3,86.5c-0.7,0-1.2,0.2-1.6,0.7c-0.4,0.4-0.6,1.1-0.7,1.9h4.5
				c0-0.8-0.2-1.4-0.5-1.9C159.5,86.7,159,86.5,158.3,86.5z"/>
		</g>
	</g>
</g>
</svg>
