<?xml version="1.0" encoding="utf-8"?>
<!-- Generator: Adobe Illustrator 22.0.1, SVG Export Plug-In . SVG Version: 6.00 Build 0)  -->
<svg version="1.1" id="Layer_1" xmlns="http://www.w3.org/2000/svg" xmlns:xlink="http://www.w3.org/1999/xlink" x="0px" y="0px"
	 viewBox="0 0 228.9 73.4" style="enable-background:new 0 0 228.9 73.4;" xml:space="preserve">
<style type="text/css">
	.st0{fill:#500000;}
	.st1{fill:#FFFFFF;}
	.st2{fill:#A6A6A6;}
</style>
<g>
	<g>
		<rect x="18.4" y="18" class="st0" width="37" height="37.3"/>
		<g>
			<polygon class="st1" points="50.5,32.9 47.7,32.9 47.6,32.9 47.5,33 45.5,37.1 43.5,33 43.4,32.9 43.3,32.9 40.6,32.9 40.4,32.9 
				40.4,33.1 40.4,34.5 40.4,34.8 40.6,34.8 41.1,34.8 41.1,40.7 40.6,40.7 40.3,40.7 40.3,41 40.3,42.4 40.3,42.6 40.6,42.6 
				43.6,42.6 43.8,42.6 43.8,42.4 43.8,41 43.8,40.7 43.6,40.7 43.1,40.7 43.1,36.5 45.3,41.1 45.5,41.6 45.7,41.1 48,36.5 48,40.7 
				47.5,40.7 47.2,40.7 47.2,41 47.2,42.4 47.2,42.6 47.5,42.6 50.5,42.6 50.7,42.6 50.7,42.4 50.7,41 50.7,40.7 50.5,40.7 50,40.7 
				50,34.8 50.5,34.8 50.7,34.8 50.7,34.5 50.7,33.1 50.7,32.9 			"/>
			<path class="st1" d="M33.2,40.7h-0.8l-2.6-6H30h0.3v-0.3v-1.4v-0.3H30h-3.6h-0.3v0.3v1.4v0.3h0.3h0.3l-2.6,6h-0.8h-0.3V41v1.4
				v0.3h0.3h3.3h0.3v-0.3V41v-0.3h-0.3h-0.3l0.4-1h3.1l0.4,1h-0.3h-0.3V41v1.4v0.3h0.3h3.3h0.3v-0.3V41v-0.3H33.2z M29,37.8h-1.4
				l0.7-1.7L29,37.8z"/>
			<polygon class="st1" points="47.3,25.4 26.4,25.4 26.1,25.4 26.1,25.7 26.1,31.3 26.1,31.6 26.4,31.6 30,31.6 30.3,31.6 
				30.3,31.3 30.3,29.2 34.8,29.2 34.8,43.9 32.7,43.9 32.4,43.9 32.4,44.2 32.4,47.8 32.4,48.1 32.7,48.1 41,48.1 41.3,48.1 
				41.3,47.8 41.3,44.2 41.3,43.9 41,43.9 39,43.9 39,29.2 43.4,29.2 43.4,31.3 43.4,31.5 43.7,31.5 47.3,31.5 47.6,31.5 47.6,31.3 
				47.6,25.7 47.6,25.4 			"/>
			<g>
				<polygon class="st2" points="39.6,45.6 40.5,44.7 40.5,47.2 39.6,46.4 				"/>
				<polygon class="st2" points="38.1,44.8 37.2,45.7 37.2,27.5 38.1,28.4 				"/>
				<polygon class="st2" points="27.9,27.2 27,26.3 46.3,26.3 45.2,27.2 				"/>
				<polygon class="st2" points="46.8,30.7 45.9,29.9 45.9,27.6 46.8,26.7 				"/>
			</g>
		</g>
		<path class="st0" d="M56.7,54.6c0-0.4,0.3-0.7,0.7-0.7c0.4,0,0.7,0.3,0.7,0.7c0,0.4-0.3,0.7-0.7,0.7C57,55.3,56.7,55,56.7,54.6z
			 M58,54.6c0-0.3-0.3-0.6-0.6-0.6c-0.3,0-0.6,0.3-0.6,0.6c0,0.3,0.3,0.6,0.6,0.6C57.7,55.1,58,54.9,58,54.6z M57.1,54.1h0.3
			c0.2,0,0.3,0.1,0.3,0.2c0,0.1-0.1,0.2-0.2,0.2l0.2,0.4h-0.2l-0.2-0.4h-0.1V55h-0.2V54.1z M57.3,54.5h0.1c0.1,0,0.2,0,0.2-0.1
			c0-0.1-0.1-0.1-0.2-0.1h-0.1V54.5z"/>
	</g>
	<g>
		<g>
			<path class="st1" d="M68,28.6h-0.9v-4.9h-1.7v-0.8h4.3v0.8H68V28.6z"/>
			<path class="st1" d="M74.2,28.6H71v-5.7h3.2v0.8h-2.3v1.6h2.2V26h-2.2v1.8h2.3V28.6z"/>
			<path class="st1" d="M80.1,28.6H79l-1.4-2.3l-1.4,2.3h-1l1.9-3l-1.8-2.8h1l1.3,2.2l1.3-2.2h1l-1.8,2.8L80.1,28.6z"/>
			<path class="st1" d="M84.8,28.6L84.2,27H82l-0.6,1.6h-1l2.1-5.7h1l2.1,5.7H84.8z M84,26.2l-0.5-1.6c0-0.1-0.1-0.3-0.2-0.5
				s-0.1-0.4-0.1-0.5c-0.1,0.3-0.2,0.7-0.3,1.1l-0.5,1.5H84z"/>
			<path class="st1" d="M90.2,27.1c0,0.5-0.2,0.9-0.6,1.2s-0.9,0.4-1.5,0.4s-1.2-0.1-1.6-0.3v-0.9c0.3,0.1,0.5,0.2,0.8,0.3
				s0.6,0.1,0.8,0.1c0.4,0,0.6-0.1,0.8-0.2s0.3-0.3,0.3-0.6c0-0.2-0.1-0.4-0.2-0.5s-0.5-0.3-1-0.5c-0.5-0.2-0.9-0.5-1.1-0.7
				s-0.3-0.6-0.3-1c0-0.5,0.2-0.9,0.5-1.1s0.8-0.4,1.4-0.4c0.5,0,1.1,0.1,1.6,0.4L89.8,24c-0.5-0.2-1-0.3-1.4-0.3
				c-0.3,0-0.5,0.1-0.7,0.2s-0.2,0.3-0.2,0.5c0,0.1,0,0.3,0.1,0.4s0.2,0.2,0.3,0.3s0.4,0.2,0.8,0.4c0.4,0.2,0.7,0.3,0.9,0.5
				s0.3,0.3,0.4,0.5S90.2,26.8,90.2,27.1z"/>
			<path class="st1" d="M97.8,28.6L97.2,27H95l-0.6,1.6h-1l2.1-5.7h1l2.1,5.7H97.8z M96.9,26.2l-0.5-1.6c0-0.1-0.1-0.3-0.2-0.5
				s-0.1-0.4-0.1-0.5c-0.1,0.3-0.2,0.7-0.3,1.1l-0.5,1.5H96.9z"/>
			<path class="st1" d="M99.5,27.1c0-0.3,0.1-0.6,0.2-0.9s0.5-0.5,0.9-0.8c-0.2-0.3-0.4-0.5-0.5-0.7s-0.1-0.4-0.1-0.6
				c0-0.4,0.1-0.7,0.4-0.9s0.7-0.3,1.1-0.3c0.5,0,0.8,0.1,1.1,0.3s0.4,0.5,0.4,0.9c0,0.3-0.1,0.6-0.3,0.8s-0.5,0.5-0.9,0.7l1.4,1.3
				c0.2-0.3,0.4-0.7,0.5-1.2h0.9c-0.2,0.7-0.5,1.3-0.9,1.8l1.2,1.1h-1.2l-0.6-0.6c-0.3,0.2-0.5,0.4-0.8,0.5s-0.6,0.2-1,0.2
				c-0.6,0-1.1-0.1-1.4-0.4S99.5,27.6,99.5,27.1z M101.5,27.9c0.5,0,0.9-0.1,1.2-0.4l-1.5-1.5c-0.3,0.2-0.5,0.3-0.6,0.5
				s-0.2,0.3-0.2,0.5c0,0.3,0.1,0.5,0.3,0.6S101.2,27.9,101.5,27.9z M100.9,24.1c0,0.2,0,0.3,0.1,0.5s0.2,0.3,0.4,0.5
				c0.3-0.2,0.5-0.3,0.6-0.5s0.2-0.3,0.2-0.5c0-0.2-0.1-0.3-0.2-0.4s-0.3-0.2-0.5-0.2c-0.2,0-0.4,0.1-0.5,0.2S100.9,24,100.9,24.1z"
				/>
			<path class="st1" d="M108.7,28.6l-1.7-4.8h0c0,0.7,0.1,1.4,0.1,2v2.8h-0.8v-5.7h1.3l1.6,4.5h0l1.6-4.5h1.3v5.7h-0.9v-2.8
				c0-0.3,0-0.7,0-1.1s0-0.7,0-0.8h0l-1.7,4.8H108.7z"/>
			<path class="st1" d="M121,22.9v3.7c0,0.4-0.1,0.8-0.3,1.1s-0.4,0.6-0.8,0.7s-0.8,0.3-1.2,0.3c-0.7,0-1.3-0.2-1.7-0.6
				s-0.6-0.9-0.6-1.5v-3.7h0.9v3.6c0,0.5,0.1,0.8,0.3,1s0.6,0.3,1,0.3c0.9,0,1.3-0.5,1.3-1.4v-3.6H121z"/>
			<path class="st1" d="M127.6,28.6h-1.1l-2.8-4.6h0l0,0.3c0,0.5,0.1,0.9,0.1,1.3v3h-0.8v-5.7h1.1l2.8,4.5h0c0-0.1,0-0.3,0-0.7
				s0-0.7,0-0.9v-3h0.9V28.6z"/>
			<path class="st1" d="M129.5,28.6v-5.7h0.9v5.7H129.5z"/>
			<path class="st1" d="M135.6,22.9h1l-2,5.7h-1l-2-5.7h1l1.2,3.6c0.1,0.2,0.1,0.4,0.2,0.7s0.1,0.5,0.1,0.6c0-0.2,0.1-0.4,0.2-0.7
				s0.1-0.5,0.2-0.6L135.6,22.9z"/>
			<path class="st1" d="M140.9,28.6h-3.2v-5.7h3.2v0.8h-2.3v1.6h2.2V26h-2.2v1.8h2.3V28.6z"/>
			<path class="st1" d="M143.5,26.3v2.3h-0.9v-5.7h1.6c0.7,0,1.3,0.1,1.6,0.4s0.5,0.7,0.5,1.2c0,0.7-0.4,1.2-1.1,1.5l1.6,2.5h-1.1
				l-1.4-2.3H143.5z M143.5,25.6h0.6c0.4,0,0.8-0.1,0.9-0.2s0.3-0.4,0.3-0.7c0-0.3-0.1-0.6-0.3-0.7s-0.5-0.2-1-0.2h-0.6V25.6z"/>
			<path class="st1" d="M151.4,27.1c0,0.5-0.2,0.9-0.6,1.2s-0.9,0.4-1.5,0.4s-1.2-0.1-1.6-0.3v-0.9c0.3,0.1,0.5,0.2,0.8,0.3
				s0.6,0.1,0.8,0.1c0.4,0,0.6-0.1,0.8-0.2s0.3-0.3,0.3-0.6c0-0.2-0.1-0.4-0.2-0.5s-0.5-0.3-1-0.5c-0.5-0.2-0.9-0.5-1.1-0.7
				s-0.3-0.6-0.3-1c0-0.5,0.2-0.9,0.5-1.1s0.8-0.4,1.4-0.4c0.5,0,1.1,0.1,1.6,0.4L151,24c-0.5-0.2-1-0.3-1.4-0.3
				c-0.3,0-0.5,0.1-0.7,0.2s-0.2,0.3-0.2,0.5c0,0.1,0,0.3,0.1,0.4s0.2,0.2,0.3,0.3s0.4,0.2,0.8,0.4c0.4,0.2,0.7,0.3,0.9,0.5
				s0.3,0.3,0.4,0.5S151.4,26.8,151.4,27.1z"/>
			<path class="st1" d="M152.9,28.6v-5.7h0.9v5.7H152.9z"/>
			<path class="st1" d="M157.7,28.6h-0.9v-4.9h-1.7v-0.8h4.3v0.8h-1.7V28.6z"/>
			<path class="st1" d="M162.3,25.5l1.4-2.6h1l-1.9,3.5v2.2h-0.9v-2.2l-1.9-3.5h1L162.3,25.5z"/>
		</g>
		<g>
			<path class="st1" d="M71.8,36.8c-1.3,0-2.2,0.4-3,1.3s-1.1,2-1.1,3.4c0,1.5,0.4,2.6,1.1,3.5c0.7,0.8,1.7,1.2,3,1.2
				c0.8,0,1.7-0.1,2.7-0.4v1.2c-0.8,0.3-1.8,0.4-2.9,0.4c-1.7,0-3-0.5-3.9-1.5c-0.9-1-1.4-2.5-1.4-4.4c0-1.2,0.2-2.2,0.7-3.1
				c0.4-0.9,1.1-1.6,1.9-2c0.8-0.5,1.8-0.7,2.9-0.7c1.2,0,2.2,0.2,3.1,0.7l-0.6,1.1C73.5,37,72.6,36.8,71.8,36.8z"/>
			<path class="st1" d="M84.2,42.9c0,1.4-0.4,2.5-1.1,3.3c-0.7,0.8-1.7,1.2-2.9,1.2c-0.8,0-1.4-0.2-2-0.5s-1.1-0.9-1.4-1.5
				c-0.3-0.7-0.5-1.5-0.5-2.4c0-1.4,0.3-2.5,1-3.3c0.7-0.8,1.7-1.2,2.9-1.2c1.2,0,2.1,0.4,2.9,1.2C83.8,40.5,84.2,41.6,84.2,42.9z
				 M77.7,42.9c0,1.1,0.2,1.9,0.7,2.5c0.4,0.6,1.1,0.9,1.9,0.9c0.8,0,1.5-0.3,1.9-0.9c0.4-0.6,0.7-1.4,0.7-2.5
				c0-1.1-0.2-1.9-0.7-2.5c-0.4-0.6-1.1-0.8-1.9-0.8c-0.8,0-1.5,0.3-1.9,0.8C77.9,41,77.7,41.8,77.7,42.9z"/>
			<path class="st1" d="M87.7,47.2h-1.3V35.1h1.3V47.2z"/>
			<path class="st1" d="M91.8,47.2h-1.3V35.1h1.3V47.2z"/>
			<path class="st1" d="M98.2,47.4c-1.3,0-2.3-0.4-3-1.2c-0.7-0.8-1.1-1.8-1.1-3.2c0-1.4,0.3-2.5,1-3.3s1.6-1.2,2.7-1.2
				c1.1,0,1.9,0.4,2.5,1.1c0.6,0.7,0.9,1.6,0.9,2.8v0.8h-5.9c0,1,0.3,1.8,0.8,2.3c0.5,0.5,1.2,0.8,2,0.8c0.9,0,1.8-0.2,2.7-0.6v1.2
				c-0.5,0.2-0.9,0.3-1.3,0.4C99.2,47.3,98.7,47.4,98.2,47.4z M97.8,39.6c-0.7,0-1.2,0.2-1.6,0.7c-0.4,0.4-0.6,1.1-0.7,1.9h4.5
				c0-0.8-0.2-1.4-0.5-1.9C99,39.8,98.5,39.6,97.8,39.6z"/>
			<path class="st1" d="M110.5,38.7v0.8l-1.6,0.2c0.1,0.2,0.3,0.4,0.4,0.7c0.1,0.3,0.2,0.6,0.2,1c0,0.8-0.3,1.5-0.9,2
				c-0.6,0.5-1.4,0.8-2.4,0.8c-0.3,0-0.5,0-0.7-0.1c-0.6,0.3-0.8,0.7-0.8,1.1c0,0.2,0.1,0.4,0.3,0.5c0.2,0.1,0.5,0.2,1,0.2h1.5
				c0.9,0,1.6,0.2,2.1,0.6c0.5,0.4,0.7,1,0.7,1.7c0,0.9-0.4,1.7-1.1,2.2c-0.8,0.5-1.9,0.7-3.3,0.7c-1.1,0-2-0.2-2.6-0.6
				c-0.6-0.4-0.9-1-0.9-1.8c0-0.5,0.2-1,0.5-1.4c0.3-0.4,0.8-0.6,1.4-0.8c-0.2-0.1-0.4-0.3-0.6-0.5c-0.1-0.2-0.2-0.5-0.2-0.7
				c0-0.3,0.1-0.6,0.2-0.8c0.2-0.2,0.4-0.5,0.8-0.7c-0.4-0.2-0.8-0.5-1.1-0.9c-0.3-0.4-0.4-0.9-0.4-1.5c0-0.9,0.3-1.7,0.8-2.2
				s1.4-0.8,2.4-0.8c0.4,0,0.9,0.1,1.2,0.2H110.5z M103.7,48.7c0,0.5,0.2,0.8,0.6,1.1c0.4,0.2,1,0.4,1.7,0.4c1.1,0,1.9-0.2,2.4-0.5
				c0.5-0.3,0.8-0.8,0.8-1.3c0-0.5-0.1-0.8-0.4-1c-0.3-0.2-0.8-0.3-1.6-0.3h-1.6c-0.6,0-1,0.1-1.4,0.4S103.7,48.1,103.7,48.7z
				 M104.4,41.4c0,0.6,0.2,1.1,0.5,1.4c0.3,0.3,0.8,0.5,1.4,0.5c1.3,0,1.9-0.6,1.9-1.8c0-1.3-0.6-1.9-1.9-1.9
				c-0.6,0-1.1,0.2-1.4,0.5S104.4,40.8,104.4,41.4z"/>
			<path class="st1" d="M115.9,47.4c-1.3,0-2.3-0.4-3-1.2c-0.7-0.8-1.1-1.8-1.1-3.2c0-1.4,0.3-2.5,1-3.3s1.6-1.2,2.7-1.2
				c1.1,0,1.9,0.4,2.5,1.1c0.6,0.7,0.9,1.6,0.9,2.8v0.8h-5.9c0,1,0.3,1.8,0.8,2.3c0.5,0.5,1.2,0.8,2,0.8c0.9,0,1.8-0.2,2.7-0.6v1.2
				c-0.5,0.2-0.9,0.3-1.3,0.4C117,47.3,116.5,47.4,115.9,47.4z M115.6,39.6c-0.7,0-1.2,0.2-1.6,0.7c-0.4,0.4-0.6,1.1-0.7,1.9h4.5
				c0-0.8-0.2-1.4-0.5-1.9C116.8,39.8,116.2,39.6,115.6,39.6z"/>
			<path class="st1" d="M132.8,42.9c0,1.4-0.4,2.5-1.1,3.3c-0.7,0.8-1.7,1.2-2.9,1.2c-0.8,0-1.4-0.2-2-0.5s-1.1-0.9-1.4-1.5
				c-0.3-0.7-0.5-1.5-0.5-2.4c0-1.4,0.3-2.5,1-3.3c0.7-0.8,1.7-1.2,2.9-1.2c1.2,0,2.1,0.4,2.9,1.2C132.5,40.5,132.8,41.6,132.8,42.9
				z M126.3,42.9c0,1.1,0.2,1.9,0.7,2.5c0.4,0.6,1.1,0.9,1.9,0.9c0.8,0,1.5-0.3,1.9-0.9c0.4-0.6,0.7-1.4,0.7-2.5
				c0-1.1-0.2-1.9-0.7-2.5c-0.4-0.6-1.1-0.8-1.9-0.8c-0.8,0-1.5,0.3-1.9,0.8C126.5,41,126.3,41.8,126.3,42.9z"/>
			<path class="st1" d="M138.9,39.7h-2.2v7.6h-1.3v-7.6h-1.5v-0.6l1.5-0.5v-0.5c0-2.1,0.9-3.2,2.8-3.2c0.5,0,1,0.1,1.6,0.3l-0.3,1
				c-0.5-0.2-0.9-0.2-1.3-0.2c-0.5,0-0.9,0.2-1.1,0.5c-0.2,0.3-0.4,0.8-0.4,1.6v0.6h2.2V39.7z"/>
			<path class="st1" d="M149.9,47.2L146,37.1H146c0.1,0.8,0.1,1.8,0.1,2.9v7.3h-1.2V35.8h2l3.6,9.4h0.1l3.6-9.4h2v11.4h-1.3v-7.4
				c0-0.8,0-1.8,0.1-2.8h-0.1L151,47.2H149.9z"/>
			<path class="st1" d="M162.7,47.4c-1.3,0-2.3-0.4-3-1.2c-0.7-0.8-1.1-1.8-1.1-3.2c0-1.4,0.3-2.5,1-3.3s1.6-1.2,2.7-1.2
				c1.1,0,1.9,0.4,2.5,1.1c0.6,0.7,0.9,1.6,0.9,2.8v0.8H160c0,1,0.3,1.8,0.8,2.3c0.5,0.5,1.2,0.8,2,0.8c0.9,0,1.8-0.2,2.7-0.6v1.2
				c-0.5,0.2-0.9,0.3-1.3,0.4C163.8,47.3,163.3,47.4,162.7,47.4z M162.4,39.6c-0.7,0-1.2,0.2-1.6,0.7c-0.4,0.4-0.6,1.1-0.7,1.9h4.5
				c0-0.8-0.2-1.4-0.5-1.9C163.6,39.8,163.1,39.6,162.4,39.6z"/>
			<path class="st1" d="M173.9,46.1L173.9,46.1c-0.7,0.9-1.6,1.3-2.8,1.3c-1.1,0-2-0.4-2.6-1.1c-0.6-0.8-0.9-1.9-0.9-3.3
				c0-1.4,0.3-2.5,0.9-3.3s1.5-1.2,2.6-1.2c1.2,0,2.1,0.4,2.7,1.3h0.1l-0.1-0.6l0-0.6v-3.5h1.3v12.2h-1.1L173.9,46.1z M171.3,46.3
				c0.9,0,1.5-0.2,1.9-0.7c0.4-0.5,0.6-1.3,0.6-2.3V43c0-1.2-0.2-2.1-0.6-2.6c-0.4-0.5-1-0.8-1.9-0.8c-0.8,0-1.3,0.3-1.7,0.9
				c-0.4,0.6-0.6,1.4-0.6,2.5c0,1.1,0.2,1.9,0.6,2.5C170,46,170.5,46.3,171.3,46.3z"/>
			<path class="st1" d="M177.8,36.3c0-0.3,0.1-0.5,0.2-0.7c0.1-0.1,0.3-0.2,0.5-0.2c0.2,0,0.4,0.1,0.5,0.2c0.2,0.1,0.2,0.4,0.2,0.6
				c0,0.3-0.1,0.5-0.2,0.7c-0.2,0.1-0.3,0.2-0.5,0.2c-0.2,0-0.4-0.1-0.5-0.2C177.9,36.8,177.8,36.6,177.8,36.3z M179.2,47.2h-1.3
				v-8.6h1.3V47.2z"/>
			<path class="st1" d="M185.4,47.4c-1.2,0-2.2-0.4-2.9-1.1c-0.7-0.8-1-1.8-1-3.2c0-1.4,0.3-2.5,1-3.3c0.7-0.8,1.7-1.2,2.9-1.2
				c0.4,0,0.8,0,1.2,0.1c0.4,0.1,0.7,0.2,1,0.3l-0.4,1.1c-0.3-0.1-0.6-0.2-0.9-0.3c-0.3-0.1-0.6-0.1-0.9-0.1c-1.7,0-2.6,1.1-2.6,3.3
				c0,1.1,0.2,1.9,0.6,2.4c0.4,0.6,1.1,0.8,1.9,0.8c0.7,0,1.4-0.2,2.2-0.5v1.1C186.9,47.2,186.2,47.4,185.4,47.4z"/>
			<path class="st1" d="M189.4,36.3c0-0.3,0.1-0.5,0.2-0.7c0.1-0.1,0.3-0.2,0.5-0.2c0.2,0,0.4,0.1,0.5,0.2c0.2,0.1,0.2,0.4,0.2,0.6
				c0,0.3-0.1,0.5-0.2,0.7c-0.2,0.1-0.3,0.2-0.5,0.2c-0.2,0-0.4-0.1-0.5-0.2C189.5,36.8,189.4,36.6,189.4,36.3z M190.9,47.2h-1.3
				v-8.6h1.3V47.2z"/>
			<path class="st1" d="M199.5,47.2v-5.5c0-0.7-0.2-1.2-0.5-1.6c-0.3-0.3-0.8-0.5-1.5-0.5c-0.9,0-1.6,0.2-2,0.7
				c-0.4,0.5-0.6,1.3-0.6,2.4v4.5h-1.3v-8.6h1.1l0.2,1.2h0.1c0.3-0.4,0.6-0.7,1.1-1c0.5-0.2,1-0.3,1.6-0.3c1,0,1.8,0.2,2.3,0.7
				c0.5,0.5,0.8,1.3,0.8,2.4v5.6H199.5z"/>
			<path class="st1" d="M207,47.4c-1.3,0-2.3-0.4-3-1.2c-0.7-0.8-1.1-1.8-1.1-3.2c0-1.4,0.3-2.5,1-3.3s1.6-1.2,2.7-1.2
				c1.1,0,1.9,0.4,2.5,1.1c0.6,0.7,0.9,1.6,0.9,2.8v0.8h-5.9c0,1,0.3,1.8,0.8,2.3c0.5,0.5,1.2,0.8,2,0.8c0.9,0,1.8-0.2,2.7-0.6v1.2
				c-0.5,0.2-0.9,0.3-1.3,0.4C208.1,47.3,207.6,47.4,207,47.4z M206.7,39.6c-0.7,0-1.2,0.2-1.6,0.7c-0.4,0.4-0.6,1.1-0.7,1.9h4.5
				c0-0.8-0.2-1.4-0.5-1.9C207.9,39.8,207.4,39.6,206.7,39.6z"/>
		</g>
	</g>
</g>
</svg>
