<?xml version="1.0" encoding="utf-8"?>
<!-- Generator: Adobe Illustrator 22.0.1, SVG Export Plug-In . SVG Version: 6.00 Build 0)  -->
<svg version="1.1" id="Layer_1" xmlns="http://www.w3.org/2000/svg" xmlns:xlink="http://www.w3.org/1999/xlink" x="0px" y="0px"
	 viewBox="0 0 179.9 115.1" style="enable-background:new 0 0 179.9 115.1;" xml:space="preserve">
<style type="text/css">
	.st0{fill:#FFFFFF;}
	.st1{fill:#500000;}
	.st2{fill:#A6A6A6;}
</style>
<g>
	<g>
		<path class="st0" d="M42.5,74.7h-0.9v-4.9h-1.7V69h4.3v0.8h-1.7V74.7z"/>
		<path class="st0" d="M48.7,74.7h-3.2V69h3.2v0.8h-2.3v1.6h2.2v0.8h-2.2v1.8h2.3V74.7z"/>
		<path class="st0" d="M54.5,74.7h-1.1L52,72.3l-1.4,2.3h-1l1.9-3L49.7,69h1l1.3,2.2l1.3-2.2h1l-1.8,2.8L54.5,74.7z"/>
		<path class="st0" d="M59.2,74.7l-0.6-1.6h-2.2l-0.6,1.6h-1l2.1-5.7h1l2.1,5.7H59.2z M58.4,72.3l-0.5-1.6c0-0.1-0.1-0.3-0.2-0.5
			c-0.1-0.2-0.1-0.4-0.1-0.5c-0.1,0.3-0.2,0.7-0.3,1.1l-0.5,1.5H58.4z"/>
		<path class="st0" d="M64.7,73.1c0,0.5-0.2,0.9-0.6,1.2c-0.4,0.3-0.9,0.4-1.5,0.4s-1.2-0.1-1.6-0.3v-0.9c0.3,0.1,0.5,0.2,0.8,0.3
			c0.3,0.1,0.6,0.1,0.8,0.1c0.4,0,0.6-0.1,0.8-0.2s0.3-0.3,0.3-0.6c0-0.2-0.1-0.4-0.2-0.5c-0.2-0.1-0.5-0.3-1-0.5
			c-0.5-0.2-0.9-0.5-1.1-0.7c-0.2-0.3-0.3-0.6-0.3-1c0-0.5,0.2-0.9,0.5-1.1c0.3-0.3,0.8-0.4,1.4-0.4c0.5,0,1.1,0.1,1.6,0.4L64.3,70
			c-0.5-0.2-1-0.3-1.4-0.3c-0.3,0-0.5,0.1-0.7,0.2C62.1,70,62,70.2,62,70.4c0,0.1,0,0.3,0.1,0.4s0.2,0.2,0.3,0.3s0.4,0.2,0.8,0.4
			c0.4,0.2,0.7,0.3,0.9,0.5c0.2,0.2,0.3,0.3,0.4,0.5C64.6,72.6,64.7,72.9,64.7,73.1z"/>
		<path class="st0" d="M72.2,74.7l-0.6-1.6h-2.2l-0.6,1.6h-1l2.1-5.7h1l2.1,5.7H72.2z M71.4,72.3l-0.5-1.6c0-0.1-0.1-0.3-0.2-0.5
			c-0.1-0.2-0.1-0.4-0.1-0.5c-0.1,0.3-0.2,0.7-0.3,1.1l-0.5,1.5H71.4z"/>
		<path class="st0" d="M74,73.2c0-0.3,0.1-0.6,0.2-0.9c0.2-0.3,0.5-0.5,0.9-0.8c-0.2-0.3-0.4-0.5-0.5-0.7c-0.1-0.2-0.1-0.4-0.1-0.6
			c0-0.4,0.1-0.7,0.4-0.9c0.3-0.2,0.7-0.3,1.1-0.3c0.5,0,0.8,0.1,1.1,0.3c0.3,0.2,0.4,0.5,0.4,0.9c0,0.3-0.1,0.6-0.3,0.8
			s-0.5,0.5-0.9,0.7l1.4,1.3c0.2-0.3,0.4-0.7,0.5-1.2h0.9c-0.2,0.7-0.5,1.3-0.9,1.8l1.2,1.1h-1.2l-0.6-0.6c-0.3,0.2-0.5,0.4-0.8,0.5
			c-0.3,0.1-0.6,0.2-1,0.2c-0.6,0-1.1-0.1-1.4-0.4C74.1,74,74,73.7,74,73.2z M75.9,74c0.5,0,0.9-0.1,1.2-0.4l-1.5-1.5
			c-0.3,0.2-0.5,0.3-0.6,0.5c-0.1,0.2-0.2,0.3-0.2,0.5c0,0.3,0.1,0.5,0.3,0.6C75.4,73.9,75.6,74,75.9,74z M75.4,70.2
			c0,0.2,0,0.3,0.1,0.5c0.1,0.1,0.2,0.3,0.4,0.5c0.3-0.2,0.5-0.3,0.6-0.5c0.1-0.1,0.2-0.3,0.2-0.5c0-0.2-0.1-0.3-0.2-0.4
			s-0.3-0.2-0.5-0.2c-0.2,0-0.4,0.1-0.5,0.2S75.4,70,75.4,70.2z"/>
		<path class="st0" d="M83.1,74.7l-1.7-4.8h0c0,0.7,0.1,1.4,0.1,2v2.8h-0.8V69H82l1.6,4.5h0l1.6-4.5h1.3v5.7h-0.9v-2.8
			c0-0.3,0-0.7,0-1.1c0-0.5,0-0.7,0-0.8h0L84,74.7H83.1z"/>
		<path class="st0" d="M95.4,69v3.7c0,0.4-0.1,0.8-0.3,1.1c-0.2,0.3-0.4,0.6-0.8,0.7c-0.3,0.2-0.8,0.3-1.2,0.3
			c-0.7,0-1.3-0.2-1.7-0.6c-0.4-0.4-0.6-0.9-0.6-1.5V69h0.9v3.6c0,0.5,0.1,0.8,0.3,1s0.6,0.3,1,0.3c0.9,0,1.3-0.5,1.3-1.4V69H95.4z"
			/>
		<path class="st0" d="M102,74.7h-1.1l-2.8-4.6h0l0,0.3c0,0.5,0.1,0.9,0.1,1.3v3h-0.8V69h1.1l2.8,4.5h0c0-0.1,0-0.3,0-0.7
			s0-0.7,0-0.9v-3h0.9V74.7z"/>
		<path class="st0" d="M104,74.7V69h0.9v5.7H104z"/>
		<path class="st0" d="M110.1,69h1l-2,5.7h-1l-2-5.7h1l1.2,3.6c0.1,0.2,0.1,0.4,0.2,0.7c0.1,0.3,0.1,0.5,0.1,0.6
			c0-0.2,0.1-0.4,0.2-0.7c0.1-0.3,0.1-0.5,0.2-0.6L110.1,69z"/>
		<path class="st0" d="M115.4,74.7h-3.2V69h3.2v0.8h-2.3v1.6h2.2v0.8h-2.2v1.8h2.3V74.7z"/>
		<path class="st0" d="M118,72.4v2.3H117V69h1.6c0.7,0,1.3,0.1,1.6,0.4c0.4,0.3,0.5,0.7,0.5,1.3c0,0.7-0.4,1.2-1.1,1.5l1.6,2.5h-1.1
			l-1.4-2.3H118z M118,71.6h0.6c0.4,0,0.8-0.1,0.9-0.2c0.2-0.2,0.3-0.4,0.3-0.7c0-0.3-0.1-0.6-0.3-0.7c-0.2-0.1-0.5-0.2-1-0.2H118
			V71.6z"/>
		<path class="st0" d="M125.9,73.1c0,0.5-0.2,0.9-0.6,1.2c-0.4,0.3-0.9,0.4-1.5,0.4s-1.2-0.1-1.6-0.3v-0.9c0.3,0.1,0.5,0.2,0.8,0.3
			c0.3,0.1,0.6,0.1,0.8,0.1c0.4,0,0.6-0.1,0.8-0.2s0.3-0.3,0.3-0.6c0-0.2-0.1-0.4-0.2-0.5c-0.2-0.1-0.5-0.3-1-0.5
			c-0.5-0.2-0.9-0.5-1.1-0.7c-0.2-0.3-0.3-0.6-0.3-1c0-0.5,0.2-0.9,0.5-1.1c0.3-0.3,0.8-0.4,1.4-0.4c0.5,0,1.1,0.1,1.6,0.4l-0.3,0.8
			c-0.5-0.2-1-0.3-1.4-0.3c-0.3,0-0.5,0.1-0.7,0.2c-0.2,0.1-0.2,0.3-0.2,0.5c0,0.1,0,0.3,0.1,0.4s0.2,0.2,0.3,0.3s0.4,0.2,0.8,0.4
			c0.4,0.2,0.7,0.3,0.9,0.5c0.2,0.2,0.3,0.3,0.4,0.5C125.8,72.6,125.9,72.9,125.9,73.1z"/>
		<path class="st0" d="M127.4,74.7V69h0.9v5.7H127.4z"/>
		<path class="st0" d="M132.2,74.7h-0.9v-4.9h-1.7V69h4.3v0.8h-1.7V74.7z"/>
		<path class="st0" d="M136.7,71.6l1.4-2.6h1l-1.9,3.5v2.2h-0.9v-2.2l-1.9-3.5h1L136.7,71.6z"/>
	</g>
	<g>
		<path class="st0" d="M23.2,82.9c-1.3,0-2.2,0.4-3,1.3s-1.1,2-1.1,3.4c0,1.5,0.4,2.6,1.1,3.5s1.7,1.2,3,1.2c0.8,0,1.7-0.1,2.7-0.4
			V93c-0.8,0.3-1.8,0.4-2.9,0.4c-1.7,0-3-0.5-3.9-1.5s-1.4-2.5-1.4-4.4c0-1.2,0.2-2.2,0.7-3.1s1.1-1.6,1.9-2s1.8-0.7,2.9-0.7
			c1.2,0,2.2,0.2,3.1,0.7l-0.6,1.1C25,83.1,24.1,82.9,23.2,82.9z"/>
		<path class="st0" d="M35.6,89c0,1.4-0.4,2.5-1.1,3.3s-1.7,1.2-2.9,1.2c-0.8,0-1.4-0.2-2-0.5s-1.1-0.9-1.4-1.5s-0.5-1.5-0.5-2.4
			c0-1.4,0.3-2.5,1-3.3s1.7-1.2,2.9-1.2c1.2,0,2.1,0.4,2.9,1.2S35.6,87.6,35.6,89z M29.1,89c0,1.1,0.2,1.9,0.7,2.5s1.1,0.9,1.9,0.9
			c0.8,0,1.5-0.3,1.9-0.9s0.7-1.4,0.7-2.5c0-1.1-0.2-1.9-0.7-2.5s-1.1-0.8-1.9-0.8c-0.8,0-1.5,0.3-1.9,0.8S29.1,87.9,29.1,89z"/>
		<path class="st0" d="M39.2,93.3h-1.3V81.1h1.3V93.3z"/>
		<path class="st0" d="M43.3,93.3H42V81.1h1.3V93.3z"/>
		<path class="st0" d="M49.6,93.4c-1.3,0-2.3-0.4-3-1.2s-1.1-1.8-1.1-3.2c0-1.4,0.3-2.5,1-3.3s1.6-1.2,2.7-1.2
			c1.1,0,1.9,0.4,2.5,1.1s0.9,1.6,0.9,2.8v0.8h-5.9c0,1,0.3,1.8,0.8,2.3s1.2,0.8,2,0.8c0.9,0,1.8-0.2,2.7-0.6v1.2
			c-0.5,0.2-0.9,0.3-1.3,0.4S50.2,93.4,49.6,93.4z M49.3,85.6c-0.7,0-1.2,0.2-1.6,0.7s-0.6,1.1-0.7,1.9h4.5c0-0.8-0.2-1.4-0.5-1.9
			S50,85.6,49.3,85.6z"/>
		<path class="st0" d="M62,84.7v0.8l-1.6,0.2c0.1,0.2,0.3,0.4,0.4,0.7s0.2,0.6,0.2,1c0,0.8-0.3,1.5-0.9,2s-1.4,0.8-2.4,0.8
			c-0.3,0-0.5,0-0.7-0.1c-0.6,0.3-0.8,0.7-0.8,1.1c0,0.2,0.1,0.4,0.3,0.5s0.5,0.2,1,0.2H59c0.9,0,1.6,0.2,2.1,0.6s0.7,1,0.7,1.7
			c0,0.9-0.4,1.7-1.1,2.2s-1.9,0.7-3.3,0.7c-1.1,0-2-0.2-2.6-0.6s-0.9-1-0.9-1.8c0-0.5,0.2-1,0.5-1.4s0.8-0.6,1.4-0.8
			c-0.2-0.1-0.4-0.3-0.6-0.5s-0.2-0.5-0.2-0.7c0-0.3,0.1-0.6,0.2-0.8s0.4-0.5,0.8-0.7c-0.4-0.2-0.8-0.5-1.1-0.9s-0.4-0.9-0.4-1.5
			c0-0.9,0.3-1.7,0.8-2.2s1.4-0.8,2.4-0.8c0.4,0,0.9,0.1,1.2,0.2H62z M55.2,94.7c0,0.5,0.2,0.8,0.6,1.1s1,0.4,1.7,0.4
			c1.1,0,1.9-0.2,2.4-0.5s0.8-0.8,0.8-1.3c0-0.5-0.1-0.8-0.4-1s-0.8-0.3-1.6-0.3H57c-0.6,0-1,0.1-1.4,0.4S55.2,94.2,55.2,94.7z
			 M55.9,87.4c0,0.6,0.2,1.1,0.5,1.4s0.8,0.5,1.4,0.5c1.3,0,1.9-0.6,1.9-1.8c0-1.3-0.6-1.9-1.9-1.9c-0.6,0-1.1,0.2-1.4,0.5
			S55.9,86.8,55.9,87.4z"/>
		<path class="st0" d="M67.4,93.4c-1.3,0-2.3-0.4-3-1.2c-0.7-0.8-1.1-1.8-1.1-3.2c0-1.4,0.3-2.5,1-3.3c0.7-0.8,1.6-1.2,2.7-1.2
			c1.1,0,1.9,0.4,2.5,1.1s0.9,1.6,0.9,2.8v0.8h-5.9c0,1,0.3,1.8,0.8,2.3s1.2,0.8,2,0.8c0.9,0,1.8-0.2,2.7-0.6v1.2
			c-0.5,0.2-0.9,0.3-1.3,0.4S68,93.4,67.4,93.4z M67,85.6c-0.7,0-1.2,0.2-1.6,0.7s-0.6,1.1-0.7,1.9h4.5c0-0.8-0.2-1.4-0.5-1.9
			S67.7,85.6,67,85.6z"/>
		<path class="st0" d="M84.3,89c0,1.4-0.4,2.5-1.1,3.3s-1.7,1.2-2.9,1.2c-0.8,0-1.4-0.2-2-0.5s-1.1-0.9-1.4-1.5s-0.5-1.5-0.5-2.4
			c0-1.4,0.3-2.5,1-3.3s1.7-1.2,2.9-1.2c1.2,0,2.1,0.4,2.9,1.2S84.3,87.6,84.3,89z M77.8,89c0,1.1,0.2,1.9,0.7,2.5s1.1,0.9,1.9,0.9
			s1.5-0.3,1.9-0.9s0.7-1.4,0.7-2.5c0-1.1-0.2-1.9-0.7-2.5s-1.1-0.8-1.9-0.8c-0.8,0-1.5,0.3-1.9,0.8S77.8,87.9,77.8,89z"/>
		<path class="st0" d="M90.4,85.7h-2.2v7.6h-1.3v-7.6h-1.5v-0.6l1.5-0.5v-0.5c0-2.1,0.9-3.2,2.8-3.2c0.5,0,1,0.1,1.6,0.3l-0.3,1
			c-0.5-0.2-0.9-0.2-1.3-0.2c-0.5,0-0.9,0.2-1.1,0.5s-0.4,0.8-0.4,1.6v0.6h2.2V85.7z"/>
		<path class="st0" d="M101.4,93.3l-3.9-10.1h-0.1c0.1,0.8,0.1,1.8,0.1,2.9v7.3h-1.2V81.8h2l3.6,9.4h0.1l3.6-9.4h2v11.4h-1.3v-7.4
			c0-0.8,0-1.8,0.1-2.8h-0.1l-3.9,10.1H101.4z"/>
		<path class="st0" d="M114.2,93.4c-1.3,0-2.3-0.4-3-1.2s-1.1-1.8-1.1-3.2c0-1.4,0.3-2.5,1-3.3s1.6-1.2,2.7-1.2
			c1.1,0,1.9,0.4,2.5,1.1s0.9,1.6,0.9,2.8v0.8h-5.9c0,1,0.3,1.8,0.8,2.3s1.2,0.8,2,0.8c0.9,0,1.8-0.2,2.7-0.6v1.2
			c-0.5,0.2-0.9,0.3-1.3,0.4S114.8,93.4,114.2,93.4z M113.8,85.6c-0.7,0-1.2,0.2-1.6,0.7s-0.6,1.1-0.7,1.9h4.5
			c0-0.8-0.2-1.4-0.5-1.9S114.5,85.6,113.8,85.6z"/>
		<path class="st0" d="M125.4,92.1L125.4,92.1c-0.7,0.9-1.6,1.3-2.8,1.3c-1.1,0-2-0.4-2.6-1.1s-0.9-1.9-0.9-3.3s0.3-2.5,0.9-3.3
			s1.5-1.2,2.6-1.2c1.2,0,2.1,0.4,2.7,1.3h0.1l-0.1-0.6l0-0.6v-3.5h1.3v12.2h-1.1L125.4,92.1z M122.8,92.3c0.9,0,1.5-0.2,1.9-0.7
			s0.6-1.3,0.6-2.3V89c0-1.2-0.2-2.1-0.6-2.6s-1-0.8-1.9-0.8c-0.8,0-1.3,0.3-1.7,0.9s-0.6,1.4-0.6,2.5c0,1.1,0.2,1.9,0.6,2.5
			S122,92.3,122.8,92.3z"/>
		<path class="st0" d="M129.2,82.4c0-0.3,0.1-0.5,0.2-0.7s0.3-0.2,0.5-0.2c0.2,0,0.4,0.1,0.5,0.2s0.2,0.4,0.2,0.6s-0.1,0.5-0.2,0.7
			s-0.3,0.2-0.5,0.2c-0.2,0-0.4-0.1-0.5-0.2S129.2,82.7,129.2,82.4z M130.7,93.3h-1.3v-8.6h1.3V93.3z"/>
		<path class="st0" d="M136.8,93.4c-1.2,0-2.2-0.4-2.9-1.1s-1-1.8-1-3.2c0-1.4,0.3-2.5,1-3.3s1.7-1.2,2.9-1.2c0.4,0,0.8,0,1.2,0.1
			s0.7,0.2,1,0.3l-0.4,1.1c-0.3-0.1-0.6-0.2-0.9-0.3s-0.6-0.1-0.9-0.1c-1.7,0-2.6,1.1-2.6,3.3c0,1.1,0.2,1.9,0.6,2.4
			s1.1,0.8,1.9,0.8c0.7,0,1.4-0.2,2.2-0.5V93C138.4,93.3,137.7,93.4,136.8,93.4z"/>
		<path class="st0" d="M140.9,82.4c0-0.3,0.1-0.5,0.2-0.7s0.3-0.2,0.5-0.2c0.2,0,0.4,0.1,0.5,0.2s0.2,0.4,0.2,0.6s-0.1,0.5-0.2,0.7
			s-0.3,0.2-0.5,0.2c-0.2,0-0.4-0.1-0.5-0.2S140.9,82.7,140.9,82.4z M142.3,93.3H141v-8.6h1.3V93.3z"/>
		<path class="st0" d="M150.9,93.3v-5.5c0-0.7-0.2-1.2-0.5-1.6s-0.8-0.5-1.5-0.5c-0.9,0-1.6,0.2-2,0.7s-0.6,1.3-0.6,2.4v4.5h-1.3
			v-8.6h1.1l0.2,1.2h0.1c0.3-0.4,0.6-0.7,1.1-1s1-0.3,1.6-0.3c1,0,1.8,0.2,2.3,0.7s0.8,1.3,0.8,2.4v5.6H150.9z"/>
		<path class="st0" d="M158.5,93.4c-1.3,0-2.3-0.4-3-1.2s-1.1-1.8-1.1-3.2c0-1.4,0.3-2.5,1-3.3s1.6-1.2,2.7-1.2
			c1.1,0,1.9,0.4,2.5,1.1s0.9,1.6,0.9,2.8v0.8h-5.9c0,1,0.3,1.8,0.8,2.3s1.2,0.8,2,0.8c0.9,0,1.8-0.2,2.7-0.6v1.2
			c-0.5,0.2-0.9,0.3-1.3,0.4S159.1,93.4,158.5,93.4z M158.2,85.6c-0.7,0-1.2,0.2-1.6,0.7s-0.6,1.1-0.7,1.9h4.5
			c0-0.8-0.2-1.4-0.5-1.9S158.8,85.6,158.2,85.6z"/>
	</g>
	<g>
		<rect x="71" y="17.7" class="st1" width="37.3" height="37.6"/>
		<g>
			<polygon class="st0" points="103.3,32.7 100.6,32.7 100.4,32.7 100.3,32.8 98.3,37 96.3,32.8 96.2,32.7 96.1,32.7 93.4,32.7 
				93.1,32.7 93.1,32.9 93.1,34.4 93.1,34.6 93.4,34.6 93.9,34.6 93.9,40.6 93.4,40.6 93.1,40.6 93.1,40.9 93.1,42.3 93.1,42.5 
				93.4,42.5 96.4,42.5 96.6,42.5 96.6,42.3 96.6,40.9 96.6,40.6 96.4,40.6 95.8,40.6 95.8,36.4 98.1,41 98.3,41.5 98.6,41 
				100.8,36.3 100.8,40.6 100.3,40.6 100.1,40.6 100.1,40.9 100.1,42.3 100.1,42.5 100.3,42.5 103.3,42.5 103.6,42.5 103.6,42.3 
				103.6,40.9 103.6,40.6 103.3,40.6 102.8,40.6 102.8,34.6 103.3,34.6 103.6,34.6 103.6,34.4 103.6,32.9 103.6,32.7 			"/>
			<path class="st0" d="M85.9,40.6h-0.8l-2.6-6h0.2H83v-0.3v-1.4v-0.3h-0.3h-3.7h-0.3v0.3v1.4v0.3h0.3h0.3l-2.6,6h-0.8h-0.3v0.3v1.4
				v0.3h0.3h3.3h0.3v-0.3v-1.4v-0.3h-0.3h-0.3l0.4-1h3.1l0.4,1h-0.3h-0.3v0.3v1.4v0.3h0.3h3.3h0.3v-0.3v-1.4v-0.3H85.9z M81.7,37.7
				h-1.5l0.7-1.7L81.7,37.7z"/>
			<polygon class="st0" points="100.1,25.2 79.1,25.2 78.8,25.2 78.8,25.5 78.8,31.1 78.8,31.4 79.1,31.4 82.7,31.4 83,31.4 
				83,31.1 83,29 87.5,29 87.5,43.8 85.4,43.8 85.1,43.8 85.1,44.1 85.1,47.8 85.1,48.1 85.4,48.1 93.8,48.1 94.1,48.1 94.1,47.8 
				94.1,44.1 94.1,43.8 93.8,43.8 91.7,43.8 91.7,29 96.2,29 96.2,31.1 96.2,31.4 96.5,31.4 100.1,31.4 100.4,31.4 100.4,31.1 
				100.4,25.5 100.4,25.2 			"/>
			<g>
				<polygon class="st2" points="92.3,45.6 93.2,44.7 93.2,47.2 92.3,46.3 				"/>
				<polygon class="st2" points="90.9,44.7 90,45.6 90,27.3 90.9,28.1 				"/>
				<polygon class="st2" points="80.6,26.9 79.6,26 99.1,26 98,26.9 				"/>
				<polygon class="st2" points="99.6,30.5 98.7,29.7 98.7,27.4 99.6,26.5 				"/>
			</g>
		</g>
	</g>
	<path class="st1" d="M109.8,54.6c0-0.4,0.3-0.7,0.7-0.7c0.4,0,0.7,0.3,0.7,0.7c0,0.4-0.3,0.7-0.7,0.7
		C110.2,55.3,109.8,55,109.8,54.6z M111.2,54.6c0-0.3-0.3-0.6-0.6-0.6c-0.3,0-0.6,0.3-0.6,0.6c0,0.3,0.3,0.6,0.6,0.6
		C110.9,55.2,111.2,54.9,111.2,54.6z M110.3,54.1h0.3c0.2,0,0.3,0.1,0.3,0.2c0,0.1-0.1,0.2-0.2,0.2l0.2,0.4h-0.2l-0.2-0.4h-0.1V55
		h-0.2V54.1z M110.5,54.5h0.1c0.1,0,0.2,0,0.2-0.1c0-0.1-0.1-0.1-0.2-0.1h-0.1V54.5z"/>
</g>
</svg>
