<?xml version="1.0" encoding="utf-8"?>
<!-- Generator: Adobe Illustrator 22.0.1, SVG Export Plug-In . SVG Version: 6.00 Build 0)  -->
<svg version="1.1" id="Layer_1" xmlns="http://www.w3.org/2000/svg" xmlns:xlink="http://www.w3.org/1999/xlink" x="0px" y="0px"
	 viewBox="0 0 227.7 73.4" style="enable-background:new 0 0 227.7 73.4;" xml:space="preserve">
<style type="text/css">
	.st0{fill:#FFFFFF;}
	.st1{fill:#A6A6A6;}
</style>
<g>
	<g>
		<rect x="18" y="18.6" width="37" height="37.3"/>
		<g>
			<polygon class="st0" points="50.1,33.4 47.3,33.4 47.2,33.4 47.1,33.6 45.1,37.7 43.1,33.6 43.1,33.4 42.9,33.4 40.2,33.4 
				40,33.4 40,33.7 40,35.1 40,35.3 40.2,35.3 40.7,35.3 40.7,41.3 40.2,41.3 40,41.3 40,41.5 40,42.9 40,43.2 40.2,43.2 43.2,43.2 
				43.4,43.2 43.4,42.9 43.4,41.5 43.4,41.3 43.2,41.3 42.7,41.3 42.7,37.1 44.9,41.6 45.1,42.1 45.4,41.6 47.6,37 47.6,41.3 
				47.1,41.3 46.9,41.3 46.9,41.5 46.9,42.9 46.9,43.2 47.1,43.2 50.1,43.2 50.3,43.2 50.3,42.9 50.3,41.5 50.3,41.3 50.1,41.3 
				49.6,41.3 49.6,35.3 50.1,35.3 50.3,35.3 50.3,35.1 50.3,33.7 50.3,33.4 			"/>
			<path class="st0" d="M32.8,41.3H32l-2.6-6h0.2h0.3v-0.3v-1.4v-0.3h-0.3H26h-0.3v0.3v1.4v0.3H26h0.3l-2.6,6h-0.8h-0.3v0.3v1.4v0.3
				h0.3h3.3h0.3v-0.3v-1.4v-0.3h-0.3h-0.3l0.4-1h3.1l0.4,1h-0.3h-0.3v0.3v1.4v0.3h0.3h3.3H33v-0.3v-1.4v-0.3H32.8z M28.6,38.4h-1.4
				l0.7-1.7L28.6,38.4z"/>
			<polygon class="st0" points="46.9,26 26,26 25.7,26 25.7,26.3 25.7,31.8 25.7,32.1 26,32.1 29.6,32.1 29.9,32.1 29.9,31.8 
				29.9,29.8 34.4,29.8 34.4,44.5 32.3,44.5 32,44.5 32,44.8 32,48.4 32,48.7 32.3,48.7 40.7,48.7 40.9,48.7 40.9,48.4 40.9,44.8 
				40.9,44.5 40.7,44.5 38.6,44.5 38.6,29.8 43,29.8 43,31.8 43,32.1 43.3,32.1 46.9,32.1 47.2,32.1 47.2,31.8 47.2,26.3 47.2,26 
							"/>
			<g>
				<polygon class="st1" points="39.2,46.2 40.1,45.3 40.1,47.8 39.2,46.9 				"/>
				<polygon class="st1" points="37.7,45.4 36.8,46.2 36.8,28 37.7,28.9 				"/>
				<polygon class="st1" points="27.5,27.7 26.6,26.8 45.9,26.8 44.8,27.7 				"/>
				<polygon class="st1" points="46.4,31.3 45.5,30.5 45.5,28.2 46.4,27.3 				"/>
			</g>
		</g>
		<path d="M56.3,55.1c0-0.4,0.3-0.7,0.7-0.7c0.4,0,0.7,0.3,0.7,0.7c0,0.4-0.3,0.7-0.7,0.7C56.6,55.8,56.3,55.5,56.3,55.1z
			 M57.6,55.1c0-0.3-0.3-0.6-0.6-0.6c-0.3,0-0.6,0.3-0.6,0.6c0,0.3,0.3,0.6,0.6,0.6C57.4,55.7,57.6,55.5,57.6,55.1z M56.8,54.7h0.3
			c0.2,0,0.3,0.1,0.3,0.2c0,0.1-0.1,0.2-0.2,0.2l0.2,0.4h-0.2L57,55.2h-0.1v0.4h-0.2V54.7z M56.9,55h0.1c0.1,0,0.2,0,0.2-0.1
			c0-0.1-0.1-0.1-0.2-0.1h-0.1V55z"/>
	</g>
	<g>
		<g>
			<path class="st0" d="M67.7,29.2h-0.9v-4.9h-1.7v-0.8h4.3v0.8h-1.7V29.2z"/>
			<path class="st0" d="M73.9,29.2h-3.2v-5.7h3.2v0.8h-2.3v1.6h2.2v0.8h-2.2v1.8h2.3V29.2z"/>
			<path class="st0" d="M79.7,29.2h-1.1l-1.4-2.3l-1.4,2.3h-1l1.9-3l-1.8-2.8h1l1.3,2.2l1.3-2.2h1l-1.8,2.8L79.7,29.2z"/>
			<path class="st0" d="M84.4,29.2l-0.6-1.6h-2.2l-0.6,1.6h-1l2.1-5.7h1l2.1,5.7H84.4z M83.6,26.8l-0.5-1.6c0-0.1-0.1-0.3-0.2-0.5
				c-0.1-0.2-0.1-0.4-0.1-0.5c-0.1,0.3-0.2,0.7-0.3,1.1l-0.5,1.5H83.6z"/>
			<path class="st0" d="M89.8,27.6c0,0.5-0.2,0.9-0.6,1.2s-0.9,0.4-1.5,0.4c-0.6,0-1.2-0.1-1.6-0.3v-0.9c0.3,0.1,0.5,0.2,0.8,0.3
				s0.6,0.1,0.8,0.1c0.4,0,0.6-0.1,0.8-0.2s0.3-0.3,0.3-0.6c0-0.2-0.1-0.4-0.2-0.5c-0.2-0.1-0.5-0.3-1-0.5c-0.5-0.2-0.9-0.5-1.1-0.7
				c-0.2-0.3-0.3-0.6-0.3-1c0-0.5,0.2-0.9,0.5-1.1c0.3-0.3,0.8-0.4,1.4-0.4c0.5,0,1.1,0.1,1.6,0.4l-0.3,0.8c-0.5-0.2-1-0.3-1.4-0.3
				c-0.3,0-0.5,0.1-0.7,0.2s-0.2,0.3-0.2,0.5c0,0.1,0,0.3,0.1,0.4s0.2,0.2,0.3,0.3c0.1,0.1,0.4,0.2,0.8,0.4c0.4,0.2,0.7,0.3,0.9,0.5
				s0.3,0.3,0.4,0.5C89.8,27.1,89.8,27.4,89.8,27.6z"/>
			<path class="st0" d="M97.4,29.2l-0.6-1.6h-2.2l-0.6,1.6h-1l2.1-5.7h1l2.1,5.7H97.4z M96.6,26.8L96,25.2c0-0.1-0.1-0.3-0.2-0.5
				c-0.1-0.2-0.1-0.4-0.1-0.5c-0.1,0.3-0.2,0.7-0.3,1.1l-0.5,1.5H96.6z"/>
			<path class="st0" d="M99.1,27.7c0-0.3,0.1-0.6,0.2-0.9c0.2-0.3,0.5-0.5,0.9-0.8c-0.2-0.3-0.4-0.5-0.5-0.7s-0.1-0.4-0.1-0.6
				c0-0.4,0.1-0.7,0.4-0.9c0.3-0.2,0.7-0.3,1.1-0.3c0.5,0,0.8,0.1,1.1,0.3c0.3,0.2,0.4,0.5,0.4,0.9c0,0.3-0.1,0.6-0.3,0.8
				s-0.5,0.5-0.9,0.7l1.4,1.3c0.2-0.3,0.4-0.7,0.5-1.2h0.9c-0.2,0.7-0.5,1.3-0.9,1.8l1.2,1.1h-1.2l-0.6-0.6
				c-0.3,0.2-0.5,0.4-0.8,0.5s-0.6,0.2-1,0.2c-0.6,0-1.1-0.1-1.4-0.4C99.3,28.5,99.1,28.2,99.1,27.7z M101.1,28.5
				c0.5,0,0.9-0.1,1.2-0.4l-1.5-1.5c-0.3,0.2-0.5,0.3-0.6,0.5c-0.1,0.2-0.2,0.3-0.2,0.5c0,0.3,0.1,0.5,0.3,0.6
				C100.6,28.4,100.8,28.5,101.1,28.5z M100.5,24.7c0,0.2,0,0.3,0.1,0.5c0.1,0.1,0.2,0.3,0.4,0.5c0.3-0.2,0.5-0.3,0.6-0.5
				c0.1-0.1,0.2-0.3,0.2-0.5c0-0.2-0.1-0.3-0.2-0.4s-0.3-0.2-0.5-0.2c-0.2,0-0.4,0.1-0.5,0.2S100.5,24.5,100.5,24.7z"/>
			<path class="st0" d="M108.3,29.2l-1.7-4.8h0c0,0.7,0.1,1.4,0.1,2v2.8h-0.8v-5.7h1.3l1.6,4.5h0l1.6-4.5h1.3v5.7h-0.9v-2.8
				c0-0.3,0-0.7,0-1.1c0-0.5,0-0.7,0-0.8h0l-1.7,4.8H108.3z"/>
			<path class="st0" d="M120.6,23.5v3.7c0,0.4-0.1,0.8-0.3,1.1c-0.2,0.3-0.4,0.6-0.8,0.7c-0.3,0.2-0.8,0.3-1.2,0.3
				c-0.7,0-1.3-0.2-1.7-0.6c-0.4-0.4-0.6-0.9-0.6-1.5v-3.7h0.9v3.6c0,0.5,0.1,0.8,0.3,1s0.6,0.3,1,0.3c0.9,0,1.3-0.5,1.3-1.4v-3.6
				H120.6z"/>
			<path class="st0" d="M127.2,29.2h-1.1l-2.8-4.6h0l0,0.3c0,0.5,0.1,0.9,0.1,1.3v3h-0.8v-5.7h1.1l2.8,4.5h0c0-0.1,0-0.3,0-0.7
				s0-0.7,0-0.9v-3h0.9V29.2z"/>
			<path class="st0" d="M129.1,29.2v-5.7h0.9v5.7H129.1z"/>
			<path class="st0" d="M135.2,23.5h1l-2,5.7h-1l-2-5.7h1l1.2,3.6c0.1,0.2,0.1,0.4,0.2,0.7s0.1,0.5,0.1,0.6c0-0.2,0.1-0.4,0.2-0.7
				s0.1-0.5,0.2-0.6L135.2,23.5z"/>
			<path class="st0" d="M140.6,29.2h-3.2v-5.7h3.2v0.8h-2.3v1.6h2.2v0.8h-2.2v1.8h2.3V29.2z"/>
			<path class="st0" d="M143.1,26.9v2.3h-0.9v-5.7h1.6c0.7,0,1.3,0.1,1.6,0.4c0.4,0.3,0.5,0.7,0.5,1.2c0,0.7-0.4,1.2-1.1,1.5
				l1.6,2.5h-1.1l-1.4-2.3H143.1z M143.1,26.1h0.6c0.4,0,0.8-0.1,0.9-0.2s0.3-0.4,0.3-0.7c0-0.3-0.1-0.6-0.3-0.7s-0.5-0.2-1-0.2
				h-0.6V26.1z"/>
			<path class="st0" d="M151,27.6c0,0.5-0.2,0.9-0.6,1.2s-0.9,0.4-1.5,0.4c-0.6,0-1.2-0.1-1.6-0.3v-0.9c0.3,0.1,0.5,0.2,0.8,0.3
				s0.6,0.1,0.8,0.1c0.4,0,0.6-0.1,0.8-0.2s0.3-0.3,0.3-0.6c0-0.2-0.1-0.4-0.2-0.5c-0.2-0.1-0.5-0.3-1-0.5c-0.5-0.2-0.9-0.5-1.1-0.7
				c-0.2-0.3-0.3-0.6-0.3-1c0-0.5,0.2-0.9,0.5-1.1c0.3-0.3,0.8-0.4,1.4-0.4c0.5,0,1.1,0.1,1.6,0.4l-0.3,0.8c-0.5-0.2-1-0.3-1.4-0.3
				c-0.3,0-0.5,0.1-0.7,0.2s-0.2,0.3-0.2,0.5c0,0.1,0,0.3,0.1,0.4s0.2,0.2,0.3,0.3c0.1,0.1,0.4,0.2,0.8,0.4c0.4,0.2,0.7,0.3,0.9,0.5
				s0.3,0.3,0.4,0.5C150.9,27.1,151,27.4,151,27.6z"/>
			<path class="st0" d="M152.5,29.2v-5.7h0.9v5.7H152.5z"/>
			<path class="st0" d="M157.3,29.2h-0.9v-4.9h-1.7v-0.8h4.3v0.8h-1.7V29.2z"/>
			<path class="st0" d="M161.9,26.1l1.4-2.6h1l-1.9,3.5v2.2h-0.9V27l-1.9-3.5h1L161.9,26.1z"/>
		</g>
		<g>
			<path class="st0" d="M71.4,37.4c-1.3,0-2.2,0.4-3,1.3s-1.1,2-1.1,3.4c0,1.5,0.3,2.6,1.1,3.5c0.7,0.8,1.7,1.2,3,1.2
				c0.8,0,1.7-0.1,2.7-0.4v1.2c-0.8,0.3-1.8,0.4-2.9,0.4c-1.7,0-3-0.5-3.9-1.5s-1.4-2.5-1.4-4.4c0-1.2,0.2-2.2,0.7-3.1
				c0.4-0.9,1.1-1.6,1.9-2c0.8-0.5,1.8-0.7,2.9-0.7c1.2,0,2.2,0.2,3.1,0.7L74,38C73.1,37.6,72.3,37.4,71.4,37.4z"/>
			<path class="st0" d="M83.8,43.5c0,1.4-0.4,2.5-1.1,3.3s-1.7,1.2-2.9,1.2c-0.8,0-1.4-0.2-2-0.5s-1.1-0.9-1.4-1.5
				c-0.3-0.7-0.5-1.5-0.5-2.4c0-1.4,0.3-2.5,1-3.3c0.7-0.8,1.7-1.2,2.9-1.2c1.2,0,2.1,0.4,2.9,1.2C83.4,41.1,83.8,42.1,83.8,43.5z
				 M77.3,43.5c0,1.1,0.2,1.9,0.7,2.5s1.1,0.9,1.9,0.9c0.8,0,1.5-0.3,1.9-0.9c0.4-0.6,0.7-1.4,0.7-2.5c0-1.1-0.2-1.9-0.7-2.5
				c-0.4-0.6-1.1-0.8-1.9-0.8c-0.8,0-1.5,0.3-1.9,0.8C77.5,41.6,77.3,42.4,77.3,43.5z"/>
			<path class="st0" d="M87.4,47.8h-1.3V35.6h1.3V47.8z"/>
			<path class="st0" d="M91.4,47.8h-1.3V35.6h1.3V47.8z"/>
			<path class="st0" d="M97.8,47.9c-1.3,0-2.3-0.4-3-1.2c-0.7-0.8-1.1-1.8-1.1-3.2c0-1.4,0.3-2.5,1-3.3s1.6-1.2,2.7-1.2
				c1.1,0,1.9,0.4,2.5,1.1s0.9,1.6,0.9,2.8v0.8H95c0,1,0.3,1.8,0.8,2.3c0.5,0.5,1.2,0.8,2,0.8c0.9,0,1.8-0.2,2.7-0.6v1.2
				c-0.5,0.2-0.9,0.3-1.3,0.4C98.9,47.9,98.4,47.9,97.8,47.9z M97.4,40.1c-0.7,0-1.2,0.2-1.6,0.7c-0.4,0.4-0.7,1.1-0.7,1.9h4.5
				c0-0.8-0.2-1.4-0.5-1.9C98.6,40.4,98.1,40.1,97.4,40.1z"/>
			<path class="st0" d="M110.2,39.2V40l-1.6,0.2c0.1,0.2,0.3,0.4,0.4,0.7c0.1,0.3,0.2,0.6,0.2,1c0,0.8-0.3,1.5-0.9,2
				c-0.6,0.5-1.4,0.8-2.4,0.8c-0.3,0-0.5,0-0.7-0.1c-0.6,0.3-0.8,0.7-0.8,1.1c0,0.2,0.1,0.4,0.3,0.5c0.2,0.1,0.5,0.2,1,0.2h1.5
				c0.9,0,1.6,0.2,2.1,0.6c0.5,0.4,0.7,1,0.7,1.7c0,0.9-0.4,1.7-1.1,2.2c-0.8,0.5-1.9,0.7-3.3,0.7c-1.1,0-2-0.2-2.6-0.6
				c-0.6-0.4-0.9-1-0.9-1.8c0-0.5,0.2-1,0.5-1.4c0.3-0.4,0.8-0.6,1.4-0.8c-0.2-0.1-0.4-0.3-0.6-0.5s-0.2-0.5-0.2-0.7
				c0-0.3,0.1-0.6,0.2-0.8c0.2-0.2,0.4-0.5,0.8-0.7c-0.4-0.2-0.8-0.5-1.1-0.9c-0.3-0.4-0.4-0.9-0.4-1.5c0-0.9,0.3-1.7,0.8-2.2
				s1.4-0.8,2.4-0.8c0.4,0,0.9,0.1,1.2,0.2H110.2z M103.3,49.2c0,0.5,0.2,0.8,0.6,1.1s1,0.4,1.7,0.4c1.1,0,1.9-0.2,2.4-0.5
				s0.8-0.8,0.8-1.3c0-0.5-0.1-0.8-0.4-1c-0.3-0.2-0.8-0.3-1.6-0.3h-1.6c-0.6,0-1,0.1-1.4,0.4S103.3,48.7,103.3,49.2z M104,42
				c0,0.6,0.2,1.1,0.5,1.4c0.3,0.3,0.8,0.5,1.4,0.5c1.3,0,1.9-0.6,1.9-1.8c0-1.3-0.6-1.9-1.9-1.9c-0.6,0-1.1,0.2-1.4,0.5
				S104,41.3,104,42z"/>
			<path class="st0" d="M115.5,47.9c-1.3,0-2.3-0.4-3-1.2c-0.7-0.8-1.1-1.8-1.1-3.2c0-1.4,0.3-2.5,1-3.3s1.6-1.2,2.7-1.2
				c1.1,0,1.9,0.4,2.5,1.1s0.9,1.6,0.9,2.8v0.8h-5.9c0,1,0.3,1.8,0.8,2.3c0.5,0.5,1.2,0.8,2,0.8c0.9,0,1.8-0.2,2.7-0.6v1.2
				c-0.5,0.2-0.9,0.3-1.3,0.4C116.6,47.9,116.1,47.9,115.5,47.9z M115.2,40.1c-0.7,0-1.2,0.2-1.6,0.7c-0.4,0.4-0.7,1.1-0.7,1.9h4.5
				c0-0.8-0.2-1.4-0.5-1.9C116.4,40.4,115.9,40.1,115.2,40.1z"/>
			<path class="st0" d="M132.4,43.5c0,1.4-0.4,2.5-1.1,3.3s-1.7,1.2-2.9,1.2c-0.8,0-1.4-0.2-2-0.5s-1.1-0.9-1.4-1.5
				c-0.3-0.7-0.5-1.5-0.5-2.4c0-1.4,0.3-2.5,1-3.3c0.7-0.8,1.7-1.2,2.9-1.2c1.2,0,2.1,0.4,2.9,1.2C132.1,41.1,132.4,42.1,132.4,43.5
				z M125.9,43.5c0,1.1,0.2,1.9,0.7,2.5s1.1,0.9,1.9,0.9c0.8,0,1.5-0.3,1.9-0.9c0.4-0.6,0.7-1.4,0.7-2.5c0-1.1-0.2-1.9-0.7-2.5
				c-0.4-0.6-1.1-0.8-1.9-0.8c-0.8,0-1.5,0.3-1.9,0.8C126.1,41.6,125.9,42.4,125.9,43.5z"/>
			<path class="st0" d="M138.6,40.2h-2.2v7.6h-1.3v-7.6h-1.5v-0.6l1.5-0.5v-0.5c0-2.1,0.9-3.2,2.8-3.2c0.5,0,1,0.1,1.6,0.3l-0.3,1
				c-0.5-0.2-0.9-0.2-1.3-0.2c-0.5,0-0.9,0.2-1.1,0.5s-0.4,0.8-0.4,1.6v0.6h2.2V40.2z"/>
			<path class="st0" d="M149.5,47.8l-3.9-10.1h-0.1c0.1,0.8,0.1,1.8,0.1,2.9v7.3h-1.2V36.4h2l3.6,9.4h0.1l3.6-9.4h2v11.4h-1.3v-7.4
				c0-0.8,0-1.8,0.1-2.8h-0.1l-3.9,10.1H149.5z"/>
			<path class="st0" d="M162.3,47.9c-1.3,0-2.3-0.4-3-1.2c-0.7-0.8-1.1-1.8-1.1-3.2c0-1.4,0.3-2.5,1-3.3s1.6-1.2,2.7-1.2
				c1.1,0,1.9,0.4,2.5,1.1s0.9,1.6,0.9,2.8v0.8h-5.9c0,1,0.3,1.8,0.8,2.3c0.5,0.5,1.2,0.8,2,0.8c0.9,0,1.8-0.2,2.7-0.6v1.2
				c-0.5,0.2-0.9,0.3-1.3,0.4C163.4,47.9,162.9,47.9,162.3,47.9z M162,40.1c-0.7,0-1.2,0.2-1.6,0.7c-0.4,0.4-0.7,1.1-0.7,1.9h4.5
				c0-0.8-0.2-1.4-0.5-1.9C163.2,40.4,162.7,40.1,162,40.1z"/>
			<path class="st0" d="M173.5,46.6L173.5,46.6c-0.7,0.9-1.6,1.3-2.8,1.3c-1.1,0-2-0.4-2.6-1.1c-0.6-0.8-0.9-1.9-0.9-3.3
				s0.3-2.5,0.9-3.3s1.5-1.2,2.6-1.2c1.2,0,2.1,0.4,2.7,1.3h0.1l-0.1-0.6l0-0.6v-3.5h1.3v12.2h-1.1L173.5,46.6z M170.9,46.8
				c0.9,0,1.5-0.2,1.9-0.7s0.6-1.3,0.6-2.3v-0.3c0-1.2-0.2-2.1-0.6-2.6c-0.4-0.5-1-0.8-1.9-0.8c-0.8,0-1.3,0.3-1.7,0.9
				c-0.4,0.6-0.6,1.4-0.6,2.5c0,1.1,0.2,1.9,0.6,2.5C169.6,46.6,170.2,46.8,170.9,46.8z"/>
			<path class="st0" d="M177.4,36.9c0-0.3,0.1-0.5,0.2-0.7c0.1-0.1,0.3-0.2,0.5-0.2c0.2,0,0.4,0.1,0.5,0.2c0.2,0.1,0.2,0.4,0.2,0.6
				s-0.1,0.5-0.2,0.7c-0.2,0.1-0.3,0.2-0.5,0.2c-0.2,0-0.4-0.1-0.5-0.2C177.5,37.4,177.4,37.2,177.4,36.9z M178.8,47.8h-1.3v-8.6
				h1.3V47.8z"/>
			<path class="st0" d="M185,47.9c-1.2,0-2.2-0.4-2.9-1.1s-1-1.8-1-3.2c0-1.4,0.3-2.5,1-3.3c0.7-0.8,1.7-1.2,2.9-1.2
				c0.4,0,0.8,0,1.2,0.1c0.4,0.1,0.7,0.2,1,0.3l-0.4,1.1c-0.3-0.1-0.6-0.2-0.9-0.3c-0.3-0.1-0.6-0.1-0.9-0.1c-1.7,0-2.6,1.1-2.6,3.3
				c0,1.1,0.2,1.9,0.6,2.4c0.4,0.6,1.1,0.8,1.9,0.8c0.7,0,1.4-0.2,2.2-0.5v1.1C186.6,47.8,185.8,47.9,185,47.9z"/>
			<path class="st0" d="M189.1,36.9c0-0.3,0.1-0.5,0.2-0.7c0.1-0.1,0.3-0.2,0.5-0.2c0.2,0,0.4,0.1,0.5,0.2c0.2,0.1,0.2,0.4,0.2,0.6
				s-0.1,0.5-0.2,0.7c-0.2,0.1-0.3,0.2-0.5,0.2c-0.2,0-0.4-0.1-0.5-0.2C189.1,37.4,189.1,37.2,189.1,36.9z M190.5,47.8h-1.3v-8.6
				h1.3V47.8z"/>
			<path class="st0" d="M199.1,47.8v-5.5c0-0.7-0.2-1.2-0.5-1.6c-0.3-0.3-0.8-0.5-1.5-0.5c-0.9,0-1.6,0.2-2,0.7
				c-0.4,0.5-0.6,1.3-0.6,2.4v4.5h-1.3v-8.6h1.1l0.2,1.2h0.1c0.3-0.4,0.6-0.7,1.1-1c0.5-0.2,1-0.3,1.6-0.3c1,0,1.8,0.2,2.3,0.7
				c0.5,0.5,0.8,1.3,0.8,2.4v5.6H199.1z"/>
			<path class="st0" d="M206.7,47.9c-1.3,0-2.3-0.4-3-1.2c-0.7-0.8-1.1-1.8-1.1-3.2c0-1.4,0.3-2.5,1-3.3s1.6-1.2,2.7-1.2
				c1.1,0,1.9,0.4,2.5,1.1s0.9,1.6,0.9,2.8v0.8h-5.9c0,1,0.3,1.8,0.8,2.3c0.5,0.5,1.2,0.8,2,0.8c0.9,0,1.8-0.2,2.7-0.6v1.2
				c-0.5,0.2-0.9,0.3-1.3,0.4C207.7,47.9,207.2,47.9,206.7,47.9z M206.3,40.1c-0.7,0-1.2,0.2-1.6,0.7c-0.4,0.4-0.7,1.1-0.7,1.9h4.5
				c0-0.8-0.2-1.4-0.5-1.9C207.5,40.4,207,40.1,206.3,40.1z"/>
		</g>
	</g>
</g>
</svg>
