<?xml version="1.0" encoding="utf-8"?>
<!-- Generator: Adobe Illustrator 22.0.1, SVG Export Plug-In . SVG Version: 6.00 Build 0)  -->
<svg version="1.1" id="Layer_1" xmlns="http://www.w3.org/2000/svg" xmlns:xlink="http://www.w3.org/1999/xlink" x="0px" y="0px"
	 viewBox="0 0 179.6 115.5" style="enable-background:new 0 0 179.6 115.5;" xml:space="preserve">
<style type="text/css">
	.st0{fill:#FFFFFF;}
	.st1{fill:#A6A6A6;}
</style>
<g>
	<g>
		<path d="M42.7,75.1h-0.9v-4.9h-1.7v-0.8h4.3v0.8h-1.7V75.1z"/>
		<path d="M48.9,75.1h-3.2v-5.7h3.2v0.8h-2.3v1.6h2.2v0.8h-2.2v1.8h2.3V75.1z"/>
		<path d="M54.8,75.1h-1.1l-1.4-2.3l-1.4,2.3h-1l1.9-3l-1.8-2.8h1l1.3,2.2l1.3-2.2h1l-1.8,2.8L54.8,75.1z"/>
		<path d="M59.5,75.1l-0.6-1.6h-2.2l-0.6,1.6h-1l2.1-5.7h1l2.1,5.7H59.5z M58.7,72.7l-0.5-1.6c0-0.1-0.1-0.3-0.2-0.5
			c-0.1-0.2-0.1-0.4-0.1-0.5c-0.1,0.3-0.2,0.7-0.3,1.1L57,72.7H58.7z"/>
		<path d="M64.9,73.6c0,0.5-0.2,0.9-0.6,1.2c-0.4,0.3-0.9,0.4-1.5,0.4s-1.2-0.1-1.6-0.3V74c0.3,0.1,0.5,0.2,0.8,0.3
			c0.3,0.1,0.6,0.1,0.8,0.1c0.4,0,0.6-0.1,0.8-0.2s0.3-0.3,0.3-0.6c0-0.2-0.1-0.4-0.2-0.5c-0.2-0.1-0.5-0.3-1-0.5
			c-0.5-0.2-0.9-0.5-1.1-0.7c-0.2-0.3-0.3-0.6-0.3-1c0-0.5,0.2-0.9,0.5-1.1c0.3-0.3,0.8-0.4,1.4-0.4c0.5,0,1.1,0.1,1.6,0.4l-0.3,0.8
			c-0.5-0.2-1-0.3-1.4-0.3c-0.3,0-0.5,0.1-0.7,0.2c-0.2,0.1-0.2,0.3-0.2,0.5c0,0.1,0,0.3,0.1,0.4s0.2,0.2,0.3,0.3
			c0.1,0.1,0.4,0.2,0.8,0.4c0.4,0.2,0.7,0.3,0.9,0.5c0.2,0.2,0.3,0.3,0.4,0.5C64.9,73.1,64.9,73.3,64.9,73.6z"/>
		<path d="M72.4,75.1l-0.6-1.6h-2.2l-0.6,1.6h-1l2.1-5.7h1l2.1,5.7H72.4z M71.6,72.7l-0.5-1.6c0-0.1-0.1-0.3-0.2-0.5
			c-0.1-0.2-0.1-0.4-0.1-0.5c-0.1,0.3-0.2,0.7-0.3,1.1L70,72.7H71.6z"/>
		<path d="M74.2,73.6c0-0.3,0.1-0.6,0.2-0.9c0.2-0.3,0.5-0.5,0.9-0.8c-0.2-0.3-0.4-0.5-0.5-0.7c-0.1-0.2-0.1-0.4-0.1-0.6
			c0-0.4,0.1-0.7,0.4-0.9c0.3-0.2,0.7-0.3,1.1-0.3c0.5,0,0.8,0.1,1.1,0.3c0.3,0.2,0.4,0.5,0.4,0.9c0,0.3-0.1,0.6-0.3,0.8
			c-0.2,0.2-0.5,0.5-0.9,0.7l1.4,1.3c0.2-0.3,0.4-0.7,0.5-1.2h0.9c-0.2,0.7-0.5,1.3-0.9,1.8l1.2,1.1h-1.2L78,74.5
			c-0.3,0.2-0.5,0.4-0.8,0.5c-0.3,0.1-0.6,0.2-1,0.2c-0.6,0-1.1-0.1-1.4-0.4C74.4,74.5,74.2,74.1,74.2,73.6z M76.2,74.4
			c0.5,0,0.9-0.1,1.2-0.4l-1.5-1.5c-0.3,0.2-0.5,0.3-0.6,0.5c-0.1,0.2-0.2,0.3-0.2,0.5c0,0.3,0.1,0.5,0.3,0.6
			C75.6,74.3,75.9,74.4,76.2,74.4z M75.6,70.6c0,0.2,0,0.3,0.1,0.5c0.1,0.1,0.2,0.3,0.4,0.5c0.3-0.2,0.5-0.3,0.6-0.5
			c0.1-0.1,0.2-0.3,0.2-0.5c0-0.2-0.1-0.3-0.2-0.4S76.5,70,76.3,70c-0.2,0-0.4,0.1-0.5,0.2S75.6,70.4,75.6,70.6z"/>
		<path d="M83.4,75.1l-1.7-4.8h0c0,0.7,0.1,1.4,0.1,2v2.8h-0.8v-5.7h1.3l1.6,4.5h0l1.6-4.5h1.3v5.7h-0.9v-2.8c0-0.3,0-0.7,0-1.1
			c0-0.5,0-0.7,0-0.8h0l-1.7,4.8H83.4z"/>
		<path d="M95.7,69.4v3.7c0,0.4-0.1,0.8-0.3,1.1c-0.2,0.3-0.4,0.6-0.8,0.7c-0.3,0.2-0.8,0.3-1.2,0.3c-0.7,0-1.3-0.2-1.7-0.6
			c-0.4-0.4-0.6-0.9-0.6-1.5v-3.7h0.9V73c0,0.5,0.1,0.8,0.3,1s0.6,0.3,1,0.3c0.9,0,1.3-0.5,1.3-1.4v-3.6H95.7z"/>
		<path d="M102.3,75.1h-1.1l-2.8-4.6h0l0,0.3c0,0.5,0.1,0.9,0.1,1.3v3h-0.8v-5.7h1.1l2.8,4.5h0c0-0.1,0-0.3,0-0.7s0-0.7,0-0.9v-3
			h0.9V75.1z"/>
		<path d="M104.2,75.1v-5.7h0.9v5.7H104.2z"/>
		<path d="M110.3,69.4h1l-2,5.7h-1l-2-5.7h1l1.2,3.6c0.1,0.2,0.1,0.4,0.2,0.7s0.1,0.5,0.1,0.6c0-0.2,0.1-0.4,0.2-0.7
			c0.1-0.3,0.1-0.5,0.2-0.6L110.3,69.4z"/>
		<path d="M115.6,75.1h-3.2v-5.7h3.2v0.8h-2.3v1.6h2.2v0.8h-2.2v1.8h2.3V75.1z"/>
		<path d="M118.2,72.8v2.3h-0.9v-5.7h1.6c0.7,0,1.3,0.1,1.6,0.4s0.5,0.7,0.5,1.3c0,0.7-0.4,1.2-1.1,1.5l1.6,2.5h-1.1l-1.4-2.3H118.2
			z M118.2,72.1h0.6c0.4,0,0.8-0.1,0.9-0.2c0.2-0.2,0.3-0.4,0.3-0.7c0-0.3-0.1-0.6-0.3-0.7c-0.2-0.1-0.5-0.2-1-0.2h-0.6V72.1z"/>
		<path d="M126.1,73.6c0,0.5-0.2,0.9-0.6,1.2c-0.4,0.3-0.9,0.4-1.5,0.4s-1.2-0.1-1.6-0.3V74c0.3,0.1,0.5,0.2,0.8,0.3
			c0.3,0.1,0.6,0.1,0.8,0.1c0.4,0,0.6-0.1,0.8-0.2s0.3-0.3,0.3-0.6c0-0.2-0.1-0.4-0.2-0.5c-0.2-0.1-0.5-0.3-1-0.5
			c-0.5-0.2-0.9-0.5-1.1-0.7c-0.2-0.3-0.3-0.6-0.3-1c0-0.5,0.2-0.9,0.5-1.1c0.3-0.3,0.8-0.4,1.4-0.4c0.5,0,1.1,0.1,1.6,0.4l-0.3,0.8
			c-0.5-0.2-1-0.3-1.4-0.3c-0.3,0-0.5,0.1-0.7,0.2c-0.2,0.1-0.2,0.3-0.2,0.5c0,0.1,0,0.3,0.1,0.4s0.2,0.2,0.3,0.3
			c0.1,0.1,0.4,0.2,0.8,0.4c0.4,0.2,0.7,0.3,0.9,0.5c0.2,0.2,0.3,0.3,0.4,0.5C126,73.1,126.1,73.3,126.1,73.6z"/>
		<path d="M127.6,75.1v-5.7h0.9v5.7H127.6z"/>
		<path d="M132.4,75.1h-0.9v-4.9h-1.7v-0.8h4.3v0.8h-1.7V75.1z"/>
		<path d="M137,72l1.4-2.6h1l-1.9,3.5v2.2h-0.9v-2.2l-1.9-3.5h1L137,72z"/>
	</g>
	<g>
		<path d="M23.5,83.3c-1.3,0-2.2,0.4-3,1.3s-1.1,2-1.1,3.4c0,1.5,0.4,2.6,1.1,3.5s1.7,1.2,3,1.2c0.8,0,1.7-0.1,2.7-0.4v1.2
			c-0.8,0.3-1.8,0.4-2.9,0.4c-1.7,0-3-0.5-3.9-1.5S18,89.8,18,88c0-1.2,0.2-2.2,0.7-3.1s1.1-1.6,1.9-2s1.8-0.7,2.9-0.7
			c1.2,0,2.2,0.2,3.1,0.7l-0.6,1.1C25.2,83.5,24.3,83.3,23.5,83.3z"/>
		<path d="M35.9,89.4c0,1.4-0.4,2.5-1.1,3.3s-1.7,1.2-2.9,1.2c-0.8,0-1.4-0.2-2-0.5s-1.1-0.9-1.4-1.5S28,90.3,28,89.4
			c0-1.4,0.3-2.5,1-3.3S30.7,85,32,85c1.2,0,2.1,0.4,2.9,1.2S35.9,88,35.9,89.4z M29.4,89.4c0,1.1,0.2,1.9,0.7,2.5s1.1,0.9,1.9,0.9
			s1.5-0.3,1.9-0.9s0.7-1.4,0.7-2.5c0-1.1-0.2-1.9-0.7-2.5s-1.1-0.8-1.9-0.8c-0.8,0-1.5,0.3-1.9,0.8S29.4,88.3,29.4,89.4z"/>
		<path d="M39.5,93.7h-1.3V81.5h1.3V93.7z"/>
		<path d="M43.5,93.7h-1.3V81.5h1.3V93.7z"/>
		<path d="M49.9,93.8c-1.3,0-2.3-0.4-3-1.2s-1.1-1.8-1.1-3.2c0-1.4,0.3-2.5,1-3.3s1.6-1.2,2.7-1.2c1.1,0,1.9,0.4,2.5,1.1
			s0.9,1.6,0.9,2.8v0.8h-5.9c0,1,0.3,1.8,0.8,2.3s1.2,0.8,2,0.8c0.9,0,1.8-0.2,2.7-0.6v1.2c-0.5,0.2-0.9,0.3-1.3,0.4
			S50.4,93.8,49.9,93.8z M49.5,86.1c-0.7,0-1.2,0.2-1.6,0.7s-0.6,1.1-0.7,1.9h4.5c0-0.8-0.2-1.4-0.5-1.9S50.2,86.1,49.5,86.1z"/>
		<path d="M62.2,85.1v0.8l-1.6,0.2c0.1,0.2,0.3,0.4,0.4,0.7s0.2,0.6,0.2,1c0,0.8-0.3,1.5-0.9,2S59,90.6,58,90.6
			c-0.3,0-0.5,0-0.7-0.1c-0.6,0.3-0.8,0.7-0.8,1.1c0,0.2,0.1,0.4,0.3,0.5s0.5,0.2,1,0.2h1.5c0.9,0,1.6,0.2,2.1,0.6s0.7,1,0.7,1.7
			c0,0.9-0.4,1.7-1.1,2.2s-1.9,0.7-3.3,0.7c-1.1,0-2-0.2-2.6-0.6s-0.9-1-0.9-1.8c0-0.5,0.2-1,0.5-1.4s0.8-0.6,1.4-0.8
			c-0.2-0.1-0.4-0.3-0.6-0.5s-0.2-0.5-0.2-0.7c0-0.3,0.1-0.6,0.2-0.8s0.4-0.5,0.8-0.7c-0.4-0.2-0.8-0.5-1.1-0.9s-0.4-0.9-0.4-1.5
			c0-0.9,0.3-1.7,0.8-2.2S57,85,58.1,85c0.4,0,0.9,0.1,1.2,0.2H62.2z M55.4,95.1c0,0.5,0.2,0.8,0.6,1.1s1,0.4,1.7,0.4
			c1.1,0,1.9-0.2,2.4-0.5s0.8-0.8,0.8-1.3c0-0.5-0.1-0.8-0.4-1s-0.8-0.3-1.6-0.3h-1.6c-0.6,0-1,0.1-1.4,0.4S55.4,94.6,55.4,95.1z
			 M56.1,87.9c0,0.6,0.2,1.1,0.5,1.4s0.8,0.5,1.4,0.5c1.3,0,1.9-0.6,1.9-1.8c0-1.3-0.6-1.9-1.9-1.9c-0.6,0-1.1,0.2-1.4,0.5
			S56.1,87.2,56.1,87.9z"/>
		<path d="M67.6,93.8c-1.3,0-2.3-0.4-3-1.2s-1.1-1.8-1.1-3.2c0-1.4,0.3-2.5,1-3.3s1.6-1.2,2.7-1.2c1.1,0,1.9,0.4,2.5,1.1
			s0.9,1.6,0.9,2.8v0.8h-5.9c0,1,0.3,1.8,0.8,2.3s1.2,0.8,2,0.8c0.9,0,1.8-0.2,2.7-0.6v1.2c-0.5,0.2-0.9,0.3-1.3,0.4
			S68.2,93.8,67.6,93.8z M67.3,86.1c-0.7,0-1.2,0.2-1.6,0.7s-0.6,1.1-0.7,1.9h4.5c0-0.8-0.2-1.4-0.5-1.9S67.9,86.1,67.3,86.1z"/>
		<path d="M84.5,89.4c0,1.4-0.4,2.5-1.1,3.3s-1.7,1.2-2.9,1.2c-0.8,0-1.4-0.2-2-0.5s-1.1-0.9-1.4-1.5s-0.5-1.5-0.5-2.4
			c0-1.4,0.3-2.5,1-3.3s1.7-1.2,2.9-1.2c1.2,0,2.1,0.4,2.9,1.2S84.5,88,84.5,89.4z M78,89.4c0,1.1,0.2,1.9,0.7,2.5s1.1,0.9,1.9,0.9
			s1.5-0.3,1.9-0.9s0.7-1.4,0.7-2.5c0-1.1-0.2-1.9-0.7-2.5s-1.1-0.8-1.9-0.8c-0.8,0-1.5,0.3-1.9,0.8S78,88.3,78,89.4z"/>
		<path d="M90.6,86.1h-2.2v7.6h-1.3v-7.6h-1.5v-0.6l1.5-0.5v-0.5c0-2.1,0.9-3.2,2.8-3.2c0.5,0,1,0.1,1.6,0.3l-0.3,1
			c-0.5-0.2-0.9-0.2-1.3-0.2c-0.5,0-0.9,0.2-1.1,0.5s-0.4,0.8-0.4,1.6v0.6h2.2V86.1z"/>
		<path d="M101.6,93.7l-3.9-10.1h-0.1c0.1,0.8,0.1,1.8,0.1,2.9v7.3h-1.2V82.3h2l3.6,9.4h0.1l3.6-9.4h2v11.4h-1.3v-7.4
			c0-0.8,0-1.8,0.1-2.8h-0.1l-3.9,10.1H101.6z"/>
		<path d="M114.4,93.8c-1.3,0-2.3-0.4-3-1.2s-1.1-1.8-1.1-3.2c0-1.4,0.3-2.5,1-3.3s1.6-1.2,2.7-1.2c1.1,0,1.9,0.4,2.5,1.1
			s0.9,1.6,0.9,2.8v0.8h-5.9c0,1,0.3,1.8,0.8,2.3s1.2,0.8,2,0.8c0.9,0,1.8-0.2,2.7-0.6v1.2c-0.5,0.2-0.9,0.3-1.3,0.4
			S115,93.8,114.4,93.8z M114.1,86.1c-0.7,0-1.2,0.2-1.6,0.7s-0.6,1.1-0.7,1.9h4.5c0-0.8-0.2-1.4-0.5-1.9S114.8,86.1,114.1,86.1z"/>
		<path d="M125.6,92.5L125.6,92.5c-0.7,0.9-1.6,1.3-2.8,1.3c-1.1,0-2-0.4-2.6-1.1s-0.9-1.9-0.9-3.3s0.3-2.5,0.9-3.3s1.5-1.2,2.6-1.2
			c1.2,0,2.1,0.4,2.7,1.3h0.1l-0.1-0.6l0-0.6v-3.5h1.3v12.2h-1.1L125.6,92.5z M123,92.8c0.9,0,1.5-0.2,1.9-0.7s0.6-1.3,0.6-2.3v-0.3
			c0-1.2-0.2-2.1-0.6-2.6s-1-0.8-1.9-0.8c-0.8,0-1.3,0.3-1.7,0.9s-0.6,1.4-0.6,2.5c0,1.1,0.2,1.9,0.6,2.5S122.2,92.8,123,92.8z"/>
		<path d="M129.5,82.8c0-0.3,0.1-0.5,0.2-0.7s0.3-0.2,0.5-0.2c0.2,0,0.4,0.1,0.5,0.2s0.2,0.4,0.2,0.6s-0.1,0.5-0.2,0.7
			s-0.3,0.2-0.5,0.2c-0.2,0-0.4-0.1-0.5-0.2S129.5,83.1,129.5,82.8z M130.9,93.7h-1.3v-8.6h1.3V93.7z"/>
		<path d="M137.1,93.8c-1.2,0-2.2-0.4-2.9-1.1s-1-1.8-1-3.2c0-1.4,0.3-2.5,1-3.3s1.7-1.2,2.9-1.2c0.4,0,0.8,0,1.2,0.1s0.7,0.2,1,0.3
			l-0.4,1.1c-0.3-0.1-0.6-0.2-0.9-0.3s-0.6-0.1-0.9-0.1c-1.7,0-2.6,1.1-2.6,3.3c0,1.1,0.2,1.9,0.6,2.4s1.1,0.8,1.9,0.8
			c0.7,0,1.4-0.2,2.2-0.5v1.1C138.7,93.7,137.9,93.8,137.1,93.8z"/>
		<path d="M141.1,82.8c0-0.3,0.1-0.5,0.2-0.7s0.3-0.2,0.5-0.2c0.2,0,0.4,0.1,0.5,0.2s0.2,0.4,0.2,0.6s-0.1,0.5-0.2,0.7
			s-0.3,0.2-0.5,0.2c-0.2,0-0.4-0.1-0.5-0.2S141.1,83.1,141.1,82.8z M142.6,93.7h-1.3v-8.6h1.3V93.7z"/>
		<path d="M151.2,93.7v-5.5c0-0.7-0.2-1.2-0.5-1.6s-0.8-0.5-1.5-0.5c-0.9,0-1.6,0.2-2,0.7s-0.6,1.3-0.6,2.4v4.5h-1.3v-8.6h1.1
			l0.2,1.2h0.1c0.3-0.4,0.6-0.7,1.1-1s1-0.3,1.6-0.3c1,0,1.8,0.2,2.3,0.7s0.8,1.3,0.8,2.4v5.6H151.2z"/>
		<path d="M158.7,93.8c-1.3,0-2.3-0.4-3-1.2s-1.1-1.8-1.1-3.2c0-1.4,0.3-2.5,1-3.3s1.6-1.2,2.7-1.2c1.1,0,1.9,0.4,2.5,1.1
			s0.9,1.6,0.9,2.8v0.8H156c0,1,0.3,1.8,0.8,2.3s1.2,0.8,2,0.8c0.9,0,1.8-0.2,2.7-0.6v1.2c-0.5,0.2-0.9,0.3-1.3,0.4
			S159.3,93.8,158.7,93.8z M158.4,86.1c-0.7,0-1.2,0.2-1.6,0.7s-0.6,1.1-0.7,1.9h4.5c0-0.8-0.2-1.4-0.5-1.9S159.1,86.1,158.4,86.1z"
			/>
	</g>
	<g>
		<rect x="71.2" y="18.2" width="37.3" height="37.6"/>
		<g>
			<polygon class="st0" points="103.6,33.1 100.8,33.1 100.6,33.1 100.6,33.3 98.6,37.4 96.5,33.3 96.5,33.1 96.3,33.1 93.6,33.1 
				93.4,33.1 93.4,33.4 93.4,34.8 93.4,35.1 93.6,35.1 94.1,35.1 94.1,41 93.6,41 93.3,41 93.3,41.3 93.3,42.7 93.3,43 93.6,43 
				96.6,43 96.9,43 96.9,42.7 96.9,41.3 96.9,41 96.6,41 96.1,41 96.1,36.8 98.3,41.4 98.6,41.9 98.8,41.4 101.1,36.8 101.1,41 
				100.6,41 100.3,41 100.3,41.3 100.3,42.7 100.3,43 100.6,43 103.6,43 103.8,43 103.8,42.7 103.8,41.3 103.8,41 103.6,41 103,41 
				103,35.1 103.6,35.1 103.8,35.1 103.8,34.8 103.8,33.4 103.8,33.1 			"/>
			<path class="st0" d="M86.1,41h-0.8l-2.6-6H83h0.3v-0.3v-1.4v-0.3H83h-3.7H79v0.3v1.4V35h0.3h0.3L77,41h-0.8h-0.3v0.3v1.4V43h0.3
				h3.3h0.3v-0.3v-1.4V41h-0.3h-0.3l0.4-1h3.1l0.4,1h-0.3h-0.3v0.3v1.4V43h0.3h3.3h0.3v-0.3v-1.4V41H86.1z M81.9,38.1h-1.5l0.7-1.7
				L81.9,38.1z"/>
			<polygon class="st0" points="100.4,25.6 79.3,25.6 79,25.6 79,25.9 79,31.5 79,31.8 79.3,31.8 82.9,31.8 83.2,31.8 83.2,31.5 
				83.2,29.4 87.7,29.4 87.7,44.3 85.6,44.3 85.3,44.3 85.3,44.6 85.3,48.2 85.3,48.5 85.6,48.5 94,48.5 94.3,48.5 94.3,48.2 
				94.3,44.6 94.3,44.3 94,44.3 92,44.3 92,29.4 96.4,29.4 96.4,31.5 96.4,31.8 96.7,31.8 100.4,31.8 100.7,31.8 100.7,31.5 
				100.7,25.9 100.7,25.6 			"/>
			<g>
				<polygon class="st1" points="92.6,46 93.5,45.1 93.5,47.6 92.6,46.8 				"/>
				<polygon class="st1" points="91.1,45.2 90.2,46 90.2,27.7 91.1,28.6 				"/>
				<polygon class="st1" points="80.8,27.4 79.9,26.5 99.4,26.5 98.2,27.4 				"/>
				<polygon class="st1" points="99.8,31 98.9,30.1 98.9,27.9 99.8,26.9 				"/>
			</g>
		</g>
	</g>
	<g>
		<path d="M110.1,55c0-0.4,0.3-0.7,0.7-0.7c0.4,0,0.7,0.3,0.7,0.7c0,0.4-0.3,0.7-0.7,0.7C110.5,55.7,110.1,55.4,110.1,55z M111.5,55
			c0-0.3-0.3-0.6-0.6-0.6c-0.3,0-0.6,0.3-0.6,0.6c0,0.3,0.3,0.6,0.6,0.6C111.2,55.6,111.5,55.4,111.5,55z M110.6,54.6h0.3
			c0.2,0,0.3,0.1,0.3,0.2c0,0.1-0.1,0.2-0.2,0.2l0.2,0.4h-0.2l-0.2-0.4h-0.1v0.4h-0.2V54.6z M110.8,54.9h0.1c0.1,0,0.2,0,0.2-0.1
			c0-0.1-0.1-0.1-0.2-0.1h-0.1V54.9z"/>
	</g>
</g>
</svg>
