<svg xmlns="http://www.w3.org/2000/svg" xmlns:xlink="http://www.w3.org/1999/xlink" viewBox="0 0 600 75"><defs><style>.a{fill:none;}.b{fill:url(#a);}.c{clip-path:url(#b);}.d{fill:#fff;}.e{fill:#a6a6a6;}</style><linearGradient id="a" x1="468.75" y1="-131.25" x2="131.25" y2="206.25" gradientUnits="userSpaceOnUse"><stop offset="0" stop-color="#500000"/><stop offset="0.33" stop-color="#4d0000"/><stop offset="0.53" stop-color="#450000"/><stop offset="0.69" stop-color="#370000"/><stop offset="0.83" stop-color="#230000"/><stop offset="0.96" stop-color="#090000"/><stop offset="1"/></linearGradient><clipPath id="b"><rect class="a" x="44.2" y="8.85" width="211.6" height="57.3"/></clipPath></defs><rect class="b" width="600" height="75"/><g class="c"><rect class="d" x="97.84" y="19.83" width="1.24" height="35.35"/><g class="c"><path class="d" d="M79.83,50.89H80c.1,0,.29,0,.29-.19s-.1-.19-.29-.19h-.19Zm-.19-.48h.48c.28,0,.47.1.47.38s-.09.29-.28.38l.28.57H80.4l-.28-.57H80v.57h-.19V50.41Zm1.24.57a.86.86,0,1,0-.86.86.8.8,0,0,0,.86-.86M79,51a1.14,1.14,0,0,1,1-1.14,1.08,1.08,0,0,1,1,1.14A1.06,1.06,0,0,1,80,52c-.57.1-1-.48-1-1.05"/><polygon class="d" points="88.88 32.5 85.45 32.5 85.16 32.5 85.16 32.69 82.59 38.02 80.02 32.69 79.92 32.5 79.73 32.5 76.3 32.5 76.02 32.5 76.02 32.78 76.02 34.69 76.02 34.98 76.3 34.98 76.88 34.98 76.88 42.6 76.3 42.6 75.92 42.6 75.92 42.88 75.92 44.69 75.92 45.07 76.3 45.07 80.11 45.07 80.4 45.07 80.4 44.69 80.4 42.88 80.4 42.6 80.11 42.6 79.45 42.6 79.45 37.17 82.31 43.07 82.59 43.65 82.88 43.07 85.74 37.17 85.74 42.6 85.07 42.6 84.78 42.6 84.78 42.88 84.78 44.69 84.78 45.07 85.07 45.07 88.88 45.07 89.26 45.07 89.26 44.69 89.26 42.88 89.26 42.6 88.88 42.6 88.31 42.6 88.31 34.98 88.88 34.98 89.26 34.98 89.26 34.69 89.26 32.78 89.26 32.5 88.88 32.5"/><path class="d" d="M61,36.69l1,2.1H60.11Zm2.29-4.19h-5v2.38h.67L55.53,42.5H54.2V45H59V42.6H58.3l.57-1.24h4l.57,1.24h-.67V45h4.77V42.6H66.2L62.87,35h.57V32.59h-.19Z"/><polygon class="d" points="84.88 22.97 58.11 22.97 57.73 22.97 57.73 23.35 57.73 30.5 57.73 30.88 58.11 30.88 62.77 30.88 63.16 30.88 63.16 30.5 63.16 27.83 68.87 27.83 68.87 46.69 66.2 46.69 65.82 46.69 65.82 47.08 65.82 51.74 65.82 52.13 66.2 52.13 76.88 52.13 77.26 52.13 77.26 51.74 77.26 47.08 77.26 46.69 76.88 46.69 74.21 46.69 74.21 27.83 79.83 27.83 79.83 30.4 79.83 30.78 80.21 30.78 84.88 30.78 85.26 30.78 85.26 30.4 85.26 23.35 85.26 22.97 84.88 22.97"/><polygon class="e" points="74.97 48.88 76.11 47.74 76.11 50.98 74.97 49.84 74.97 48.88"/><polygon class="e" points="73.06 47.84 72.02 48.98 72.02 25.64 73.06 26.69 73.06 47.84"/><polygon class="e" points="60.01 25.16 58.87 24.02 83.64 24.02 82.12 25.16 60.01 25.16"/><polygon class="e" points="84.21 29.73 83.07 28.69 83.07 25.83 84.21 24.69 84.21 29.73"/><polygon class="d" points="110.51 29.83 109.65 29.83 109.65 25.16 108.03 25.16 108.03 24.4 112.13 24.4 112.13 25.16 110.51 25.16 110.51 29.83"/><polygon class="d" points="116.42 29.83 113.37 29.83 113.37 24.4 116.42 24.4 116.42 25.16 114.22 25.16 114.22 26.69 116.32 26.69 116.32 27.45 114.22 27.45 114.22 29.16 116.42 29.16 116.42 29.83"/><polygon class="d" points="121.94 29.83 120.89 29.83 119.56 27.64 118.22 29.83 117.27 29.83 119.08 26.97 117.37 24.3 118.32 24.3 119.56 26.4 120.8 24.3 121.75 24.3 120.13 27.07 121.94 29.83"/><path class="d" d="M126.51,29.83l-.57-1.52h-2.09l-.57,1.52h-1l2-5.43h1l2,5.43Zm-.85-2.29L125.18,26a1.45,1.45,0,0,0-.19-.48.74.74,0,0,1-.09-.38c-.1.29-.2.67-.29,1.05l-.48,1.33Z"/><path class="d" d="M131.66,28.4a1.34,1.34,0,0,1-.57,1.14,2.28,2.28,0,0,1-1.43.39,3.7,3.7,0,0,1-1.53-.29v-.86l.77.29a2.47,2.47,0,0,0,.76.09,1.42,1.42,0,0,0,.76-.19.57.57,0,0,0,.29-.57.78.78,0,0,0-.19-.48,4.58,4.58,0,0,0-1-.47,3.33,3.33,0,0,1-1-.67,1.42,1.42,0,0,1-.29-1,1.22,1.22,0,0,1,.48-1A2.44,2.44,0,0,1,130,24.4a2.93,2.93,0,0,1,1.52.38l-.28.76a3.74,3.74,0,0,0-1.34-.28,1.32,1.32,0,0,0-.66.19c-.19.09-.19.28-.19.47a.62.62,0,0,0,.09.39l.29.28a4.56,4.56,0,0,0,.76.38,3.45,3.45,0,0,1,.86.48,1.74,1.74,0,0,1,.38.47c.09.2.19.2.19.48"/><path class="d" d="M138.8,29.83l-.57-1.52h-2.09l-.57,1.52h-1l2-5.43h1l2,5.43ZM138,27.54,137.57,26a1.72,1.72,0,0,0-.19-.48,1,1,0,0,1-.1-.47c-.09.28-.19.66-.29,1l-.47,1.43Z"/><path class="d" d="M140.52,28.4a2.72,2.72,0,0,1,.19-.86c.1-.28.48-.47.86-.76-.19-.28-.38-.47-.48-.66a1.33,1.33,0,0,1-.09-.58.91.91,0,0,1,.38-.85,1.9,1.9,0,0,1,1.05-.29,1.69,1.69,0,0,1,1,.29.91.91,0,0,1,.38.85,1.09,1.09,0,0,1-.28.77,3.37,3.37,0,0,1-.86.66L144,28.21a2.93,2.93,0,0,0,.48-1.14h.86a4.83,4.83,0,0,1-.86,1.71l1.14,1h-1.14l-.57-.57a3.81,3.81,0,0,1-.76.48,3,3,0,0,1-1,.19,1.84,1.84,0,0,1-1.33-.39,1.48,1.48,0,0,1-.38-1.14m1.91.76a1.51,1.51,0,0,0,1.14-.38l-1.43-1.43c-.29.19-.48.29-.57.48a1,1,0,0,0-.19.48.58.58,0,0,0,.28.57,1.46,1.46,0,0,0,.77.28m-.58-3.62a.84.84,0,0,0,.1.48,1.6,1.6,0,0,0,.38.48c.29-.19.48-.29.57-.48a1,1,0,0,0,.19-.48.49.49,0,0,0-.19-.38.69.69,0,0,0-1,0,.56.56,0,0,0-.1.38"/><path class="d" d="M149.29,29.83l-1.62-4.57c0,.66.09,1.33.09,1.9v2.67H147V24.4h1.24l1.52,4.29,1.53-4.29h1.23v5.43h-.85V25.35l-1.62,4.58h-.76Z"/><path class="d" d="M160.91,24.4v3.52a1.9,1.9,0,0,1-.29,1,1.33,1.33,0,0,1-.76.67,5.3,5.3,0,0,1-1.14.29,2.24,2.24,0,0,1-1.62-.58,1.93,1.93,0,0,1-.57-1.43V24.4h.85v3.43a1.25,1.25,0,0,0,.29,1,1.42,1.42,0,0,0,1,.29c.86,0,1.24-.48,1.24-1.34V24.3h1Z"/><path class="d" d="M167.2,29.83h-1l-2.67-4.38v.28c0,.48.1.86.1,1.24v2.86h-.77V24.4h1.05l2.67,4.29V24.3h.86v5.53Z"/><rect class="d" x="169.01" y="24.4" width="0.86" height="5.43"/><path class="d" d="M174.82,24.4h1l-1.9,5.43h-1L171,24.4h1l1.14,3.43a5.64,5.64,0,0,1,.2.67,1.72,1.72,0,0,1,.09.57,2.69,2.69,0,0,1,.19-.67c.1-.28.1-.48.19-.57Z"/><polygon class="d" points="179.96 29.83 176.91 29.83 176.91 24.4 179.96 24.4 179.96 25.16 177.77 25.16 177.77 26.69 179.87 26.69 179.87 27.45 177.77 27.45 177.77 29.16 179.96 29.16 179.96 29.83"/><path class="d" d="M182.44,27.64v2.19h-.86V24.4h1.53a2.2,2.2,0,0,1,1.52.38,1.57,1.57,0,0,1,.48,1.14,1.5,1.5,0,0,1-1.05,1.43l1.53,2.39h-1.05l-1.34-2.2h-.76Zm0-.67H183a1.57,1.57,0,0,0,.86-.19,1,1,0,0,0,.29-.66.74.74,0,0,0-.29-.67,2,2,0,0,0-1-.19h-.57V27Z"/><path class="d" d="M189.87,28.4a1.34,1.34,0,0,1-.57,1.14,2.28,2.28,0,0,1-1.43.39,3.61,3.61,0,0,1-1.52-.29v-.86c.28.1.47.19.76.29a2.5,2.5,0,0,0,.76.09,1.42,1.42,0,0,0,.76-.19.57.57,0,0,0,.29-.57.78.78,0,0,0-.19-.48,4.69,4.69,0,0,0-.95-.47,3.27,3.27,0,0,1-1.05-.67,1.42,1.42,0,0,1-.29-1,1.22,1.22,0,0,1,.48-1,2.44,2.44,0,0,1,1.33-.38,3,3,0,0,1,1.53.38l-.29.76a3.69,3.69,0,0,0-1.33-.28,1.33,1.33,0,0,0-.67.19c-.19.09-.19.28-.19.47a.57.57,0,0,0,.1.39l.28.28a5,5,0,0,0,.76.38,3.45,3.45,0,0,1,.86.48,1.57,1.57,0,0,1,.38.47c.1.2.19.2.19.48"/><rect class="d" x="191.3" y="24.4" width="0.86" height="5.43"/><polygon class="d" points="195.97 29.83 195.11 29.83 195.11 25.16 193.49 25.16 193.49 24.4 197.59 24.4 197.59 25.16 195.97 25.16 195.97 29.83"/><polygon class="d" points="200.26 26.88 201.59 24.4 202.54 24.4 200.73 27.73 200.73 29.83 199.88 29.83 199.88 27.73 198.07 24.4 199.02 24.4 200.26 26.88"/><path class="d" d="M114,37.64a3.48,3.48,0,0,0-2.85,1.24,4.56,4.56,0,0,0-1.05,3.24,5.17,5.17,0,0,0,1.05,3.34A3.58,3.58,0,0,0,114,46.6a9.1,9.1,0,0,0,2.58-.38v1.14a8,8,0,0,1-2.77.38,4.69,4.69,0,0,1-3.71-1.43,6.12,6.12,0,0,1-1.34-4.19,5.84,5.84,0,0,1,.67-2.95,3.92,3.92,0,0,1,1.81-1.91A5.23,5.23,0,0,1,114,36.6a6,6,0,0,1,3,.66l-.57,1.05a4.09,4.09,0,0,0-2.39-.67"/><path class="d" d="M125.85,43.45a4.62,4.62,0,0,1-1,3.15A3.53,3.53,0,0,1,122,47.74a4.08,4.08,0,0,1-1.91-.47,3.23,3.23,0,0,1-1.33-1.43,5.7,5.7,0,0,1-.48-2.29,4.62,4.62,0,0,1,1-3.14A3.51,3.51,0,0,1,122,39.26a3.64,3.64,0,0,1,2.76,1.15,4.11,4.11,0,0,1,1,3m-6.2,0a3.55,3.55,0,0,0,.67,2.39,2.22,2.22,0,0,0,1.81.85,2.09,2.09,0,0,0,1.81-.85,4.19,4.19,0,0,0,.67-2.39,3.54,3.54,0,0,0-.67-2.38,2,2,0,0,0-1.81-.76,2.31,2.31,0,0,0-1.81.76,3.54,3.54,0,0,0-.67,2.38"/><rect class="d" x="128.04" y="36.02" width="1.24" height="11.53"/><rect class="d" x="131.95" y="36.02" width="1.24" height="11.53"/><path class="d" d="M139.19,47.74a3.59,3.59,0,0,1-2.86-1.14,4.37,4.37,0,0,1-1.05-3.05,4.62,4.62,0,0,1,.95-3.14,3.26,3.26,0,0,1,2.58-1.15,3,3,0,0,1,2.38,1.05A3.91,3.91,0,0,1,142,43v.76h-5.62a3,3,0,0,0,.77,2.19,2.62,2.62,0,0,0,1.9.76,6.26,6.26,0,0,0,2.57-.57v1.15a8.94,8.94,0,0,1-1.24.38c-.19,0-.66.09-1.23.09m-.29-7.43a1.76,1.76,0,0,0-1.52.67,3.05,3.05,0,0,0-.67,1.81H141a3.34,3.34,0,0,0-.48-1.81,2.08,2.08,0,0,0-1.62-.67"/><path class="d" d="M151,39.45v.77l-1.52.19a5.31,5.31,0,0,1,.38.66,3,3,0,0,1,.19,1,2.4,2.4,0,0,1-.86,1.9,3.45,3.45,0,0,1-2.29.76,1.47,1.47,0,0,1-.66-.09,1.17,1.17,0,0,0-.77,1,.51.51,0,0,0,.29.47,2,2,0,0,0,1,.19h1.43a3.11,3.11,0,0,1,2,.57,2,2,0,0,1,.67,1.62,2.53,2.53,0,0,1-1.05,2.1,5.89,5.89,0,0,1-3.14.67,4.55,4.55,0,0,1-2.48-.57,2,2,0,0,1-.86-1.72,2.23,2.23,0,0,1,.48-1.33,2.7,2.7,0,0,1,1.33-.77,2.36,2.36,0,0,1-.57-.47.92.92,0,0,1-.19-.67,1.89,1.89,0,0,1,.19-.76,2.72,2.72,0,0,1,.76-.67,2.83,2.83,0,0,1-1-.86,2.25,2.25,0,0,1-.39-1.42,3,3,0,0,1,.77-2.1,3.26,3.26,0,0,1,2.28-.76,4,4,0,0,1,1.15.19H151ZM144.52,49a1.2,1.2,0,0,0,.57,1.05,2.78,2.78,0,0,0,1.62.38,4.52,4.52,0,0,0,2.29-.48,1.47,1.47,0,0,0,.76-1.24,1,1,0,0,0-.38-.95,2.86,2.86,0,0,0-1.52-.28h-1.53a2,2,0,0,0-1.33.38,1.18,1.18,0,0,0-.48,1.14m.67-6.95A1.66,1.66,0,0,0,147,43.84c1.24,0,1.81-.58,1.81-1.72A1.57,1.57,0,0,0,147,40.31a1.85,1.85,0,0,0-1.33.48,1.61,1.61,0,0,0-.48,1.24"/><path class="d" d="M156.15,47.74a3.59,3.59,0,0,1-2.86-1.14,4.37,4.37,0,0,1-1-3.05,4.62,4.62,0,0,1,.95-3.14,3.25,3.25,0,0,1,2.57-1.15,3,3,0,0,1,2.39,1.05A3.91,3.91,0,0,1,159,43v.76h-5.52a3,3,0,0,0,.76,2.19,2.65,2.65,0,0,0,1.91.76,6.33,6.33,0,0,0,2.57-.57v1.15a9.84,9.84,0,0,1-1.24.38c-.38,0-.76.09-1.33.09m-.39-7.43a1.77,1.77,0,0,0-1.52.67,3.19,3.19,0,0,0-.67,1.81h4.29a3.34,3.34,0,0,0-.48-1.81,2.07,2.07,0,0,0-1.62-.67"/><path class="d" d="M172.25,43.45a4.62,4.62,0,0,1-1.05,3.15,3.53,3.53,0,0,1-2.76,1.14,4.08,4.08,0,0,1-1.91-.47,3.23,3.23,0,0,1-1.33-1.43,5.7,5.7,0,0,1-.48-2.29,4.62,4.62,0,0,1,.95-3.14,3.51,3.51,0,0,1,2.77-1.15,3.64,3.64,0,0,1,2.76,1.15,4.52,4.52,0,0,1,1.05,3m-6.2,0a3.55,3.55,0,0,0,.67,2.39,2.22,2.22,0,0,0,1.81.85,2.09,2.09,0,0,0,1.81-.85,4.19,4.19,0,0,0,.67-2.39,3.54,3.54,0,0,0-.67-2.38,2,2,0,0,0-1.81-.76,2.31,2.31,0,0,0-1.81.76,3.54,3.54,0,0,0-.67,2.38"/><path class="d" d="M178.06,40.41H176v7.14h-1.24V40.31h-1.43v-.57l1.43-.48v-.47c0-2,.86-3,2.67-3a4.79,4.79,0,0,1,1.53.28l-.29,1a3.05,3.05,0,0,0-1.24-.19,1.25,1.25,0,0,0-1,.47,2.71,2.71,0,0,0-.38,1.53v.57h2.1Z"/><path class="d" d="M188.54,47.55l-3.72-9.62h-.09a25.44,25.44,0,0,1,.09,2.76v6.86h-1.14V36.69h1.91l3.43,9h.09l3.43-9h1.91V47.55h-1.24v-7c0-.76,0-1.71.09-2.67h-.09l-3.62,9.72Z"/><path class="d" d="M200.73,47.74a3.58,3.58,0,0,1-2.85-1.14,4.37,4.37,0,0,1-1-3.05,4.57,4.57,0,0,1,.95-3.14,3.25,3.25,0,0,1,2.57-1.15,3,3,0,0,1,2.39,1.05,3.91,3.91,0,0,1,.85,2.67v.76H198a3.07,3.07,0,0,0,.76,2.19,2.66,2.66,0,0,0,1.91.76,6.29,6.29,0,0,0,2.57-.57v1.15a9.37,9.37,0,0,1-1.24.38c-.19,0-.66.09-1.24.09m-.38-7.43a1.77,1.77,0,0,0-1.52.67,3.19,3.19,0,0,0-.67,1.81h4.29A3.34,3.34,0,0,0,202,41a2.07,2.07,0,0,0-1.62-.67"/><path class="d" d="M211.41,46.5h0a3.48,3.48,0,0,1-5.15.19,5.14,5.14,0,0,1-.86-3.14,5.14,5.14,0,0,1,.86-3.14,2.93,2.93,0,0,1,2.48-1.15,2.84,2.84,0,0,1,2.57,1.24h.1l-.1-.57V36h1.24V47.55h-1Zm-2.48.19a2.13,2.13,0,0,0,1.81-.66,3.56,3.56,0,0,0,.57-2.19v-.29a4.16,4.16,0,0,0-.57-2.48,2.17,2.17,0,0,0-1.81-.76,1.77,1.77,0,0,0-1.62.86,4.18,4.18,0,0,0-.57,2.38,4.18,4.18,0,0,0,.57,2.38,1.78,1.78,0,0,0,1.62.76"/><path class="d" d="M215,37.17a1.33,1.33,0,0,1,.19-.67.68.68,0,0,1,.47-.19.73.73,0,0,1,.48.19c.19.1.19.38.19.57a1.88,1.88,0,0,1-.19.67c-.19.09-.29.19-.48.19a.73.73,0,0,1-.47-.19.8.8,0,0,1-.19-.57m1.43,10.38h-1.24V39.36h1.24Z"/><path class="d" d="M222.27,47.74a3.81,3.81,0,0,1-2.77-1.05,4.19,4.19,0,0,1-.95-3,4.63,4.63,0,0,1,.95-3.15,3.54,3.54,0,0,1,2.77-1.14,4.88,4.88,0,0,1,1.14.09c.38.1.67.19,1,.29l-.38,1-.86-.29a2.74,2.74,0,0,0-.85-.09c-1.62,0-2.48,1-2.48,3.14a3.69,3.69,0,0,0,.57,2.29,2,2,0,0,0,1.81.76,5.92,5.92,0,0,0,2.1-.48v1.05a3.15,3.15,0,0,1-2,.57"/><path class="d" d="M226.17,37.17a1.43,1.43,0,0,1,.19-.67.7.7,0,0,1,1,0c.19.1.19.38.19.57a1.88,1.88,0,0,1-.19.67c-.19.09-.29.19-.48.19a.78.78,0,0,1-.48-.19.85.85,0,0,1-.19-.57m1.34,10.38h-1.24V39.36h1.24Z"/><path class="d" d="M235.7,47.55V42.31a2.38,2.38,0,0,0-.48-1.52,1.93,1.93,0,0,0-1.42-.48,2.32,2.32,0,0,0-1.91.67,3.65,3.65,0,0,0-.57,2.28v4.29h-1.24V39.36h1l.19,1.14h.09a3.35,3.35,0,0,1,1.05-1,4,4,0,0,1,1.53-.29,3,3,0,0,1,2.19.67,3.18,3.18,0,0,1,.76,2.29v5.33Z"/><path class="d" d="M242.94,47.74a3.61,3.61,0,0,1-2.86-1.14,4.41,4.41,0,0,1-1-3.05,4.57,4.57,0,0,1,1-3.14,3.24,3.24,0,0,1,2.57-1.15,2.94,2.94,0,0,1,2.38,1.05A3.91,3.91,0,0,1,245.8,43v.76h-5.62a3,3,0,0,0,.76,2.19,2.65,2.65,0,0,0,1.91.76,6.33,6.33,0,0,0,2.57-.57v1.15a9.84,9.84,0,0,1-1.24.38c-.19,0-.67.09-1.24.09m-.28-7.43a1.78,1.78,0,0,0-1.53.67,3.19,3.19,0,0,0-.67,1.81h4.29a3.43,3.43,0,0,0-.47-1.81,2.23,2.23,0,0,0-1.62-.67"/></g></g><path class="d" d="M348.9,28.61a4.62,4.62,0,0,0-3.8,1.71A7.31,7.31,0,0,0,343.72,35a7.35,7.35,0,0,0,1.33,4.77,4.69,4.69,0,0,0,3.85,1.62,10.49,10.49,0,0,0,2.11-.22c.68-.15,1.38-.33,2.12-.56v2.4a12.84,12.84,0,0,1-4.57.77,7.3,7.3,0,0,1-5.78-2.28,9.57,9.57,0,0,1-2-6.52,10.58,10.58,0,0,1,1-4.68,7,7,0,0,1,2.83-3.07,8.6,8.6,0,0,1,4.35-1.07,10.83,10.83,0,0,1,4.85,1.1l-1,2.34a12.9,12.9,0,0,0-1.83-.72A6.48,6.48,0,0,0,348.9,28.61Z"/><path class="d" d="M372,35a9.41,9.41,0,0,1-2.09,6.51,8.79,8.79,0,0,1-11.89,0A9.44,9.44,0,0,1,356,35a9.28,9.28,0,0,1,2.1-6.52,7.71,7.71,0,0,1,6-2.27,7.54,7.54,0,0,1,5.9,2.31A9.37,9.37,0,0,1,372,35ZM359,35a7.69,7.69,0,0,0,1.28,4.8,5.19,5.19,0,0,0,7.55,0A7.68,7.68,0,0,0,369.05,35a7.72,7.72,0,0,0-1.26-4.78A4.46,4.46,0,0,0,364,28.58a4.58,4.58,0,0,0-3.81,1.63A7.65,7.65,0,0,0,359,35Z"/><path class="d" d="M383.12,43.58l-5-14.31h-.1c.14,2.13.2,4.12.2,6v8.33h-2.54V26.45h4l4.76,13.63h.07l4.89-13.63h4V43.58h-2.7V35.11q0-1.28.06-3.33c.05-1.37.08-2.19.12-2.48h-.1l-5.14,14.28Z"/><path class="d" d="M408.49,43.58h-2.77v-8a3.66,3.66,0,0,0-.56-2.22,2.08,2.08,0,0,0-1.76-.73,2.69,2.69,0,0,0-2.34,1,6.19,6.19,0,0,0-.74,3.46v6.45h-2.76v-13h2.16l.39,1.7h.14a3.61,3.61,0,0,1,1.56-1.43,5,5,0,0,1,2.26-.5q3,0,4,2h.19a4,4,0,0,1,1.61-1.5,5.16,5.16,0,0,1,2.39-.54,4.38,4.38,0,0,1,3.39,1.17,5.21,5.21,0,0,1,1.06,3.57v8.45h-2.76v-8a3.59,3.59,0,0,0-.57-2.22,2.08,2.08,0,0,0-1.76-.73,2.73,2.73,0,0,0-2.35,1,5.14,5.14,0,0,0-.74,3.08Z"/><path class="d" d="M429.65,43.58l-.39-1.7h-.14a3.85,3.85,0,0,1-1.63,1.42,5.55,5.55,0,0,1-2.42.52,4.74,4.74,0,0,1-3.52-1.18,4.86,4.86,0,0,1-1.16-3.55V30.62h2.78v8a3.46,3.46,0,0,0,.61,2.24,2.34,2.34,0,0,0,1.91.74,3,3,0,0,0,2.55-1,5.73,5.73,0,0,0,.81-3.47V30.62h2.77v13Z"/><path class="d" d="M447.15,43.58h-2.77v-8a3.47,3.47,0,0,0-.6-2.23,2.31,2.31,0,0,0-1.92-.74,3,3,0,0,0-2.55,1,5.7,5.7,0,0,0-.81,3.46v6.45h-2.76v-13h2.16l.39,1.7h.14a3.82,3.82,0,0,1,1.66-1.43,5.53,5.53,0,0,1,2.39-.5q4.66,0,4.67,4.74Z"/><path class="d" d="M450.81,27.19a1.54,1.54,0,0,1,.41-1.14,1.59,1.59,0,0,1,1.15-.4,1.41,1.41,0,0,1,1.54,1.54,1.5,1.5,0,0,1-.41,1.11,1.56,1.56,0,0,1-1.13.4,1.59,1.59,0,0,1-1.15-.4A1.5,1.5,0,0,1,450.81,27.19Zm2.92,16.39H451v-13h2.75Z"/><path class="d" d="M462.5,41.59a6.7,6.7,0,0,0,2-.32v2.08a5.6,5.6,0,0,1-1.17.33,8.12,8.12,0,0,1-1.5.14q-3.91,0-3.91-4.13v-7h-1.77V31.49l1.9-1,.93-2.74h1.7v2.88h3.69v2.09h-3.69v6.93a1.93,1.93,0,0,0,.5,1.47A1.81,1.81,0,0,0,462.5,41.59Z"/><path class="d" d="M465.13,30.62h3L470.77,38a13.76,13.76,0,0,1,.8,3h.09a11.75,11.75,0,0,1,.39-1.56q.29-.93,3-8.74h3L472.46,45.3q-1.51,4.05-5,4.05a8.09,8.09,0,0,1-1.78-.2V47a6.69,6.69,0,0,0,1.42.14c1.32,0,2.26-.77,2.8-2.31l.48-1.22Z"/><path class="d" d="M496.19,43.58H486.5V26.45h9.69v2.37H489.3v4.66h6.46v2.34H489.3V41.2h6.89Z"/><path class="d" d="M502.55,43.58l-4.92-13h2.91l2.63,7.54a14.2,14.2,0,0,1,.82,3.07h.1a19.77,19.77,0,0,1,.82-3.07l2.63-7.54h2.93l-4.94,13Z"/><path class="d" d="M518.1,43.82a6.24,6.24,0,0,1-4.72-1.77,6.66,6.66,0,0,1-1.71-4.85,7.38,7.38,0,0,1,1.58-5,5.48,5.48,0,0,1,4.35-1.81,5.33,5.33,0,0,1,4,1.56,5.89,5.89,0,0,1,1.49,4.28v1.49h-8.63a4.15,4.15,0,0,0,1,2.9,3.53,3.53,0,0,0,2.7,1,10.27,10.27,0,0,0,2.14-.22,11.39,11.39,0,0,0,2.13-.72v2.24a8.74,8.74,0,0,1-2,.68A12.75,12.75,0,0,1,518.1,43.82Zm-.5-11.35a2.76,2.76,0,0,0-2.1.83,4,4,0,0,0-1,2.43h5.89a3.61,3.61,0,0,0-.78-2.43A2.65,2.65,0,0,0,517.6,32.47Z"/><path class="d" d="M537.67,43.58h-2.76v-8a3.41,3.41,0,0,0-.61-2.23,2.3,2.3,0,0,0-1.91-.74,3,3,0,0,0-2.56,1,5.7,5.7,0,0,0-.8,3.46v6.45h-2.76v-13h2.16l.38,1.7H529a3.82,3.82,0,0,1,1.66-1.43,5.5,5.5,0,0,1,2.39-.5q4.66,0,4.66,4.74Z"/><path class="d" d="M546.33,41.59a6.71,6.71,0,0,0,2-.32v2.08a5.9,5.9,0,0,1-1.18.33,8.1,8.1,0,0,1-1.49.14q-3.91,0-3.92-4.13v-7H540V31.49l1.9-1,.94-2.74h1.7v2.88h3.69v2.09h-3.69v6.93a1.93,1.93,0,0,0,.5,1.47A1.78,1.78,0,0,0,546.33,41.59Z"/><path class="d" d="M559.65,39.89a3.36,3.36,0,0,1-1.39,2.91,6.58,6.58,0,0,1-4,1,9.43,9.43,0,0,1-4.16-.79V40.65a10.14,10.14,0,0,0,4.26,1.06c1.69,0,2.54-.51,2.54-1.54a1.2,1.2,0,0,0-.28-.82,3.49,3.49,0,0,0-.93-.68,15.25,15.25,0,0,0-1.79-.79,8.34,8.34,0,0,1-3-1.74,3.2,3.2,0,0,1-.79-2.25,3,3,0,0,1,1.34-2.58,6.32,6.32,0,0,1,3.65-.92,10.49,10.49,0,0,1,4.33.92l-.9,2.08a9.54,9.54,0,0,0-3.52-.87c-1.46,0-2.18.41-2.18,1.24a1.24,1.24,0,0,0,.57,1A12.43,12.43,0,0,0,555.88,36a11.83,11.83,0,0,1,2.34,1.14,3.33,3.33,0,0,1,1.07,1.19A3.39,3.39,0,0,1,559.65,39.89Z"/></svg>